mtllib model.mtl
o model.obj
v 0.254203 -1.053445 0.000000
v -0.254202 -1.053445 0.000000
v 0.362457 -1.073265 0.362457
v 0.000000 -1.073265 0.512591
v -0.362457 -1.073265 0.362457
v 0.512591 -1.073265 0.000000
v -0.512591 -1.073265 0.000000
v -0.362457 -1.073265 -0.362457
v 0.000000 -1.165075 0.000000
v 0.000000 -1.073265 -0.512591
v 0.362457 -1.073265 -0.362457
v 1.004216 -0.311983 0.000000
v 0.710088 -0.311983 0.710088
v 0.000000 -0.311983 1.004216
v -0.710088 -0.311983 0.710088
v -1.004215 -0.311983 0.000000
v -0.710088 -0.311983 -0.710088
v 0.000000 -0.311983 -1.004215
v 0.710088 -0.311983 -0.710088
v 0.378322 -0.222149 0.000000
v 0.226948 -0.222149 0.302076
v -0.226948 -0.222149 0.302076
v -0.378322 -0.222149 0.000000
v -0.226948 -0.222149 -0.302076
v 0.226948 -0.222149 -0.302076
v 0.356740 -0.470574 0.000000
v 0.356740 -0.470574 0.000000
v 0.356740 -0.470574 0.000000
v 0.214002 -0.470574 0.284844
v 0.214002 -0.470574 0.284844
v -0.214002 -0.470574 0.284844
v -0.214002 -0.470574 0.284844
v -0.356740 -0.470574 0.000000
v -0.356740 -0.470574 0.000000
v -0.356740 -0.470574 0.000000
v -0.214002 -0.470574 -0.284844
v -0.214002 -0.470574 -0.284844
v 0.214002 -0.470574 -0.284844
v 0.214002 -0.470574 -0.284844
v 0.140711 -1.053445 0.101629
v 0.140711 -1.053445 0.101629
v -0.140711 -1.053445 0.101629
v -0.140711 -1.053445 0.101629
v -0.140711 -1.053445 -0.101629
v -0.140711 -1.053445 -0.101629
v 0.140711 -1.053445 -0.101629
v 0.140711 -1.053445 -0.101629
v 0.209917 -0.470574 0.143051
v 0.209917 -0.470574 0.143051
v -0.209917 -0.470574 0.143051
v -0.209917 -0.470574 0.143051
v -0.209917 -0.470574 -0.143051
v -0.209917 -0.470574 -0.143051
v 0.209917 -0.470574 -0.143051
v 0.209917 -0.470574 -0.143051
v 1.206990 0.000000 -0.000000
v 1.045284 0.000000 0.603495
v 0.603495 0.000000 1.045284
v -0.000000 0.000000 1.206990
v -0.603495 0.000000 1.045284
v -1.045284 0.000000 0.603495
v -1.206990 0.000000 -0.000000
v -1.045284 0.000000 -0.603495
v -0.603495 0.000000 -1.045284
v 0.000000 0.000000 -1.206990
v 0.603495 0.000000 -1.045284
v 1.045284 0.000000 -0.603495
v 0.379229 -0.945440 0.379229
v 0.000000 -0.945440 0.536310
v -0.379229 -0.945440 0.379229
v 0.536310 -0.945440 0.000000
v -0.536310 -0.945440 0.000000
v -0.379229 -0.945440 -0.379229
v 0.000000 -0.945440 -0.536310
v 0.379229 -0.945440 -0.379229
v 0.000000 -0.187363 0.000000
vn 0.982961 -0.183809 0.000997
vn -0.982961 -0.183810 -0.000997
vn 0.485437 -0.727118 0.485437
vn 0.000000 -0.727118 0.686513
vn -0.485437 -0.727118 0.485437
vn 0.686513 -0.727118 -0.000000
vn -0.686513 -0.727118 0.000000
vn -0.485437 -0.727118 -0.485437
vn 0.000000 -1.000000 0.000000
vn -0.000000 -0.727118 -0.686513
vn 0.485437 -0.727118 -0.485437
vn 0.539734 -0.841835 0.000000
vn 0.338245 -0.878169 0.338245
vn 0.000000 -0.841835 0.539734
vn -0.338245 -0.878169 0.338245
vn -0.539734 -0.841836 0.000000
vn -0.338245 -0.878169 -0.338245
vn -0.000000 -0.841836 -0.539734
vn 0.338245 -0.878169 -0.338245
vn 0.996248 -0.086548 -0.000000
vn 0.523245 -0.086079 0.847824
vn -0.523245 -0.086077 0.847824
vn -0.996248 -0.086548 0.000000
vn -0.523245 -0.086079 -0.847824
vn 0.523245 -0.086077 -0.847824
vn 0.000000 -1.000000 0.000000
vn 0.982961 -0.183809 0.000997
vn 0.996248 -0.086548 -0.000000
vn 0.000000 -1.000000 0.000000
vn 0.523245 -0.086079 0.847824
vn 0.000000 -1.000000 0.000000
vn -0.523245 -0.086077 0.847824
vn -0.982961 -0.183810 -0.000997
vn 0.000000 -1.000000 0.000000
vn -0.996248 -0.086548 0.000000
vn 0.000000 -1.000000 0.000000
vn -0.523245 -0.086079 -0.847824
vn 0.000000 -1.000000 0.000000
vn 0.523245 -0.086077 -0.847824
vn 0.662553 -0.116554 0.739891
vn -0.993025 0.117905 0.000000
vn -0.661353 -0.131009 0.738545
vn 0.993025 0.117905 0.000000
vn -0.662556 -0.116556 -0.739888
vn 0.993025 0.117905 0.000000
vn 0.661350 -0.131009 -0.738548
vn -0.993025 0.117905 0.000000
vn 0.662553 -0.116554 0.739891
vn -0.993025 0.117905 0.000000
vn -0.661353 -0.131009 0.738545
vn 0.993025 0.117905 0.000000
vn -0.662556 -0.116556 -0.739888
vn 0.993025 0.117905 0.000000
vn 0.661350 -0.131009 -0.738548
vn -0.993025 0.117905 0.000000
vn 0.838462 -0.544960 0.000000
vn 0.731626 -0.560758 0.387652
vn 0.387652 -0.560758 0.731626
vn 0.000000 -0.544960 0.838462
vn -0.387652 -0.560758 0.731626
vn -0.731626 -0.560758 0.387652
vn -0.838461 -0.544962 0.000000
vn -0.731626 -0.560758 -0.387652
vn -0.387652 -0.560758 -0.731626
vn 0.000000 -0.544962 -0.838461
vn 0.387652 -0.560758 -0.731626
vn 0.731626 -0.560758 -0.387652
vn 0.695239 -0.182445 0.695239
vn 0.000000 -0.182445 0.983216
vn -0.695239 -0.182445 0.695239
vn 0.983216 -0.182445 -0.000000
vn -0.983216 -0.182445 0.000000
vn -0.695239 -0.182445 -0.695239
vn -0.000000 -0.182445 -0.983216
vn 0.695239 -0.182445 -0.695239
vn 0.000000 -1.000000 0.000000
vt 0.389628 0.126186
vt 0.277701 0.136340
vt 0.266363 0.049114
vt 0.385061 0.038345
vt 0.540603 0.126186
vt 0.545170 0.038345
vt 0.652529 0.136340
vt 0.663867 0.049114
vt 0.904434 0.437217
vt 0.894518 0.327921
vt 0.979696 0.316850
vt 0.990210 0.432758
vt 0.904434 0.584644
vt 0.990210 0.589104
vt 0.894518 0.693941
vt 0.979696 0.705013
vt 0.793375 0.994204
vt 0.742627 0.897969
vt 0.791963 0.799516
vt 0.938486 0.994204
vt 0.939898 0.799516
vt 0.989233 0.897969
vt 0.229673 0.192462
vt 0.183037 0.186386
vt 0.183058 0.003688
vt 0.245851 0.011533
vt 0.067147 0.075829
vt 0.113783 0.069750
vt 0.129920 0.250683
vt 0.067127 0.258529
vt 0.020512 0.069754
vt 0.004334 0.250683
vt 0.136402 0.192465
vt 0.120264 0.011533
vt 0.002855 0.996607
vt 0.015083 0.823321
vt 0.075090 0.823321
vt 0.087319 0.996607
vt 0.997631 0.797766
vt 0.810512 0.784560
vt 0.810512 0.719763
vt 0.997631 0.706558
vt 0.838201 0.162472
vt 0.785696 0.287965
vt 0.711784 0.216710
vt 0.711089 0.114033
vt 0.891485 0.286731
vt 0.784917 0.038213
vt 0.890707 0.036979
vt 0.964618 0.108233
vt 0.965314 0.210910
vt 0.270764 0.852826
vt 0.122337 0.888866
vt 0.142265 0.430865
vt 0.103156 0.282388
vt 0.563635 0.303310
vt 0.712062 0.267270
vt 0.692134 0.725272
vt 0.731241 0.873748
vt 0.771782 0.320923
vt 0.678973 0.231110
vt 0.677398 0.101969
vt 0.906839 0.321700
vt 0.769563 0.003243
vt 0.904621 0.004021
vt 0.997430 0.093834
vt 0.999004 0.222975
vt 0.417200 0.578068
vt 0.121730 0.668270
vt 0.509361 0.877543
vt 0.325038 0.278593
vt 0.712669 0.487866
vt 0.538038 0.996789
vt 0.323256 0.997040
vt 0.006353 0.696433
vt 0.000950 0.485466
vt 0.296360 0.159348
vt 0.511143 0.159096
vt 0.828045 0.459703
vt 0.833449 0.670671
g base
usemtl Material1
f 30/1/30 28/2/28 20/3/20 21/4/21 
f 32/5/32 30/1/30 21/4/21 22/6/22 
f 35/7/35 32/5/32 22/6/22 23/8/23 
f 37/9/37 35/10/35 23/11/23 24/12/24 
f 39/13/39 37/9/37 24/12/24 25/14/25 
f 28/15/28 39/13/39 25/14/25 20/16/20 
f 31/17/31 34/18/34 36/19/36 
f 29/20/29 31/17/31 36/19/36 38/21/38 
f 26/22/26 29/20/29 38/21/38 
f 40/23/40 1/24/1 27/25/27 48/26/48 
f 2/27/2 42/28/42 50/29/50 33/30/33 
f 44/31/44 2/27/2 33/30/33 52/32/52 
f 1/24/1 46/33/46 54/34/54 27/25/27 
f 55/35/55 47/36/47 41/37/41 49/38/49 
f 51/39/51 43/40/43 45/41/45 53/42/53 
f 9/43/9 3/44/3 4/45/4 
f 9/43/9 4/45/4 5/46/5 
f 9/43/9 6/47/6 3/44/3 
f 9/43/9 5/46/5 7/48/7 
f 9/43/9 7/48/7 8/49/8 
f 9/43/9 8/49/8 10/50/10 
f 9/43/9 10/50/10 11/51/11 
f 9/43/9 11/51/11 6/47/6 
f 13/52/13 57/74/57 58/53/58 
f 15/54/15 60/76/60 61/55/61 
f 17/56/17 63/78/63 64/57/64 
f 19/58/19 66/80/66 67/59/67 
f 68/60/68 69/61/69 4/45/4 3/44/3 
f 69/61/69 70/62/70 5/46/5 4/45/4 
f 71/63/71 68/60/68 3/44/3 6/47/6 
f 70/62/70 72/64/72 7/48/7 5/46/5 
f 72/64/72 73/65/73 8/49/8 7/48/7 
f 73/65/73 74/66/74 10/50/10 8/49/8 
f 74/66/74 75/67/75 11/51/11 10/50/10 
f 75/67/75 71/63/71 6/47/6 11/51/11 
f 76/68/76 13/52/13 14/69/14 
f 76/68/76 12/70/12 13/52/13 
f 76/68/76 19/58/19 12/70/12 
f 76/68/76 16/71/16 17/56/17 
f 76/68/76 17/56/17 18/72/18 
f 76/68/76 18/72/18 19/58/19 
f 76/68/76 15/54/15 16/71/16 
f 76/68/76 14/69/14 15/54/15 
f 12/70/12 56/73/56 57/74/57 
f 57/74/57 13/52/13 12/70/12 
f 14/69/14 13/52/13 58/53/58 
f 14/69/14 58/53/58 59/75/59 
f 14/69/14 59/75/59 60/76/60 
f 60/76/60 15/54/15 14/69/14 
f 16/71/16 15/54/15 61/55/61 
f 16/71/16 61/55/61 62/77/62 
f 16/71/16 62/77/62 63/78/63 
f 63/78/63 17/56/17 16/71/16 
f 18/72/18 17/56/17 64/57/64 
f 18/72/18 64/57/64 65/79/65 
f 18/72/18 65/79/65 66/80/66 
f 66/80/66 19/58/19 18/72/18 
f 12/70/12 19/58/19 67/59/67 
f 12/70/12 67/59/67 56/73/56 
