mtllib model.mtl
o model.obj
v 1.162735 0.000000 -3.456085
v -1.162735 0.000000 3.406926
v 1.162735 0.000000 3.406926
v -1.162735 0.000000 -3.456085
v 0.955181 0.343902 -2.183575
v 0.955181 0.343902 -3.286791
v -0.441078 0.343902 -3.286791
v -0.441078 0.343902 -2.183575
v 0.955181 0.343902 3.233911
v 0.955181 0.343902 -1.067528
v -0.441078 0.343902 -1.067528
v -0.441078 0.343902 3.233911
v -0.613236 0.343902 3.233911
v -0.613236 0.343902 3.003252
v -0.835438 0.343902 3.003252
v -0.835438 0.343902 3.233911
v -0.835438 0.343902 -1.217504
v -0.613236 0.343902 -1.217504
v -0.613236 0.343902 -2.025254
v -0.835438 0.343902 -2.025254
v -0.613236 0.343902 0.044561
v -0.613236 0.343902 -1.067528
v -0.835438 0.343902 -1.067528
v -0.835438 0.343902 0.044561
v -0.613236 0.343902 2.634380
v -0.613236 0.343902 1.535836
v -0.835438 0.343902 1.535836
v -0.835438 0.343902 2.634380
v -0.613236 0.343902 1.336650
v -0.613236 0.343902 0.238977
v -0.835438 0.343902 0.238977
v -0.835438 0.343902 1.336650
v 0.071679 0.343902 -2.025254
v -0.441078 0.343902 -2.025254
v -0.441078 0.343902 -1.217504
v 0.071679 0.343902 -1.217504
v 0.445308 0.343902 -1.508856
v 0.734253 0.343902 -1.508856
v 0.734253 0.343902 -1.731570
v 0.445308 0.343902 -1.731570
v 0.955181 0.343902 -1.217504
v 0.955181 0.343902 -2.025254
v 0.734253 0.343902 -1.217504
v 0.734253 0.343902 -2.025254
v 1.162735 0.000000 3.406926
v 1.162735 0.250000 3.406926
v -1.162735 0.250000 3.406926
v -1.162735 0.000000 3.406926
v -1.162735 0.000000 -3.456085
v -1.162735 0.250000 -3.456085
v 1.162735 0.250000 -3.456085
v 1.162735 0.000000 -3.456085
v -1.162735 0.000000 3.406926
v -1.162735 0.250000 3.406926
v -1.162735 0.250000 -3.456085
v -1.162735 0.000000 -3.456085
v 1.162735 0.000000 3.406926
v 1.162735 0.000000 -3.456085
v 1.162735 0.250000 -3.456085
v 1.162735 0.250000 3.406926
v 0.955181 0.343902 -3.286791
v 1.003717 0.250000 -3.322008
v -0.460791 0.250000 -3.322008
v -0.441078 0.343902 -3.286791
v 1.003717 0.250000 -2.147291
v 0.955181 0.343902 -2.183575
v -0.441078 0.343902 -2.183575
v -0.460791 0.250000 -2.147291
v 0.955181 0.343902 3.233911
v 1.003717 0.250000 3.273829
v 1.003717 0.250000 -1.102369
v 0.955181 0.343902 -1.067528
v -0.564583 0.250000 3.273829
v -0.564583 0.250000 2.970666
v -0.613236 0.343902 3.003252
v -0.613236 0.343902 3.233911
v -0.856288 0.250000 2.970666
v -0.835438 0.343902 3.003252
v -0.856288 0.250000 3.273829
v -0.835438 0.343902 3.233911
v 0.955181 0.343902 -1.217504
v 1.003717 0.250000 -1.178937
v 1.003717 0.250000 -2.061489
v 0.955181 0.343902 -2.025254
v 0.711111 0.250000 -1.467332
v 0.711111 0.250000 -1.178937
v 0.734253 0.343902 -1.217504
v 0.734253 0.343902 -1.508856
v -0.613236 0.343902 -1.217504
v -0.564583 0.250000 -1.178937
v -0.564583 0.250000 -2.061489
v -0.613236 0.343902 -2.025254
v -0.856288 0.250000 -1.178937
v -0.835438 0.343902 -1.217504
v -0.835438 0.343902 -2.025254
v -0.856288 0.250000 -2.061489
v -0.460791 0.250000 -1.102369
v -0.441078 0.343902 -1.067528
v -0.564583 0.250000 0.084997
v -0.564583 0.250000 -1.102369
v -0.613236 0.343902 -1.067528
v -0.613236 0.343902 0.044561
v -0.856288 0.250000 -1.102369
v -0.835438 0.343902 -1.067528
v -0.856288 0.250000 0.084997
v -0.835438 0.343902 0.044561
v -0.564583 0.250000 2.669152
v -0.564583 0.250000 1.500937
v -0.613236 0.343902 1.535836
v -0.613236 0.343902 2.634380
v -0.856288 0.250000 1.500937
v -0.835438 0.343902 1.535836
v -0.856288 0.250000 2.669152
v -0.835438 0.343902 2.634380
v -0.564583 0.250000 1.370776
v -0.564583 0.250000 0.199221
v -0.613236 0.343902 0.238977
v -0.613236 0.343902 1.336650
v -0.856288 0.250000 0.199221
v -0.835438 0.343902 0.238977
v -0.856288 0.250000 1.370776
v -0.835438 0.343902 1.336650
v -0.441078 0.343902 3.233911
v -0.460791 0.250000 3.273829
v 0.129127 0.250000 -2.061489
v -0.460791 0.250000 -2.061489
v -0.441078 0.343902 -2.025254
v 0.071679 0.343902 -2.025254
v -0.460791 0.250000 -1.178937
v -0.441078 0.343902 -1.217504
v 0.071679 0.343902 -1.217504
v 0.129127 0.250000 -1.178937
v 0.418504 0.250000 -1.467332
v 0.445308 0.343902 -1.508856
v 0.711111 0.250000 -1.773094
v 0.418504 0.250000 -1.773094
v 0.445308 0.343902 -1.731570
v 0.734253 0.343902 -1.731570
v 0.711111 0.250000 -2.061489
v 0.734253 0.343902 -2.025254
v 0.955181 0.343902 3.233911
v 1.003717 0.250000 3.273829
v 1.003717 0.250000 -1.102369
v 0.955181 0.343902 -1.067528
v -0.564583 0.250000 0.084997
v -0.564583 0.250000 -1.102369
v -0.613236 0.343902 -1.067528
v -0.613236 0.343902 0.044561
v -0.856288 0.250000 -1.102369
v -0.856288 0.250000 0.084997
v -0.835438 0.343902 0.044561
v -0.835438 0.343902 -1.067528
v -0.441078 0.343902 -1.067528
v -0.460791 0.250000 -1.102369
v -0.460791 0.250000 3.273829
v -0.441078 0.343902 3.233911
v -0.564583 0.250000 1.370776
v -0.564583 0.250000 0.199221
v -0.613236 0.343902 0.238977
v -0.613236 0.343902 1.336650
v -0.856288 0.250000 0.199221
v -0.856288 0.250000 1.370776
v -0.835438 0.343902 1.336650
v -0.835438 0.343902 0.238977
v -0.856288 0.250000 1.500937
v -0.856288 0.250000 2.669152
v -0.835438 0.343902 2.634380
v -0.835438 0.343902 1.535836
v -0.564583 0.250000 2.669152
v -0.564583 0.250000 1.500937
v -0.613236 0.343902 1.535836
v -0.613236 0.343902 2.634380
v -0.564583 0.250000 3.273829
v -0.564583 0.250000 2.970666
v -0.613236 0.343902 3.003252
v -0.613236 0.343902 3.233911
v -0.856288 0.250000 2.970666
v -0.856288 0.250000 3.273829
v -0.835438 0.343902 3.233911
v -0.835438 0.343902 3.003252
v -0.856288 0.250000 -1.178937
v -0.835438 0.343902 -1.217504
v -0.835438 0.343902 -2.025254
v -0.856288 0.250000 -2.061489
v -0.613236 0.343902 -1.217504
v -0.564583 0.250000 -1.178937
v -0.564583 0.250000 -2.061489
v -0.613236 0.343902 -2.025254
v -0.441078 0.343902 -2.025254
v -0.460791 0.250000 -2.061489
v -0.460791 0.250000 -1.178937
v -0.441078 0.343902 -1.217504
v 0.129127 0.250000 -2.061489
v 0.071679 0.343902 -2.025254
v 0.071679 0.343902 -1.217504
v 0.129127 0.250000 -1.178937
v 0.955181 0.343902 -1.217504
v 1.003717 0.250000 -1.178937
v 1.003717 0.250000 -2.061489
v 0.955181 0.343902 -2.025254
v 0.711111 0.250000 -2.061489
v 0.711111 0.250000 -1.773094
v 0.734253 0.343902 -1.731570
v 0.734253 0.343902 -2.025254
v 0.418504 0.250000 -1.773094
v 0.418504 0.250000 -1.467332
v 0.445308 0.343902 -1.508856
v 0.445308 0.343902 -1.731570
v 0.711111 0.250000 -1.467332
v 0.711111 0.250000 -1.178937
v 0.734253 0.343902 -1.217504
v 0.734253 0.343902 -1.508856
v -0.460791 0.250000 -3.322008
v -0.460791 0.250000 -2.147291
v -0.441078 0.343902 -2.183575
v -0.441078 0.343902 -3.286791
v 1.003717 0.250000 -2.147291
v 1.003717 0.250000 -3.322008
v 0.955181 0.343902 -3.286791
v 0.955181 0.343902 -2.183575
v -1.162730 0.250000 3.406926
v -1.162730 0.250000 -3.456085
v 1.162735 0.250000 -3.456085
v 1.162735 0.250000 3.406926
vn 0.000000 -1.000000 0.000000
vn 0.000000 -1.000000 0.000000
vn 0.000000 -1.000000 0.000000
vn 0.000000 -1.000000 0.000000
vn 0.000000 1.000000 0.000000
vn 0.000000 1.000000 0.000000
vn 0.000000 1.000000 0.000000
vn 0.000000 1.000000 0.000000
vn 0.000000 1.000000 0.000000
vn 0.000000 1.000000 0.000000
vn 0.000000 1.000000 0.000000
vn 0.000000 1.000000 0.000000
vn 0.000000 1.000000 0.000000
vn 0.000000 1.000000 0.000000
vn 0.000000 1.000000 0.000000
vn 0.000000 1.000000 0.000000
vn 0.000000 1.000000 0.000000
vn 0.000000 1.000000 0.000000
vn 0.000000 1.000000 0.000000
vn 0.000000 1.000000 0.000000
vn 0.000000 1.000000 0.000000
vn 0.000000 1.000000 0.000000
vn 0.000000 1.000000 0.000000
vn 0.000000 1.000000 0.000000
vn 0.000000 1.000000 0.000000
vn 0.000000 1.000000 0.000000
vn 0.000000 1.000000 0.000000
vn 0.000000 1.000000 0.000000
vn 0.000000 1.000000 0.000000
vn 0.000000 1.000000 0.000000
vn 0.000000 1.000000 0.000000
vn 0.000000 1.000000 0.000000
vn 0.000000 1.000000 0.000000
vn 0.000000 1.000000 0.000000
vn 0.000000 1.000000 0.000000
vn 0.000000 1.000000 0.000000
vn 0.000000 1.000000 0.000000
vn 0.000000 1.000000 0.000000
vn 0.000000 1.000000 0.000000
vn 0.000000 1.000000 0.000000
vn 0.000000 1.000000 0.000000
vn 0.000000 1.000000 0.000000
vn 0.000000 1.000000 0.000000
vn 0.000000 1.000000 0.000000
vn 0.000000 0.000000 1.000000
vn 0.000000 0.000000 1.000000
vn 0.000000 0.000000 1.000000
vn 0.000000 0.000000 1.000000
vn 0.000000 0.000000 -1.000000
vn 0.000000 0.000000 -1.000000
vn 0.000000 0.000000 -1.000000
vn 0.000000 0.000000 -1.000000
vn -1.000000 0.000000 0.000000
vn -1.000000 0.000000 0.000000
vn -1.000000 0.000000 0.000000
vn -1.000000 0.000000 0.000000
vn 1.000000 0.000000 0.000000
vn 1.000000 0.000000 0.000000
vn 1.000000 0.000000 0.000000
vn 1.000000 0.000000 0.000000
vn 0.000000 0.351155 -0.936318
vn 0.000000 0.351155 -0.936318
vn 0.000000 0.351155 -0.936318
vn 0.000000 0.351155 -0.936318
vn 0.000000 0.360431 0.932786
vn 0.000000 0.360431 0.932786
vn 0.000000 0.360431 0.932786
vn 0.000000 0.360431 0.932786
vn 0.000000 0.391220 0.920297
vn 0.000000 0.391220 0.920297
vn 0.000000 0.347862 -0.937546
vn 0.000000 0.347862 -0.937546
vn 0.000000 0.391220 0.920297
vn 0.000000 0.327843 -0.944732
vn 0.000000 0.327843 -0.944732
vn 0.000000 0.391220 0.920297
vn 0.000000 0.327843 -0.944732
vn 0.000000 0.327843 -0.944732
vn 0.000000 0.391220 0.920297
vn 0.000000 0.391220 0.920297
vn 0.000000 0.379920 0.925019
vn 0.000000 0.379920 0.925019
vn 0.000000 0.360008 -0.932949
vn 0.000000 0.360008 -0.932949
vn 0.000000 0.404428 0.914570
vn 0.000000 0.379920 0.925019
vn 0.000000 0.379920 0.925019
vn 0.000000 0.404428 0.914570
vn 0.000000 0.379920 0.925019
vn 0.000000 0.379920 0.925019
vn 0.000000 0.360008 -0.932949
vn 0.000000 0.360008 -0.932949
vn 0.000000 0.379920 0.925019
vn 0.000000 0.379920 0.925019
vn 0.000000 0.360008 -0.932949
vn 0.000000 0.360008 -0.932949
vn 0.000000 0.347862 -0.937546
vn 0.000000 0.347862 -0.937546
vn 0.000000 0.395508 0.918463
vn 0.000000 0.347862 -0.937546
vn 0.000000 0.347862 -0.937546
vn 0.000000 0.395508 0.918463
vn 0.000000 0.347862 -0.937546
vn 0.000000 0.347862 -0.937546
vn 0.000000 0.395508 0.918463
vn 0.000000 0.395508 0.918463
vn 0.000000 0.347256 0.937770
vn 0.000000 0.348372 -0.937356
vn 0.000000 0.348372 -0.937356
vn 0.000000 0.347256 0.937770
vn 0.000000 0.348372 -0.937356
vn 0.000000 0.348372 -0.937356
vn 0.000000 0.347256 0.937770
vn 0.000000 0.347256 0.937770
vn 0.000000 0.341565 0.939858
vn 0.000000 0.389875 -0.920868
vn 0.000000 0.389875 -0.920868
vn 0.000000 0.341565 0.939858
vn 0.000000 0.389875 -0.920868
vn 0.000000 0.389875 -0.920868
vn 0.000000 0.341565 0.939858
vn 0.000000 0.341565 0.939858
vn 0.000000 0.391220 0.920297
vn 0.000000 0.391220 0.920297
vn 0.000000 0.360008 -0.932949
vn 0.000000 0.360008 -0.932949
vn 0.000000 0.360008 -0.932949
vn 0.000000 0.360008 -0.932949
vn 0.000000 0.379920 0.925019
vn 0.000000 0.379920 0.925019
vn 0.000000 0.379920 0.925019
vn 0.000000 0.379920 0.925019
vn 0.000000 0.404428 0.914570
vn 0.000000 0.404428 0.914570
vn 0.000000 0.404428 -0.914570
vn 0.000000 0.404428 -0.914570
vn 0.000000 0.404428 -0.914570
vn 0.000000 0.404428 -0.914570
vn 0.000000 0.360008 -0.932949
vn 0.000000 0.360008 -0.932949
vn 0.888349 0.459169 0.000000
vn 0.888349 0.459169 0.000000
vn 0.888349 0.459169 0.000000
vn 0.888349 0.459169 0.000000
vn 0.887897 0.460042 0.000000
vn 0.887897 0.460042 0.000000
vn 0.887897 0.460042 0.000000
vn 0.887897 0.460042 0.000000
vn -0.976225 0.216761 0.000000
vn -0.976225 0.216761 0.000000
vn -0.976225 0.216761 0.000000
vn -0.976225 0.216761 0.000000
vn -0.978667 0.205453 0.000000
vn -0.978667 0.205453 0.000000
vn -0.978667 0.205453 0.000000
vn -0.978667 0.205453 0.000000
vn 0.887897 0.460042 0.000000
vn 0.887897 0.460042 0.000000
vn 0.887897 0.460042 0.000000
vn 0.887897 0.460042 0.000000
vn -0.976225 0.216761 0.000000
vn -0.976225 0.216761 0.000000
vn -0.976225 0.216761 0.000000
vn -0.976225 0.216761 0.000000
vn -0.976225 0.216761 0.000000
vn -0.976225 0.216761 0.000000
vn -0.976225 0.216761 0.000000
vn -0.976225 0.216761 0.000000
vn 0.887897 0.460042 0.000000
vn 0.887897 0.460042 0.000000
vn 0.887897 0.460042 0.000000
vn 0.887897 0.460042 0.000000
vn 0.887897 0.460042 0.000000
vn 0.887897 0.460042 0.000000
vn 0.887897 0.460042 0.000000
vn 0.887897 0.460042 0.000000
vn -0.976225 0.216761 0.000000
vn -0.976225 0.216761 0.000000
vn -0.976225 0.216761 0.000000
vn -0.976225 0.216761 0.000000
vn -0.976225 0.216761 0.000000
vn -0.976225 0.216761 0.000000
vn -0.976225 0.216761 0.000000
vn -0.976225 0.216761 0.000000
vn 0.887897 0.460042 0.000000
vn 0.887897 0.460042 0.000000
vn 0.887897 0.460042 0.000000
vn 0.887897 0.460042 0.000000
vn -0.978667 0.205453 0.000000
vn -0.978667 0.205453 0.000000
vn -0.978667 0.205453 0.000000
vn -0.978667 0.205453 0.000000
vn 0.853025 0.521870 0.000000
vn 0.853025 0.521870 0.000000
vn 0.853025 0.521870 0.000000
vn 0.853025 0.521870 0.000000
vn 0.888349 0.459169 0.000000
vn 0.888349 0.459169 0.000000
vn 0.888349 0.459169 0.000000
vn 0.888349 0.459169 0.000000
vn -0.970949 0.239289 0.000000
vn -0.970949 0.239289 0.000000
vn -0.970949 0.239289 0.000000
vn -0.970949 0.239289 0.000000
vn -0.961592 0.274483 0.000000
vn -0.961592 0.274483 0.000000
vn -0.961592 0.274483 0.000000
vn -0.961592 0.274483 0.000000
vn -0.970949 0.239289 0.000000
vn -0.970949 0.239289 0.000000
vn -0.970949 0.239289 0.000000
vn -0.970949 0.239289 0.000000
vn -0.978667 0.205453 0.000000
vn -0.978667 0.205453 0.000000
vn -0.978667 0.205453 0.000000
vn -0.978667 0.205453 0.000000
vn 0.888349 0.459169 0.000000
vn 0.888349 0.459169 0.000000
vn 0.888349 0.459169 0.000000
vn 0.888349 0.459169 0.000000
vn 0.000000 1.000000 0.000000
vn 0.000000 1.000000 0.000000
vn 0.000000 1.000000 0.000000
vn 0.000000 1.000000 0.000000
vt 0.002500 0.297571
vt 0.002500 0.002500
vt 0.428734 0.002500
vt 0.428734 0.297571
vt 0.813232 0.370914
vt 0.972985 0.370914
vt 0.972985 0.783998
vt 0.813232 0.783998
vt 0.028742 0.370914
vt 0.651620 0.370914
vt 0.651620 0.783998
vt 0.028742 0.783998
vt 0.028742 0.834931
vt 0.062143 0.834931
vt 0.062143 0.900669
vt 0.028742 0.900669
vt 0.673338 0.900669
vt 0.673338 0.834931
vt 0.790306 0.834931
vt 0.790306 0.900669
vt 0.490582 0.834931
vt 0.651620 0.834931
vt 0.651620 0.900669
vt 0.490582 0.900669
vt 0.115558 0.834931
vt 0.274635 0.834931
vt 0.274635 0.900669
vt 0.115558 0.900669
vt 0.303478 0.834931
vt 0.462429 0.834931
vt 0.462429 0.900669
vt 0.303478 0.900669
vt 0.790306 0.632298
vt 0.790306 0.783998
vt 0.673338 0.783998
vt 0.673338 0.632298
vt 0.715528 0.521760
vt 0.715528 0.436275
vt 0.747778 0.436275
vt 0.747778 0.521760
vt 0.673338 0.436275
vt 0.673338 0.370914
vt 0.790306 0.370914
vt 0.790306 0.436275
vt 0.797863 0.090282
vt 0.797863 0.131519
vt 0.610116 0.131519
vt 0.610116 0.090282
vt 0.610116 0.071405
vt 0.610116 0.030169
vt 0.797863 0.030169
vt 0.797863 0.071405
vt 0.438072 0.233402
vt 0.438072 0.192165
vt 0.992158 0.192165
vt 0.992158 0.233402
vt 0.437889 0.252181
vt 0.991975 0.252181
vt 0.991975 0.293418
vt 0.437889 0.293418
vt 0.972985 0.370914
vt 0.978085 0.356554
vt 0.978085 0.789830
vt 0.972985 0.783998
vt 0.807977 0.356554
vt 0.813232 0.370914
vt 0.813232 0.783998
vt 0.807977 0.789830
vt 0.066861 0.820536
vt 0.066861 0.906838
vt 0.062143 0.900669
vt 0.062143 0.834931
vt 0.022961 0.906838
vt 0.022961 0.820536
vt 0.028742 0.834931
vt 0.028742 0.900669
vt 0.667753 0.443122
vt 0.667753 0.356554
vt 0.673338 0.370914
vt 0.673338 0.436275
vt 0.667753 0.906838
vt 0.667753 0.820536
vt 0.673338 0.834931
vt 0.673338 0.900669
vt 0.651620 0.370914
vt 0.656665 0.356554
vt 0.656665 0.789830
vt 0.651620 0.783998
vt 0.656665 0.820536
vt 0.656665 0.906838
vt 0.651620 0.900669
vt 0.651620 0.834931
vt 0.484726 0.906838
vt 0.484726 0.820536
vt 0.490582 0.834931
vt 0.490582 0.900669
vt 0.279688 0.820536
vt 0.279688 0.906838
vt 0.274635 0.900669
vt 0.274635 0.834931
vt 0.110523 0.906838
vt 0.110523 0.820536
vt 0.115558 0.834931
vt 0.115558 0.900669
vt 0.468186 0.820536
vt 0.468186 0.906838
vt 0.462429 0.900669
vt 0.462429 0.834931
vt 0.298537 0.906838
vt 0.298537 0.820536
vt 0.303478 0.834931
vt 0.303478 0.900669
vt 0.028742 0.783998
vt 0.022961 0.789830
vt 0.022961 0.356554
vt 0.028742 0.370914
vt 0.795553 0.615302
vt 0.795553 0.789830
vt 0.790306 0.783998
vt 0.790306 0.632298
vt 0.709515 0.529690
vt 0.709515 0.443122
vt 0.715528 0.436275
vt 0.715528 0.521760
vt 0.753791 0.443122
vt 0.753791 0.529690
vt 0.747778 0.521760
vt 0.747778 0.436275
vt 0.795553 0.356554
vt 0.795553 0.443122
vt 0.790306 0.436275
vt 0.790306 0.370914
vt 0.795553 0.820536
vt 0.795553 0.906838
vt 0.790306 0.900669
vt 0.790306 0.834931
vt 0.667753 0.789830
vt 0.667753 0.615302
vt 0.673338 0.632298
vt 0.673338 0.783998
vt 0.028742 0.370914
vt 0.022961 0.356554
vt 0.656665 0.356554
vt 0.651620 0.370914
vt 0.484726 0.820536
vt 0.656665 0.820536
vt 0.651620 0.834931
vt 0.490582 0.834931
vt 0.656665 0.906838
vt 0.484726 0.906838
vt 0.490582 0.900669
vt 0.651620 0.900669
vt 0.651620 0.783998
vt 0.656665 0.789830
vt 0.022961 0.789830
vt 0.028742 0.783998
vt 0.298537 0.820536
vt 0.468186 0.820536
vt 0.462429 0.834931
vt 0.303478 0.834931
vt 0.468186 0.906838
vt 0.298537 0.906838
vt 0.303478 0.900669
vt 0.462429 0.900669
vt 0.279688 0.906838
vt 0.110523 0.906838
vt 0.115558 0.900669
vt 0.274635 0.900669
vt 0.110523 0.820536
vt 0.279688 0.820536
vt 0.274635 0.834931
vt 0.115558 0.834931
vt 0.022961 0.820536
vt 0.066861 0.820536
vt 0.062143 0.834931
vt 0.028742 0.834931
vt 0.066861 0.906838
vt 0.022961 0.906838
vt 0.028742 0.900669
vt 0.062143 0.900669
vt 0.667753 0.906838
vt 0.673338 0.900669
vt 0.790306 0.900669
vt 0.795553 0.906838
vt 0.673338 0.834931
vt 0.667753 0.820536
vt 0.795553 0.820536
vt 0.790306 0.834931
vt 0.790306 0.783998
vt 0.795553 0.789830
vt 0.667753 0.789830
vt 0.673338 0.783998
vt 0.795553 0.615302
vt 0.790306 0.632298
vt 0.673338 0.632298
vt 0.667753 0.615302
vt 0.673338 0.370914
vt 0.667753 0.356554
vt 0.795553 0.356554
vt 0.790306 0.370914
vt 0.795553 0.443122
vt 0.753791 0.443122
vt 0.747778 0.436275
vt 0.790306 0.436275
vt 0.753791 0.529690
vt 0.709515 0.529690
vt 0.715528 0.521760
vt 0.747778 0.521760
vt 0.709515 0.443122
vt 0.667753 0.443122
vt 0.673338 0.436275
vt 0.715528 0.436275
vt 0.978085 0.789830
vt 0.807977 0.789830
vt 0.813232 0.783998
vt 0.972985 0.783998
vt 0.807977 0.356554
vt 0.978085 0.356554
vt 0.972985 0.370914
vt 0.813232 0.370914
vt 0.003094 0.309509
vt 0.996906 0.309509
vt 0.996906 0.997500
vt 0.003094 0.997500
g base
usemtl Default
f 3/1/3 2/2/2 4/3/4 1/4/1 
f 5/5/5 6/6/6 7/7/7 8/8/8 
f 9/9/9 10/10/10 11/11/11 12/12/12 
f 13/13/13 14/14/14 15/15/15 16/16/16 
f 17/17/17 18/18/18 19/19/19 20/20/20 
f 21/21/21 22/22/22 23/23/23 24/24/24 
f 25/25/25 26/26/26 27/27/27 28/28/28 
f 29/29/29 30/30/30 31/31/31 32/32/32 
f 33/33/33 34/34/34 35/35/35 36/36/36 
f 37/37/37 38/38/38 39/39/39 40/40/40 
f 38/38/38 43/41/43 41/42/41 
f 39/39/39 38/38/38 41/42/41 42/43/42 
f 39/39/39 42/43/42 44/44/44 
f 45/45/45 46/46/46 47/47/47 48/48/48 
f 49/49/49 50/50/50 51/51/51 52/52/52 
f 53/53/53 54/54/54 55/55/55 56/56/56 
f 57/57/57 58/58/58 59/59/59 60/60/60 
f 61/61/61 62/62/62 63/63/63 64/64/64 
f 65/65/65 66/66/66 67/67/67 68/68/68 
f 74/69/74 77/70/77 78/71/78 75/72/75 
f 79/73/79 73/74/73 76/75/76 80/76/80 
f 86/77/86 82/78/82 81/79/81 87/80/87 
f 93/81/93 90/82/90 89/83/89 94/84/94 
f 72/85/72 71/86/71 97/87/97 98/88/98 
f 100/89/100 103/90/103 104/91/104 101/92/101 
f 105/93/105 99/94/99 102/95/102 106/96/106 
f 108/97/108 111/98/111 112/99/112 109/100/109 
f 113/101/113 107/102/107 110/103/110 114/104/114 
f 116/105/116 119/106/119 120/107/120 117/108/117 
f 121/109/121 115/110/115 118/111/118 122/112/122 
f 123/113/123 124/114/124 70/115/70 69/116/69 
f 125/117/125 126/118/126 127/119/127 128/120/128 
f 133/121/133 85/122/85 88/123/88 134/124/134 
f 135/125/135 136/126/136 137/127/137 138/128/138 
f 83/129/83 139/130/139 140/131/140 84/132/84 
f 91/133/91 96/134/96 95/135/95 92/136/92 
f 129/137/129 132/138/132 131/139/131 130/140/130 
f 141/141/141 142/142/142 143/143/143 144/144/144 
f 145/145/145 146/146/146 147/147/147 148/148/148 
f 149/149/149 150/150/150 151/151/151 152/152/152 
f 153/153/153 154/154/154 155/155/155 156/156/156 
f 157/157/157 158/158/158 159/159/159 160/160/160 
f 161/161/161 162/162/162 163/163/163 164/164/164 
f 165/165/165 166/166/166 167/167/167 168/168/168 
f 169/169/169 170/170/170 171/171/171 172/172/172 
f 173/173/173 174/174/174 175/175/175 176/176/176 
f 177/177/177 178/178/178 179/179/179 180/180/180 
f 181/181/181 182/182/182 183/183/183 184/184/184 
f 185/185/185 186/186/186 187/187/187 188/188/188 
f 189/189/189 190/190/190 191/191/191 192/192/192 
f 193/193/193 194/194/194 195/195/195 196/196/196 
f 197/197/197 198/198/198 199/199/199 200/200/200 
f 201/201/201 202/202/202 203/203/203 204/204/204 
f 205/205/205 206/206/206 207/207/207 208/208/208 
f 209/209/209 210/210/210 211/211/211 212/212/212 
f 213/213/213 214/214/214 215/215/215 216/216/216 
f 217/217/217 218/218/218 219/219/219 220/220/220 
f 224/221/224 223/222/223 222/223/222 221/224/221 
