mtllib model.mtl
o model.obj
v -4.000000 6.000000 4.000000
v 4.000000 0.000000 4.000000
v 4.000000 6.000000 4.000000
v -4.000000 6.000000 -4.000000
v 4.000000 0.000000 -4.000000
v -4.000000 0.000000 -4.000000
v 4.000000 6.000000 -4.000000
v -4.000000 0.000000 4.000000
v 4.080400 3.000000 -4.080400
v 4.000000 6.000000 -4.000000
v 4.000000 6.000000 4.000000
v 4.080400 3.000000 4.080400
v 4.000000 0.000000 -4.000000
v 4.000000 0.000000 4.000000
v -4.000000 6.000000 4.000000
v -4.000000 6.000000 -4.000000
v -4.080400 3.000000 -4.080400
v -4.080400 3.000000 4.080400
v -4.000000 0.000000 -4.000000
v -4.000000 0.000000 4.000000
v 4.000000 0.000000 4.000000
v 4.080400 3.000000 4.080400
v -4.080400 3.000000 4.080400
v -4.000000 0.000000 4.000000
v 4.000000 0.000000 -4.000000
v -4.000000 0.000000 -4.000000
v -4.080400 3.000000 -4.080400
v 4.080400 3.000000 -4.080400
v 4.000000 6.000000 4.000000
v -4.000000 6.000000 4.000000
v -4.000000 6.000000 -4.000000
v 4.000000 6.000000 -4.000000
vn 0.000000 1.000000 0.000000
vn 0.000000 -1.000000 0.000000
vn 0.000000 1.000000 0.000000
vn 0.000000 1.000000 0.000000
vn 0.000000 -1.000000 0.000000
vn 0.000000 -1.000000 0.000000
vn 0.000000 1.000000 0.000000
vn 0.000000 -1.000000 0.000000
vn 1.000000 -0.000000 0.000000
vn 0.999641 0.026790 0.000000
vn 0.999641 0.026790 0.000000
vn 1.000000 -0.000000 0.000000
vn 0.999641 -0.026790 0.000000
vn 0.999641 -0.026790 0.000000
vn -0.999641 0.026790 0.000000
vn -0.999641 0.026790 0.000000
vn -1.000000 0.000000 0.000000
vn -1.000000 0.000000 0.000000
vn -0.999641 -0.026790 0.000000
vn -0.999641 -0.026790 0.000000
vn 0.000000 -0.026790 0.999641
vn 0.000000 -0.000000 1.000000
vn 0.000000 -0.000000 1.000000
vn 0.000000 -0.026790 0.999641
vn 0.000000 -0.026790 -0.999641
vn 0.000000 -0.026790 -0.999641
vn 0.000000 0.000000 -1.000000
vn 0.000000 0.000000 -1.000000
vn 0.000000 0.026790 0.999641
vn 0.000000 0.026790 0.999641
vn 0.000000 0.026790 -0.999641
vn 0.000000 0.026790 -0.999641
vt 0.007391 0.996962
vt 0.007391 0.605433
vt 0.494034 0.605433
vt 0.494034 0.996962
vt 0.505035 0.997500
vt 0.505035 0.605971
vt 0.991677 0.605971
vt 0.991677 0.997500
vt 0.498924 0.149376
vt 0.494033 0.296252
vt 0.007391 0.296252
vt 0.002500 0.149376
vt 0.494033 0.002500
vt 0.007391 0.002500
vt 0.991677 0.296253
vt 0.505035 0.296253
vt 0.500144 0.149376
vt 0.996568 0.149376
vt 0.510857 0.002500
vt 0.997500 0.002500
vt 0.991677 0.303448
vt 0.996568 0.450324
vt 0.500144 0.450324
vt 0.505035 0.303448
vt 0.007391 0.303448
vt 0.494033 0.303448
vt 0.498924 0.450324
vt 0.002500 0.450324
vt 0.991677 0.597200
vt 0.505035 0.597200
vt 0.494033 0.597200
vt 0.007391 0.597200
g box
usemtl Default
f 1/1/1 3/2/3 7/3/7 4/4/4 
f 6/5/6 5/6/5 2/7/2 8/8/8 
f 9/9/9 10/10/10 11/11/11 12/12/12 
f 13/13/13 9/9/9 12/12/12 14/14/14 
f 15/15/15 16/16/16 17/17/17 18/18/18 
f 17/17/17 19/19/19 20/20/20 18/18/18 
f 21/21/21 22/22/22 23/23/23 24/24/24 
f 25/25/25 26/26/26 27/27/27 28/28/28 
f 22/22/22 29/29/29 30/30/30 23/23/23 
f 27/27/27 31/31/31 32/32/32 28/28/28 
