
v 4.000000 0.000000 -4.000000
v 4.000000 0.000000 -4.000000
v 4.000000 0.000000 -4.000000
v 4.000000 0.000000 4.000000
v 4.000000 0.000000 4.000000
v 4.000000 0.000000 4.000000
v 4.000000 8.000000 -4.000000
v 4.000000 8.000000 -4.000000
v 4.000000 8.000000 -4.000000
v 4.000000 8.000000 4.000000
v 4.000000 8.000000 4.000000
v 4.000000 8.000000 4.000000
v -4.000000 0.000000 -4.000000
v -4.000000 0.000000 -4.000000
v -4.000000 0.000000 -4.000000
v -4.000000 0.000000 4.000000
v -4.000000 0.000000 4.000000
v -4.000000 0.000000 4.000000
v -4.000000 8.000000 -4.000000
v -4.000000 8.000000 -4.000000
v -4.000000 8.000000 -4.000000
v -4.000000 8.000000 4.000000
v -4.000000 8.000000 4.000000
v -4.000000 8.000000 4.000000

vn 1.000000 0.000000 0.000000
vn 0.000000 0.000000 -1.000000
vn 0.000000 -1.000000 0.000000
vn 0.000000 -1.000000 0.000000
vn 0.000000 0.000000 1.000000
vn 1.000000 0.000000 0.000000
vn 1.000000 0.000000 0.000000
vn 0.000000 0.000000 -1.000000
vn 0.000000 1.000000 0.000000
vn 1.000000 0.000000 0.000000
vn 0.000000 1.000000 0.000000
vn 0.000000 0.000000 1.000000
vn 0.000000 -1.000000 0.000000
vn 0.000000 0.000000 -1.000000
vn -1.000000 0.000000 0.000000
vn 0.000000 -1.000000 0.000000
vn 0.000000 0.000000 1.000000
vn -1.000000 0.000000 0.000000
vn 0.000000 1.000000 0.000000
vn 0.000000 0.000000 -1.000000
vn -1.000000 0.000000 0.000000
vn 0.000000 0.000000 1.000000
vn 0.000000 1.000000 0.000000
vn -1.000000 0.000000 0.000000

vt 0.250000 0.750000
vt 0.250000 0.500000
vt 0.500000 0.500000
vt 0.500000 0.750000
vt 1.000000 0.500000
vt 1.000000 0.750000
vt 0.750000 0.750000
vt 0.750000 0.500000
vt 0.750000 1.000000
vt 0.750000 0.750000
vt 1.000000 0.750000
vt 1.000000 1.000000
vt 0.500000 1.000000
vt 0.500000 0.750000
vt 0.750000 0.750000
vt 0.750000 1.000000
vt 0.250000 1.000000
vt 0.250000 0.750000
vt 0.500000 0.750000
vt 0.500000 1.000000
vt 0.750000 0.500000
vt 0.750000 0.750000
vt 0.500000 0.750000
vt 0.500000 0.500000

g cube

f 10/1/10 6/2/6 1/3/1 7/4/7 
f 18/5/18 24/6/24 21/7/21 15/8/15 
f 16/9/16 13/10/13 3/11/3 4/12/4 
f 22/13/22 17/14/17 5/15/5 12/16/12 
f 19/17/19 23/18/23 11/19/11 9/20/9 
f 14/21/14 20/22/20 8/23/8 2/24/2 
