mtllib model.mtl
o model.obj
v 0.000000 -3.000000 -0.000000
v 0.375000 -3.000000 -0.000000
v 0.000000 -2.897778 0.776457
v 0.375000 -2.897778 0.776457
v 0.000000 -2.598076 1.500000
v 0.375000 -2.598076 1.500000
v 0.000000 -2.121320 2.121320
v 0.375000 -2.121320 2.121320
v 0.000000 -1.500000 2.598076
v 0.375000 -1.500000 2.598076
v 0.000000 -0.776457 2.897778
v 0.375000 -0.776457 2.897778
v 0.000000 0.000000 3.000000
v 0.375000 0.000000 3.000000
v 0.000000 0.776457 2.897778
v 0.375000 0.776457 2.897778
v 0.000000 1.500000 2.598076
v 0.375000 1.500000 2.598076
v 0.000000 2.121320 2.121320
v 0.375000 2.121320 2.121320
v 0.000000 2.598076 1.500000
v 0.375000 2.598076 1.500000
v 0.000000 2.897778 0.776457
v 0.375000 2.897778 0.776457
v 0.000000 3.000000 -0.000000
v 0.375000 3.000000 -0.000000
v 0.000000 2.897778 -0.776457
v 0.375000 2.897778 -0.776457
v 0.000000 2.598076 -1.500000
v 0.375000 2.598076 -1.500000
v 0.000000 2.121320 -2.121321
v 0.375000 2.121320 -2.121321
v 0.000000 1.500000 -2.598076
v 0.375000 1.500000 -2.598076
v 0.000000 0.776457 -2.897778
v 0.375000 0.776457 -2.897778
v 0.000000 0.000000 -3.000000
v 0.375000 0.000000 -3.000000
v 0.000000 -0.776457 -2.897778
v 0.375000 -0.776457 -2.897778
v 0.000000 -1.500000 -2.598076
v 0.375000 -1.500000 -2.598076
v 0.000000 -2.121320 -2.121320
v 0.375000 -2.121320 -2.121320
v 0.000000 -2.598076 -1.500000
v 0.375000 -2.598076 -1.500000
v 0.000000 -2.897777 -0.776457
v 0.375000 -2.897777 -0.776457
v 0.375000 -2.589400 -0.000000
v 0.375000 -2.501168 0.670186
v 0.375000 -2.242486 1.294700
v 0.375000 -1.830982 1.830982
v 0.375000 -1.294700 2.242486
v 0.375000 -0.670186 2.501168
v 0.375000 0.000000 2.589400
v 0.375000 0.670186 2.501168
v 0.375000 1.294700 2.242486
v 0.375000 1.830983 1.830982
v 0.375000 2.242486 1.294700
v 0.375000 2.501168 0.670186
v 0.375000 2.589400 -0.000000
v 0.375000 2.501168 -0.670186
v 0.375000 2.242486 -1.294700
v 0.375000 1.830982 -1.830983
v 0.375000 1.294700 -2.242486
v 0.375000 0.670186 -2.501168
v 0.375000 0.000000 -2.589400
v 0.375000 -0.670186 -2.501168
v 0.375000 -1.294700 -2.242486
v 0.375000 -1.830982 -1.830982
v 0.375000 -2.242486 -1.294700
v 0.375000 -2.501168 -0.670186
v 0.250000 -2.589400 -0.000000
v 0.250000 -2.501168 0.670186
v 0.250000 -2.242486 1.294700
v 0.250000 -1.830982 1.830982
v 0.250000 -1.294700 2.242486
v 0.250000 -0.670186 2.501168
v 0.250000 0.000000 2.589400
v 0.250000 0.670186 2.501168
v 0.250000 1.294700 2.242486
v 0.250000 1.830983 1.830982
v 0.250000 2.242486 1.294700
v 0.250000 2.501168 0.670186
v 0.250000 2.589400 -0.000000
v 0.250000 2.501168 -0.670186
v 0.250000 2.242486 -1.294700
v 0.250000 1.830982 -1.830983
v 0.250000 1.294700 -2.242486
v 0.250000 0.670186 -2.501168
v 0.250000 0.000000 -2.589400
v 0.250000 -0.670186 -2.501168
v 0.250000 -1.294700 -2.242486
v 0.250000 -1.830982 -1.830982
v 0.250000 -2.242486 -1.294700
v 0.250000 -2.501168 -0.670186
v 0.375000 -2.897778 0.776457
v 0.375000 -3.000000 -0.000000
v 0.375000 -2.589400 -0.000000
v 0.375000 -2.501168 0.670186
v 0.375000 -2.598076 1.500000
v 0.375000 -2.242486 1.294700
v 0.375000 -2.121320 2.121320
v 0.375000 -1.830982 1.830982
v 0.375000 -1.500000 2.598076
v 0.375000 -1.294700 2.242486
v 0.375000 -0.776457 2.897778
v 0.375000 -0.670186 2.501168
v 0.375000 0.000000 3.000000
v 0.375000 0.000000 2.589400
v 0.375000 0.776457 2.897778
v 0.375000 0.670186 2.501168
v 0.375000 1.500000 2.598076
v 0.375000 1.294700 2.242486
v 0.375000 2.121320 2.121320
v 0.375000 1.830983 1.830982
v 0.375000 2.598076 1.500000
v 0.375000 2.242486 1.294700
v 0.375000 2.897778 0.776457
v 0.375000 2.501168 0.670186
v 0.375000 3.000000 -0.000000
v 0.375000 2.589400 -0.000000
v 0.375000 2.897778 -0.776457
v 0.375000 2.501168 -0.670186
v 0.375000 2.598076 -1.500000
v 0.375000 2.242486 -1.294700
v 0.375000 2.121320 -2.121321
v 0.375000 1.830982 -1.830983
v 0.375000 1.500000 -2.598076
v 0.375000 1.294700 -2.242486
v 0.375000 0.776457 -2.897778
v 0.375000 0.670186 -2.501168
v 0.375000 0.000000 -3.000000
v 0.375000 0.000000 -2.589400
v 0.375000 -0.776457 -2.897778
v 0.375000 -0.670186 -2.501168
v 0.375000 -1.500000 -2.598076
v 0.375000 -1.294700 -2.242486
v 0.375000 -2.121320 -2.121320
v 0.375000 -1.830982 -1.830982
v 0.375000 -2.598076 -1.500000
v 0.375000 -2.242486 -1.294700
v 0.375000 -2.897777 -0.776457
v 0.375000 -2.501168 -0.670186
v 0.250000 -2.589400 -0.000000
v 0.250000 0.000000 -0.000000
v 0.250000 -2.501168 0.670186
v 0.250000 -2.242486 1.294700
v 0.250000 -1.830982 1.830982
v 0.250000 -1.294700 2.242486
v 0.250000 -0.670186 2.501168
v 0.250000 0.000000 2.589400
v 0.250000 0.670186 2.501168
v 0.250000 1.294700 2.242486
v 0.250000 1.830983 1.830982
v 0.250000 2.242486 1.294700
v 0.250000 2.501168 0.670186
v 0.250000 2.589400 -0.000000
v 0.250000 2.501168 -0.670186
v 0.250000 2.242486 -1.294700
v 0.250000 1.830982 -1.830983
v 0.250000 1.294700 -2.242486
v 0.250000 0.670186 -2.501168
v 0.250000 0.000000 -2.589400
v 0.250000 -0.670186 -2.501168
v 0.250000 -1.294700 -2.242486
v 0.250000 -1.830982 -1.830982
v 0.250000 -2.242486 -1.294700
v 0.250000 -2.501168 -0.670186
vn 0.000000 -0.999038 -0.043843
vn 0.000000 -0.999039 0.043841
vn 0.000000 -0.976344 0.216222
vn 0.000000 -0.953650 0.300919
vn 0.000000 -0.887113 0.461552
vn 0.000000 -0.843271 0.537488
vn 0.000000 -0.737428 0.675426
vn 0.000000 -0.675426 0.737428
vn 0.000000 -0.537488 0.843271
vn 0.000000 -0.461552 0.887113
vn 0.000000 -0.300919 0.953650
vn 0.000000 -0.216222 0.976344
vn 0.000000 -0.043842 0.999039
vn 0.000000 0.043842 0.999039
vn 0.000000 0.216222 0.976344
vn 0.000000 0.300919 0.953650
vn 0.000000 0.461552 0.887113
vn 0.000000 0.537488 0.843271
vn 0.000000 0.675426 0.737428
vn 0.000000 0.737428 0.675426
vn 0.000000 0.843271 0.537488
vn 0.000000 0.887113 0.461552
vn 0.000000 0.953650 0.300919
vn 0.000000 0.976344 0.216222
vn 0.000000 0.999039 0.043842
vn 0.000000 0.999039 -0.043842
vn 0.000000 0.976344 -0.216222
vn 0.000000 0.953650 -0.300919
vn 0.000000 0.887114 -0.461551
vn 0.000000 0.843272 -0.537488
vn 0.000000 0.737428 -0.675426
vn 0.000000 0.675426 -0.737428
vn 0.000000 0.537487 -0.843272
vn 0.000000 0.461551 -0.887114
vn 0.000000 0.300919 -0.953650
vn 0.000000 0.216222 -0.976344
vn 0.000000 0.043842 -0.999039
vn 0.000000 -0.043842 -0.999039
vn 0.000000 -0.216222 -0.976344
vn 0.000000 -0.300919 -0.953650
vn 0.000000 -0.461552 -0.887113
vn 0.000000 -0.537488 -0.843271
vn 0.000000 -0.675426 -0.737428
vn 0.000000 -0.737428 -0.675426
vn 0.000000 -0.843272 -0.537488
vn 0.000000 -0.887114 -0.461551
vn 0.000000 -0.953650 -0.300918
vn 0.000000 -0.976344 -0.216222
vn 0.000000 0.999038 0.043842
vn 0.000000 0.976344 -0.216222
vn 0.000000 0.887114 -0.461551
vn 0.000000 0.737428 -0.675426
vn 0.000000 0.537488 -0.843272
vn 0.000000 0.300918 -0.953650
vn 0.000000 0.043842 -0.999038
vn 0.000000 -0.216222 -0.976344
vn 0.000000 -0.461551 -0.887114
vn 0.000000 -0.675426 -0.737428
vn 0.000000 -0.843272 -0.537487
vn 0.000000 -0.953650 -0.300918
vn 0.000000 -0.999038 -0.043842
vn 0.000000 -0.976344 0.216222
vn 0.000000 -0.887114 0.461551
vn 0.000000 -0.737428 0.675426
vn 0.000000 -0.537487 0.843272
vn 0.000000 -0.300918 0.953650
vn 0.000000 -0.043842 0.999038
vn 0.000000 0.216222 0.976344
vn 0.000000 0.461551 0.887114
vn 0.000000 0.675426 0.737428
vn 0.000000 0.843272 0.537488
vn 0.000000 0.953650 0.300918
vn 0.000000 0.999038 -0.043842
vn 0.000000 0.953650 -0.300918
vn 0.000000 0.843272 -0.537488
vn 0.000000 0.675426 -0.737428
vn 0.000000 0.461551 -0.887114
vn 0.000000 0.216222 -0.976344
vn 0.000000 -0.043842 -0.999038
vn 0.000000 -0.300918 -0.953650
vn 0.000000 -0.537487 -0.843272
vn 0.000000 -0.737428 -0.675426
vn 0.000000 -0.887114 -0.461551
vn 0.000000 -0.976344 -0.216222
vn 0.000000 -0.999038 0.043842
vn 0.000000 -0.953650 0.300918
vn 0.000000 -0.843272 0.537487
vn 0.000000 -0.675426 0.737428
vn 0.000000 -0.461551 0.887114
vn 0.000000 -0.216222 0.976344
vn 0.000000 0.043842 0.999038
vn 0.000000 0.300918 0.953650
vn 0.000000 0.537488 0.843272
vn 0.000000 0.737428 0.675426
vn 0.000000 0.887114 0.461551
vn 0.000000 0.976344 0.216222
vn 1.000000 0.000000 0.000000
vn 1.000000 0.000000 0.000000
vn 1.000000 0.000000 0.000000
vn 1.000000 0.000000 0.000000
vn 1.000000 0.000000 0.000000
vn 1.000000 0.000000 0.000000
vn 1.000000 0.000000 0.000000
vn 1.000000 0.000000 0.000000
vn 1.000000 0.000000 0.000000
vn 1.000000 0.000000 0.000000
vn 1.000000 0.000000 0.000000
vn 1.000000 0.000000 0.000000
vn 1.000000 0.000000 0.000000
vn 1.000000 0.000000 0.000000
vn 1.000000 0.000000 0.000000
vn 1.000000 0.000000 0.000000
vn 1.000000 0.000000 0.000000
vn 1.000000 0.000000 0.000000
vn 1.000000 0.000000 0.000000
vn 1.000000 0.000000 0.000000
vn 1.000000 0.000000 0.000000
vn 1.000000 0.000000 0.000000
vn 1.000000 0.000000 0.000000
vn 1.000000 0.000000 0.000000
vn 1.000000 0.000000 0.000000
vn 1.000000 0.000000 0.000000
vn 1.000000 0.000000 0.000000
vn 1.000000 0.000000 0.000000
vn 1.000000 0.000000 0.000000
vn 1.000000 0.000000 0.000000
vn 1.000000 0.000000 0.000000
vn 1.000000 0.000000 0.000000
vn 1.000000 0.000000 0.000000
vn 1.000000 0.000000 0.000000
vn 1.000000 0.000000 0.000000
vn 1.000000 0.000000 0.000000
vn 1.000000 0.000000 0.000000
vn 1.000000 0.000000 0.000000
vn 1.000000 0.000000 0.000000
vn 1.000000 0.000000 0.000000
vn 1.000000 0.000000 0.000000
vn 1.000000 0.000000 0.000000
vn 1.000000 0.000000 0.000000
vn 1.000000 0.000000 0.000000
vn 1.000000 0.000000 0.000000
vn 1.000000 0.000000 0.000000
vn 1.000000 0.000000 0.000000
vn 1.000000 0.000000 0.000000
vn 1.000000 0.000000 0.000000
vn 1.000000 0.000000 0.000000
vn 1.000000 0.000000 0.000000
vn 1.000000 0.000000 0.000000
vn 1.000000 0.000000 0.000000
vn 1.000000 0.000000 0.000000
vn 1.000000 0.000000 0.000000
vn 1.000000 0.000000 0.000000
vn 1.000000 0.000000 0.000000
vn 1.000000 0.000000 0.000000
vn 1.000000 0.000000 0.000000
vn 1.000000 0.000000 0.000000
vn 1.000000 0.000000 0.000000
vn 1.000000 0.000000 0.000000
vn 1.000000 0.000000 0.000000
vn 1.000000 0.000000 0.000000
vn 1.000000 0.000000 0.000000
vn 1.000000 0.000000 0.000000
vn 1.000000 0.000000 0.000000
vn 1.000000 0.000000 0.000000
vn 1.000000 0.000000 0.000000
vn 1.000000 0.000000 0.000000
vn 1.000000 0.000000 0.000000
vn 1.000000 0.000000 0.000000
vn 1.000000 0.000000 0.000000
vt 0.371909 0.016951
vt 0.500000 0.057984
vt 0.386720 0.072976
vt 0.252505 0.066599
vt 0.281103 0.116906
vt 0.149727 0.145475
vt 0.190200 0.186763
vt 0.070164 0.248336
vt 0.119942 0.277916
vt 0.018863 0.368859
vt 0.074874 0.384585
vt 0.000000 0.500000
vt 0.057927 0.500000
vt 0.018863 0.631142
vt 0.074874 0.615415
vt 0.070164 0.751664
vt 0.119942 0.722084
vt 0.149727 0.854525
vt 0.190200 0.813237
vt 0.252505 0.933401
vt 0.281103 0.883094
vt 0.371909 0.983049
vt 0.386720 0.927024
vt 0.500000 1.000000
vt 0.500000 0.942016
vt 0.628092 0.983049
vt 0.613281 0.927024
vt 0.747496 0.933401
vt 0.718898 0.883094
vt 0.850273 0.854525
vt 0.809801 0.813237
vt 0.929837 0.751664
vt 0.880059 0.722084
vt 0.981138 0.631142
vt 0.925127 0.615415
vt 1.000000 0.500000
vt 0.942074 0.500000
vt 0.981138 0.368859
vt 0.925127 0.384585
vt 0.929837 0.248336
vt 0.880059 0.277916
vt 0.850273 0.145475
vt 0.809801 0.186763
vt 0.747496 0.066599
vt 0.718898 0.116906
vt 0.628092 0.016951
vt 0.613281 0.072976
vt 0.500000 0.000000
vt 0.402103 0.131188
vt 0.499999 0.135759
vt 0.406563 0.148144
vt 0.310829 0.169197
vt 0.319456 0.184461
vt 0.232314 0.229679
vt 0.244584 0.242268
vt 0.171792 0.308610
vt 0.187043 0.317674
vt 0.133287 0.400808
vt 0.150791 0.405581
vt 0.119512 0.499965
vt 0.138386 0.499997
vt 0.133283 0.599202
vt 0.150789 0.594417
vt 0.171787 0.691402
vt 0.187041 0.682327
vt 0.232314 0.770330
vt 0.244584 0.757734
vt 0.310833 0.830807
vt 0.319457 0.815541
vt 0.402107 0.868813
vt 0.406565 0.851857
vt 0.500002 0.881776
vt 0.500002 0.864241
vt 0.597898 0.868812
vt 0.593438 0.851856
vt 0.689171 0.830803
vt 0.680544 0.815539
vt 0.767688 0.770321
vt 0.755417 0.757732
vt 0.828209 0.691390
vt 0.812958 0.682326
vt 0.866714 0.599192
vt 0.849210 0.594419
vt 0.880489 0.500035
vt 0.861615 0.500003
vt 0.866718 0.400798
vt 0.849212 0.405583
vt 0.828213 0.308598
vt 0.812960 0.317673
vt 0.767687 0.229670
vt 0.755417 0.242266
vt 0.689168 0.169193
vt 0.680544 0.184459
vt 0.597894 0.131187
vt 0.593436 0.148143
vt 0.499998 0.118224
vt 0.386720 0.072976
vt 0.499998 0.118224
vt 0.402103 0.131188
vt 0.281103 0.116906
vt 0.310829 0.169197
vt 0.190200 0.186763
vt 0.232314 0.229679
vt 0.119942 0.277916
vt 0.171792 0.308610
vt 0.074874 0.384585
vt 0.133287 0.400808
vt 0.057927 0.500000
vt 0.119512 0.499965
vt 0.074874 0.615415
vt 0.133283 0.599202
vt 0.119942 0.722084
vt 0.171787 0.691402
vt 0.190200 0.813237
vt 0.232314 0.770330
vt 0.281103 0.883094
vt 0.310833 0.830807
vt 0.386720 0.927024
vt 0.402107 0.868813
vt 0.500000 0.942016
vt 0.500002 0.881776
vt 0.613281 0.927024
vt 0.597898 0.868812
vt 0.718898 0.883094
vt 0.689171 0.830803
vt 0.809801 0.813237
vt 0.767688 0.770321
vt 0.880059 0.722084
vt 0.828209 0.691390
vt 0.925127 0.615415
vt 0.866714 0.599192
vt 0.942074 0.500000
vt 0.880489 0.500035
vt 0.925127 0.384585
vt 0.866718 0.400798
vt 0.880059 0.277916
vt 0.828213 0.308598
vt 0.809801 0.186763
vt 0.767687 0.229670
vt 0.718898 0.116906
vt 0.689168 0.169193
vt 0.613281 0.072976
vt 0.597894 0.131187
vt 0.500000 0.057984
vt 0.499999 0.135759
vt 0.500000 0.500000
vt 0.406563 0.148144
vt 0.319456 0.184461
vt 0.244584 0.242268
vt 0.187043 0.317674
vt 0.150791 0.405581
vt 0.138386 0.499997
vt 0.150789 0.594417
vt 0.187041 0.682327
vt 0.244584 0.757734
vt 0.319457 0.815541
vt 0.406565 0.851857
vt 0.500002 0.864241
vt 0.593438 0.851856
vt 0.680544 0.815539
vt 0.755417 0.757732
vt 0.812958 0.682326
vt 0.849210 0.594419
vt 0.861615 0.500003
vt 0.849212 0.405583
vt 0.812960 0.317673
vt 0.755417 0.242266
vt 0.680544 0.184459
vt 0.593436 0.148143
g base
usemtl Default
f 3/1/3 1/48/1 2/2/2 
f 3/1/3 2/2/2 4/3/4 
f 5/4/5 3/1/3 4/3/4 
f 5/4/5 4/3/4 6/5/6 
f 7/6/7 5/4/5 6/5/6 
f 7/6/7 6/5/6 8/7/8 
f 9/8/9 7/6/7 8/7/8 
f 9/8/9 8/7/8 10/9/10 
f 11/10/11 9/8/9 10/9/10 
f 11/10/11 10/9/10 12/11/12 
f 13/12/13 11/10/11 12/11/12 
f 13/12/13 12/11/12 14/13/14 
f 15/14/15 13/12/13 14/13/14 
f 15/14/15 14/13/14 16/15/16 
f 17/16/17 15/14/15 16/15/16 
f 17/16/17 16/15/16 18/17/18 
f 19/18/19 17/16/17 18/17/18 
f 19/18/19 18/17/18 20/19/20 
f 21/20/21 19/18/19 20/19/20 
f 21/20/21 20/19/20 22/21/22 
f 23/22/23 21/20/21 22/21/22 
f 23/22/23 22/21/22 24/23/24 
f 25/24/25 23/22/23 24/23/24 
f 25/24/25 24/23/24 26/25/26 
f 27/26/27 25/24/25 26/25/26 
f 27/26/27 26/25/26 28/27/28 
f 29/28/29 27/26/27 28/27/28 
f 29/28/29 28/27/28 30/29/30 
f 31/30/31 29/28/29 30/29/30 
f 31/30/31 30/29/30 32/31/32 
f 33/32/33 31/30/31 32/31/32 
f 33/32/33 32/31/32 34/33/34 
f 35/34/35 33/32/33 34/33/34 
f 35/34/35 34/33/34 36/35/36 
f 37/36/37 35/34/35 36/35/36 
f 37/36/37 36/35/36 38/37/38 
f 39/38/39 37/36/37 38/37/38 
f 39/38/39 38/37/38 40/39/40 
f 41/40/41 39/38/39 40/39/40 
f 41/40/41 40/39/40 42/41/42 
f 43/42/43 41/40/41 42/41/42 
f 43/42/43 42/41/42 44/43/44 
f 45/44/45 43/42/43 44/43/44 
f 45/44/45 44/43/44 46/45/46 
f 47/46/47 45/44/45 46/45/46 
f 47/46/47 46/45/46 48/47/48 
f 1/48/1 47/46/47 48/47/48 
f 1/48/1 48/47/48 2/2/2 
f 50/49/50 49/96/49 73/50/73 
f 50/49/50 73/50/73 74/51/74 
f 51/52/51 50/49/50 74/51/74 
f 51/52/51 74/51/74 75/53/75 
f 52/54/52 51/52/51 75/53/75 
f 52/54/52 75/53/75 76/55/76 
f 53/56/53 52/54/52 76/55/76 
f 53/56/53 76/55/76 77/57/77 
f 54/58/54 53/56/53 77/57/77 
f 54/58/54 77/57/77 78/59/78 
f 55/60/55 54/58/54 78/59/78 
f 55/60/55 78/59/78 79/61/79 
f 56/62/56 55/60/55 79/61/79 
f 56/62/56 79/61/79 80/63/80 
f 57/64/57 56/62/56 80/63/80 
f 57/64/57 80/63/80 81/65/81 
f 58/66/58 57/64/57 81/65/81 
f 58/66/58 81/65/81 82/67/82 
f 59/68/59 58/66/58 82/67/82 
f 59/68/59 82/67/82 83/69/83 
f 60/70/60 59/68/59 83/69/83 
f 60/70/60 83/69/83 84/71/84 
f 61/72/61 60/70/60 84/71/84 
f 61/72/61 84/71/84 85/73/85 
f 62/74/62 61/72/61 85/73/85 
f 62/74/62 85/73/85 86/75/86 
f 63/76/63 62/74/62 86/75/86 
f 63/76/63 86/75/86 87/77/87 
f 64/78/64 63/76/63 87/77/87 
f 64/78/64 87/77/87 88/79/88 
f 65/80/65 64/78/64 88/79/88 
f 65/80/65 88/79/88 89/81/89 
f 66/82/66 65/80/65 89/81/89 
f 66/82/66 89/81/89 90/83/90 
f 67/84/67 66/82/66 90/83/90 
f 67/84/67 90/83/90 91/85/91 
f 68/86/68 67/84/67 91/85/91 
f 68/86/68 91/85/91 92/87/92 
f 69/88/69 68/86/68 92/87/92 
f 69/88/69 92/87/92 93/89/93 
f 70/90/70 69/88/69 93/89/93 
f 70/90/70 93/89/93 94/91/94 
f 71/92/71 70/90/70 94/91/94 
f 71/92/71 94/91/94 95/93/95 
f 72/94/72 71/92/71 95/93/95 
f 72/94/72 95/93/95 96/95/96 
f 49/96/49 72/94/72 96/95/96 
f 49/96/49 96/95/96 73/50/73 
f 97/97/97 98/144/98 99/98/99 
f 97/97/97 99/98/99 100/99/100 
f 101/100/101 97/97/97 100/99/100 
f 101/100/101 100/99/100 102/101/102 
f 103/102/103 101/100/101 102/101/102 
f 103/102/103 102/101/102 104/103/104 
f 105/104/105 103/102/103 104/103/104 
f 105/104/105 104/103/104 106/105/106 
f 107/106/107 105/104/105 106/105/106 
f 107/106/107 106/105/106 108/107/108 
f 109/108/109 107/106/107 108/107/108 
f 109/108/109 108/107/108 110/109/110 
f 111/110/111 109/108/109 110/109/110 
f 111/110/111 110/109/110 112/111/112 
f 113/112/113 111/110/111 112/111/112 
f 113/112/113 112/111/112 114/113/114 
f 115/114/115 113/112/113 114/113/114 
f 115/114/115 114/113/114 116/115/116 
f 117/116/117 115/114/115 116/115/116 
f 117/116/117 116/115/116 118/117/118 
f 119/118/119 117/116/117 118/117/118 
f 119/118/119 118/117/118 120/119/120 
f 121/120/121 119/118/119 120/119/120 
f 121/120/121 120/119/120 122/121/122 
f 123/122/123 121/120/121 122/121/122 
f 123/122/123 122/121/122 124/123/124 
f 125/124/125 123/122/123 124/123/124 
f 125/124/125 124/123/124 126/125/126 
f 127/126/127 125/124/125 126/125/126 
f 127/126/127 126/125/126 128/127/128 
f 129/128/129 127/126/127 128/127/128 
f 129/128/129 128/127/128 130/129/130 
f 131/130/131 129/128/129 130/129/130 
f 131/130/131 130/129/130 132/131/132 
f 133/132/133 131/130/131 132/131/132 
f 133/132/133 132/131/132 134/133/134 
f 135/134/135 133/132/133 134/133/134 
f 135/134/135 134/133/134 136/135/136 
f 137/136/137 135/134/135 136/135/136 
f 137/136/137 136/135/136 138/137/138 
f 139/138/139 137/136/137 138/137/138 
f 139/138/139 138/137/138 140/139/140 
f 141/140/141 139/138/139 140/139/140 
f 141/140/141 140/139/140 142/141/142 
f 143/142/143 141/140/141 142/141/142 
f 143/142/143 142/141/142 144/143/144 
f 98/144/98 143/142/143 144/143/144 
f 98/144/98 144/143/144 99/98/99 
f 145/145/145 146/146/146 147/147/147 
f 147/147/147 146/146/146 148/148/148 
f 148/148/148 146/146/146 149/149/149 
f 149/149/149 146/146/146 150/150/150 
f 150/150/150 146/146/146 151/151/151 
f 151/151/151 146/146/146 152/152/152 
f 152/152/152 146/146/146 153/153/153 
f 153/153/153 146/146/146 154/154/154 
f 154/154/154 146/146/146 155/155/155 
f 155/155/155 146/146/146 156/156/156 
f 156/156/156 146/146/146 157/157/157 
f 157/157/157 146/146/146 158/158/158 
f 158/158/158 146/146/146 159/159/159 
f 159/159/159 146/146/146 160/160/160 
f 160/160/160 146/146/146 161/161/161 
f 161/161/161 146/146/146 162/162/162 
f 162/162/162 146/146/146 163/163/163 
f 163/163/163 146/146/146 164/164/164 
f 164/164/164 146/146/146 165/165/165 
f 165/165/165 146/146/146 166/166/166 
f 166/166/166 146/146/146 167/167/167 
f 167/167/167 146/146/146 168/168/168 
f 168/168/168 146/146/146 169/169/169 
f 169/169/169 146/146/146 145/145/145 
v 0.249894 -0.193736 0.415122
v 0.300151 -0.337162 0.381093
v 0.300151 1.151148 -1.301136
v 0.264283 1.176544 -1.183595
v 0.249894 -0.388417 0.242882
v 0.264283 1.031388 -1.312018
v 0.362317 -2.057699 -0.649841
v 0.362317 -2.046680 -0.683756
v 0.362317 -0.055065 -0.053399
v 0.362317 -0.075935 0.010833
v 0.362317 0.079077 -0.020503
v 0.362317 0.051924 0.063064
v 0.362317 0.008654 0.076436
v 0.362317 0.051930 -0.056753
v 0.362317 1.065949 0.285302
v 0.362317 1.030068 0.395733
v 0.362317 -0.051930 0.056751
v 0.362317 -0.008654 -0.076438
v 0.303095 0.391738 -0.520550
v 0.353353 0.489571 -0.496799
v 0.353353 -1.671503 1.696190
v 0.317484 -1.661390 1.594195
v 0.303095 0.514753 -0.399325
v 0.317484 -1.569670 1.684581
vn 0.935401 0.264500 0.234657
vn 1.000000 0.000001 0.000001
vn 1.000000 -0.000343 0.000389
vn 0.938052 0.258865 0.230319
vn 0.935402 -0.265142 -0.233930
vn 0.938052 -0.260150 -0.228866
vn 1.000000 0.000000 0.000000
vn 1.000000 0.000000 0.000000
vn 1.000000 0.000000 0.000000
vn 1.000000 0.000000 0.000000
vn 1.000000 0.000000 0.000000
vn 1.000000 0.000000 0.000000
vn 1.000000 0.000000 0.000000
vn 1.000000 0.000000 0.000000
vn 1.000000 0.000000 0.000000
vn 1.000000 0.000000 0.000000
vn 1.000000 0.000000 0.000000
vn 1.000000 0.000000 0.000000
vn 0.869147 -0.352030 -0.347359
vn 1.000000 0.000001 0.000001
vn 1.000000 0.000265 -0.000259
vn 0.873930 -0.345748 -0.341620
vn 0.869141 0.352490 0.346908
vn 0.873919 0.346666 0.340717
vt 0.615531 0.055384
vt 0.782766 0.035681
vt 0.782766 0.671984
vt 0.658755 0.651813
vt 0.950000 0.055384
vt 0.906776 0.651813
vt 0.154341 0.994723
vt 0.108456 0.994723
vt 0.087947 0.360568
vt 0.174849 0.360568
vt 0.074866 0.318731
vt 0.187928 0.318731
vt 0.221497 0.329975
vt 0.041299 0.329975
vt 0.056694 0.001971
vt 0.206101 0.001971
vt 0.221497 0.349323
vt 0.041299 0.349323
vt 0.545675 0.940839
vt 0.434560 0.954424
vt 0.434559 0.146183
vt 0.516527 0.167118
vt 0.323446 0.940839
vt 0.352595 0.167118
g hand
usemtl Default
f 170/170/170 171/171/171 172/172/172 
f 172/172/172 173/173/173 170/170/170 
f 174/174/174 175/175/175 172/172/172 
f 172/172/172 171/171/171 174/174/174 
f 176/176/176 177/177/177 178/178/178 179/179/179 
f 180/180/180 181/181/181 182/182/182 183/183/183 
f 184/184/184 185/185/185 181/181/181 180/180/180 
f 186/186/186 187/187/187 183/183/183 182/182/182 
f 186/186/186 179/179/179 178/178/178 187/187/187 
f 188/188/188 189/189/189 190/190/190 
f 190/190/190 191/191/191 188/188/188 
f 192/192/192 193/193/193 190/190/190 
f 190/190/190 189/189/189 192/192/192 
