# Blender v2.79 (sub 0) OBJ File: ''
# www.blender.org
o Cylinder.000_Cylinder.002
v 0.000000 16.000000 -11.999999
v 1.035276 -15.727407 3.999999
v 0.000000 -16.000000 3.999999
v 1.035276 16.000000 -11.863704
v 2.000000 -14.928204 3.999999
v 2.000000 16.000000 -11.464101
v 2.828427 -13.656857 3.999999
v 2.828427 15.999999 -10.828427
v 3.464102 -12.000000 4.000000
v 3.464102 15.999999 -9.999999
v 3.863703 -10.070553 3.999999
v 3.863703 15.999999 -9.035275
v 4.000000 -8.000002 3.999999
v 4.000000 15.999999 -8.000001
v 3.863703 -5.929451 4.000000
v 3.863703 15.999999 -6.964725
v 3.464102 -4.000002 4.000000
v 3.464102 15.999999 -6.000000
v 2.828428 -2.343148 4.000000
v 2.828428 15.999999 -5.171573
v 2.000001 -1.071798 4.000000
v 2.000001 15.999999 -4.535899
v 1.035277 -0.272595 4.000000
v 1.035277 15.999999 -4.136297
v 0.000002 -0.000000 4.000000
v 0.000002 15.999999 -3.999999
v -1.035275 -0.272595 4.000000
v -1.035275 15.999999 -4.136297
v -1.999998 -1.071797 4.000000
v -1.999998 15.999999 -4.535898
v -2.828426 -2.343144 4.000000
v -2.828426 15.999999 -5.171571
v -3.464101 -3.999998 4.000000
v -3.464101 15.999999 -5.999999
v -3.863703 -5.929445 4.000000
v -3.863703 15.999999 -6.964722
v -4.000000 -7.999998 4.000000
v -4.000000 15.999999 -7.999999
v -3.863704 -10.070549 3.999999
v -3.863704 15.999999 -9.035274
v -3.464103 -11.999996 4.000000
v -3.464103 15.999999 -9.999997
v -2.828429 -13.656853 3.999999
v -2.828429 15.999999 -10.828425
v -2.000002 -14.928202 3.999999
v -2.000002 16.000000 -11.464101
v -1.035279 -15.727406 3.999999
v -1.035279 16.000000 -11.863702
vt 0.391686 1.999823
vt 0.326438 0.000181
vt 0.391689 0.000181
vt 0.326435 1.999823
vt 0.261188 0.000181
vt 0.261183 1.999823
vt 0.195937 0.000180
vt 0.195931 1.999823
vt 0.130687 0.000180
vt 0.130680 1.999822
vt 0.065436 0.000180
vt 0.065428 1.999822
vt 0.000185 0.000180
vt 1.566213 1.999819
vt 1.500950 0.000177
vt 1.566200 0.000177
vt 1.500962 1.999819
vt 1.435699 0.000178
vt 1.435710 1.999820
vt 1.370449 0.000178
vt 1.370459 1.999820
vt 1.305198 0.000179
vt 1.305207 1.999820
vt 1.239947 0.000179
vt 1.239956 1.999821
vt 1.174697 0.000179
vt 1.174704 1.999821
vt 1.109446 0.000180
vt 1.109453 1.999821
vt 1.044196 0.000180
vt 1.044201 1.999822
vt 0.978945 0.000180
vt 0.978950 1.999822
vt 0.913694 0.000180
vt 0.913698 1.999822
vt 0.848444 0.000180
vt 0.848447 1.999822
vt 0.783193 0.000181
vt 0.783195 1.999822
vt 0.717942 0.000181
vt 0.717944 1.999822
vt 0.652692 0.000181
vt 0.652692 1.999823
vt 0.587441 0.000181
vt 0.587441 1.999823
vt 0.522190 0.000181
vt 0.522189 1.999823
vt 0.456940 0.000181
vt 0.456938 1.999823
vt 0.000177 1.999822
vn -0.0000 -0.4472 -0.8944
vn 0.1986 -0.4383 -0.8766
vn 0.2250 -0.4357 -0.8715
vn 0.4042 -0.4091 -0.8181
vn 0.4438 -0.4008 -0.8015
vn 0.6066 -0.3556 -0.7111
vn 0.6475 -0.3408 -0.6816
vn 0.7875 -0.2756 -0.5513
vn 0.8214 -0.2550 -0.5101
vn 0.9246 -0.1703 -0.3407
vn 0.9457 -0.1454 -0.2908
vn 0.9947 -0.0460 -0.0919
vn 0.9991 -0.0192 -0.0385
vn 0.9817 0.0851 0.1701
vn 0.9690 0.1105 0.2209
vn 0.8855 0.2078 0.4155
vn 0.8591 0.2289 0.4578
vn 0.7206 0.3101 0.6202
vn 0.6871 0.3249 0.6499
vn 0.5068 0.3855 0.7711
vn 0.4752 0.3935 0.7870
vn 0.2613 0.4317 0.8633
vn 0.2420 0.4339 0.8678
vn 0.0000 0.4472 0.8944
vn -0.2613 0.4317 0.8633
vn -0.2420 0.4339 0.8678
vn -0.5068 0.3855 0.7711
vn -0.4752 0.3935 0.7870
vn -0.7206 0.3101 0.6202
vn -0.6871 0.3249 0.6499
vn -0.8855 0.2078 0.4155
vn -0.8591 0.2289 0.4578
vn -0.9817 0.0851 0.1701
vn -0.9690 0.1105 0.2209
vn -0.9947 -0.0460 -0.0919
vn -0.9991 -0.0192 -0.0385
vn -0.9246 -0.1703 -0.3407
vn -0.9457 -0.1454 -0.2908
vn -0.7875 -0.2756 -0.5513
vn -0.8214 -0.2550 -0.5101
vn -0.6066 -0.3556 -0.7111
vn -0.6475 -0.3408 -0.6816
vn -0.4042 -0.4091 -0.8181
vn -0.4438 -0.4008 -0.8015
vn -0.1986 -0.4383 -0.8766
vn -0.2250 -0.4357 -0.8715
s 1
f 1/1/1 2/2/2 3/3/1
f 4/4/3 5/5/4 2/2/2
f 6/6/5 7/7/6 5/5/4
f 8/8/7 9/9/8 7/7/6
f 10/10/9 11/11/10 9/9/8
f 12/12/11 13/13/12 11/11/10
f 14/14/13 15/15/14 13/16/12
f 16/17/15 17/18/16 15/15/14
f 18/19/17 19/20/18 17/18/16
f 20/21/19 21/22/20 19/20/18
f 22/23/21 23/24/22 21/22/20
f 24/25/23 25/26/24 23/24/22
f 26/27/24 27/28/25 25/26/24
f 28/29/26 29/30/27 27/28/25
f 30/31/28 31/32/29 29/30/27
f 32/33/30 33/34/31 31/32/29
f 34/35/32 35/36/33 33/34/31
f 36/37/34 37/38/35 35/36/33
f 38/39/36 39/40/37 37/38/35
f 40/41/38 41/42/39 39/40/37
f 42/43/40 43/44/41 41/42/39
f 44/45/42 45/46/43 43/44/41
f 46/47/44 47/48/45 45/46/43
f 48/49/46 3/3/1 47/48/45
f 1/1/1 4/4/3 2/2/2
f 4/4/3 6/6/5 5/5/4
f 6/6/5 8/8/7 7/7/6
f 8/8/7 10/10/9 9/9/8
f 10/10/9 12/12/11 11/11/10
f 12/12/11 14/50/13 13/13/12
f 14/14/13 16/17/15 15/15/14
f 16/17/15 18/19/17 17/18/16
f 18/19/17 20/21/19 19/20/18
f 20/21/19 22/23/21 21/22/20
f 22/23/21 24/25/23 23/24/22
f 24/25/23 26/27/24 25/26/24
f 26/27/24 28/29/26 27/28/25
f 28/29/26 30/31/28 29/30/27
f 30/31/28 32/33/30 31/32/29
f 32/33/30 34/35/32 33/34/31
f 34/35/32 36/37/34 35/36/33
f 36/37/34 38/39/36 37/38/35
f 38/39/36 40/41/38 39/40/37
f 40/41/38 42/43/40 41/42/39
f 42/43/40 44/45/42 43/44/41
f 44/45/42 46/47/44 45/46/43
f 46/47/44 48/49/46 47/48/45
f 48/49/46 1/1/1 3/3/1
