mtllib model.mtl
o model.obj
v -2.991201 2.645769 -0.165811
v -2.898599 2.645769 -0.165811
v -2.991201 3.962940 -0.165811
v -2.898599 3.962940 -0.165811
v -2.991201 2.645769 1.151358
v -2.898599 2.645769 1.151358
v -2.991201 3.962940 1.151358
v -2.898599 3.962940 1.151358
vn 0.000000 0.707107 0.707107
vn -0.577350 0.577350 0.577350
vn 0.000000 -0.707107 0.707107
vn -0.577350 -0.577350 0.577350
vn 0.000000 0.707107 -0.707107
vn -0.577350 0.577350 -0.577350
vn 0.000000 -0.707107 -0.707107
vn -0.577350 -0.577350 -0.577350
vt 0.821427 0.888465
vt 0.821427 0.838465
vt 0.871427 0.838465
vt 0.871427 0.888465
vt 0.864448 0.920311
vt 0.864448 0.970311
vt 0.814448 0.970311
vt 0.814448 0.920311
vt 0.956110 0.975125
vt 0.906110 0.975125
vt 0.906110 0.925125
vt 0.956110 0.925125
vt 0.000000 1.000000
vt 0.000000 0.000000
vt 1.000000 0.000000
vt 1.000000 1.000000
vt 0.903273 0.845742
vt 0.953273 0.845742
vt 0.953273 0.895742
vt 0.903273 0.895742
g fan
usemtl Default
f 3/1/3 1/2/1 2/3/2 4/4/4 
f 5/5/5 7/6/7 8/7/8 6/8/6 
f 2/9/2 1/10/1 5/11/5 6/12/6 
f 4/13/4 2/14/2 6/15/6 8/16/8 
f 3/17/3 4/18/4 8/19/8 7/20/7 
v -2.991201 5.762843 1.006498
v -2.898599 5.762843 1.006498
v -2.991201 4.445673 1.006498
v -2.898599 4.445673 1.006498
v -2.991201 5.762843 -0.310673
v -2.898599 5.762843 -0.310673
v -2.991201 4.445673 -0.310673
v -2.898599 4.445673 -0.310673
vn 0.000000 -0.707107 -0.707107
vn -0.577350 -0.577350 -0.577350
vn 0.000000 0.707107 -0.707107
vn -0.577350 0.577350 -0.577350
vn 0.000000 -0.707107 0.707107
vn -0.577350 -0.577350 0.577350
vn 0.000000 0.707107 0.707107
vn -0.577350 0.577350 0.577350
vt 0.821427 0.888465
vt 0.821427 0.838465
vt 0.871427 0.838465
vt 0.871427 0.888465
vt 0.864448 0.920311
vt 0.864448 0.970311
vt 0.814448 0.970311
vt 0.814448 0.920311
vt 0.956110 0.975125
vt 0.906110 0.975125
vt 0.906110 0.925125
vt 0.956110 0.925125
vt 0.000000 1.000000
vt 0.000000 0.000000
vt 1.000000 0.000000
vt 1.000000 1.000000
vt 0.903273 0.845742
vt 0.953273 0.845742
vt 0.953273 0.895742
vt 0.903273 0.895742
g fan
usemtl Default
f 11/21/11 9/22/9 10/23/10 12/24/12 
f 13/25/13 15/26/15 16/27/16 14/28/14 
f 10/29/10 9/30/9 13/31/13 14/32/14 
f 12/33/12 10/34/10 14/35/14 16/36/16 
f 11/37/11 12/38/12 16/39/16 15/40/15 
v 3.000000 6.000000 1.500000
v 3.000000 0.000000 -1.500000
v 3.000000 6.000000 -1.500000
v -3.000000 6.000000 -1.500000
v -3.000000 0.000000 -1.500000
v -3.000000 6.000000 1.500000
v 3.000000 0.000000 1.500000
v -3.000000 0.000000 1.500000
v 3.000000 0.000000 1.500000
v 3.000000 6.000000 1.500000
v -3.000000 6.000000 1.500000
v -3.000000 0.000000 1.500000
v 3.000000 0.000000 -1.500000
v -3.000000 0.000000 -1.500000
v -3.000000 6.000000 -1.500000
v 3.000000 6.000000 -1.500000
v 3.000000 0.000000 -1.500000
v 3.000000 6.000000 -1.500000
v 3.000000 6.000000 1.500000
v 3.000000 0.000000 1.500000
v -3.000000 6.000000 1.500000
v -3.000000 6.000000 -1.500000
v -3.000000 0.000000 -1.500000
v -3.000000 0.000000 1.500000
vn 0.000000 1.000000 0.000000
vn 0.000000 -1.000000 0.000000
vn 0.000000 1.000000 0.000000
vn 0.000000 1.000000 0.000000
vn 0.000000 -1.000000 0.000000
vn 0.000000 1.000000 0.000000
vn 0.000000 -1.000000 0.000000
vn 0.000000 -1.000000 0.000000
vn 0.000000 0.000000 1.000000
vn 0.000000 0.000000 1.000000
vn 0.000000 0.000000 1.000000
vn 0.000000 0.000000 1.000000
vn 0.000000 0.000000 -1.000000
vn 0.000000 0.000000 -1.000000
vn 0.000000 0.000000 -1.000000
vn 0.000000 0.000000 -1.000000
vn 1.000000 0.000000 0.000000
vn 1.000000 0.000000 0.000000
vn 1.000000 0.000000 0.000000
vn 1.000000 0.000000 0.000000
vn -1.000000 0.000000 0.000000
vn -1.000000 0.000000 0.000000
vn -1.000000 0.000000 0.000000
vn -1.000000 0.000000 0.000000
vt 0.995000 0.008453
vt 0.995000 0.771523
vt 0.805882 0.771523
vt 0.805882 0.008453
vt 0.502275 0.661008
vt 0.803885 0.661008
vt 0.803885 0.965248
vt 0.502275 0.965248
vt 0.801607 0.008469
vt 0.801607 0.608163
vt 0.504353 0.608163
vt 0.504353 0.008469
vt 0.801607 0.008469
vt 0.504353 0.008469
vt 0.504353 0.608163
vt 0.801607 0.608163
vt 0.498072 0.005000
vt 0.498072 0.995000
vt 0.252712 0.995000
vt 0.252712 0.005000
vt 0.250360 0.995000
vt 0.005000 0.995000
vt 0.005000 0.005000
vt 0.250360 0.005000
g case
usemtl Default
f 22/41/22 17/42/17 19/43/19 20/44/20 
f 21/45/21 18/46/18 23/47/23 24/48/24 
f 25/49/25 26/50/26 27/51/27 28/52/28 
f 29/53/29 30/54/30 31/55/31 32/56/32 
f 33/57/33 34/58/34 35/59/35 36/60/36 
f 37/61/37 38/62/38 39/63/39 40/64/40 
