mtllib model.mtl
o model.obj
v 5.000000 25.000000 -4.500000
v 5.000000 0.000000 4.500000
v 5.000000 0.000000 -4.500000
v -5.000000 25.000000 -4.500000
v 5.000000 25.000000 4.500000
v -5.000000 25.000000 4.500000
v -5.000000 0.000000 4.500000
v -5.000000 0.000000 -4.500000
v 5.000000 23.000000 4.000000
v -5.000000 23.000000 4.000000
v -5.000000 23.000000 -4.000000
v 5.000000 23.000000 -4.000000
v 5.000000 1.000000 4.000000
v -5.000000 1.000000 4.000000
v -5.000000 1.000000 -4.000000
v 5.000000 1.000000 -4.000000
v 5.000000 23.000000 -4.000000
v 5.000000 23.000000 4.000000
v 4.000000 23.000000 4.000000
v 4.000000 23.000000 -4.000000
v -5.000000 23.000000 4.000000
v -5.000000 23.000000 -4.000000
v -4.000000 23.000000 -4.000000
v -4.000000 23.000000 4.000000
v -5.000000 1.000000 -4.000000
v -5.000000 1.000000 4.000000
v -4.000000 1.000000 4.000000
v -4.000000 1.000000 -4.000000
v 5.000000 1.000000 4.000000
v 5.000000 1.000000 -4.000000
v 4.000000 1.000000 -4.000000
v 4.000000 1.000000 4.000000
v 5.000000 25.000000 -4.500000
v -5.000000 25.000000 -4.500000
v -5.000000 25.000000 4.500000
v 5.000000 25.000000 4.500000
v -5.000000 0.000000 -4.500000
v 5.000000 0.000000 -4.500000
v 5.000000 0.000000 4.500000
v -5.000000 0.000000 4.500000
v 5.000000 23.000000 4.000000
v 5.000000 1.000000 4.000000
v 4.000000 1.000000 4.000000
v 4.000000 23.000000 4.000000
v -5.000000 1.000000 4.000000
v -5.000000 23.000000 4.000000
v -4.000000 23.000000 4.000000
v -4.000000 1.000000 4.000000
v -5.000000 23.000000 -4.000000
v -5.000000 1.000000 -4.000000
v -4.000000 1.000000 -4.000000
v -4.000000 23.000000 -4.000000
v 5.000000 1.000000 -4.000000
v 5.000000 23.000000 -4.000000
v 4.000000 23.000000 -4.000000
v 4.000000 1.000000 -4.000000
v 5.000000 25.000000 4.500000
v -5.000000 25.000000 4.500000
v -5.000000 0.000000 4.500000
v 5.000000 0.000000 4.500000
v -5.000000 25.000000 -4.500000
v 5.000000 25.000000 -4.500000
v 5.000000 0.000000 -4.500000
v -5.000000 0.000000 -4.500000
vn 1.000000 0.000000 0.000000
vn 1.000000 0.000000 0.000000
vn 1.000000 0.000000 0.000000
vn -1.000000 0.000000 0.000000
vn 1.000000 0.000000 0.000000
vn -1.000000 0.000000 0.000000
vn -1.000000 0.000000 0.000000
vn -1.000000 0.000000 0.000000
vn 1.000000 0.000000 0.000000
vn -1.000000 0.000000 0.000000
vn -1.000000 0.000000 0.000000
vn 1.000000 0.000000 0.000000
vn 1.000000 0.000000 0.000000
vn -1.000000 0.000000 0.000000
vn -1.000000 0.000000 0.000000
vn 1.000000 0.000000 0.000000
vn 0.000000 -1.000000 0.000000
vn 0.000000 -1.000000 0.000000
vn 0.000000 -1.000000 0.000000
vn 0.000000 -1.000000 0.000000
vn 0.000000 -1.000000 0.000000
vn 0.000000 -1.000000 0.000000
vn 0.000000 -1.000000 0.000000
vn 0.000000 -1.000000 0.000000
vn 0.000000 1.000000 0.000000
vn 0.000000 1.000000 0.000000
vn 0.000000 1.000000 0.000000
vn 0.000000 1.000000 0.000000
vn 0.000000 1.000000 0.000000
vn 0.000000 1.000000 0.000000
vn 0.000000 1.000000 0.000000
vn 0.000000 1.000000 0.000000
vn 0.000000 1.000000 0.000000
vn 0.000000 1.000000 0.000000
vn 0.000000 1.000000 0.000000
vn 0.000000 1.000000 0.000000
vn 0.000000 -1.000000 0.000000
vn 0.000000 -1.000000 0.000000
vn 0.000000 -1.000000 0.000000
vn 0.000000 -1.000000 0.000000
vn 0.000000 0.000000 -1.000000
vn 0.000000 0.000000 -1.000000
vn 0.000000 0.000000 -1.000000
vn 0.000000 0.000000 -1.000000
vn 0.000000 0.000000 -1.000000
vn 0.000000 0.000000 -1.000000
vn 0.000000 0.000000 -1.000000
vn 0.000000 0.000000 -1.000000
vn 0.000000 0.000000 1.000000
vn 0.000000 0.000000 1.000000
vn 0.000000 0.000000 1.000000
vn 0.000000 0.000000 1.000000
vn 0.000000 0.000000 1.000000
vn 0.000000 0.000000 1.000000
vn 0.000000 0.000000 1.000000
vn 0.000000 0.000000 1.000000
vn 0.000000 0.000000 1.000000
vn 0.000000 0.000000 1.000000
vn 0.000000 0.000000 1.000000
vn 0.000000 0.000000 1.000000
vn 0.000000 0.000000 -1.000000
vn 0.000000 0.000000 -1.000000
vn 0.000000 0.000000 -1.000000
vn 0.000000 0.000000 -1.000000
vt 0.415303 0.010077
vt 0.434900 0.049271
vt 0.748451 0.049271
vt 0.768047 0.010077
vt 0.768048 0.010077
vt 0.748451 0.049271
vt 0.434900 0.049271
vt 0.415303 0.010077
vt 0.748451 0.911535
vt 0.768047 0.989923
vt 0.434900 0.911535
vt 0.415303 0.989923
vt 0.768048 0.989923
vt 0.748451 0.911535
vt 0.415303 0.989923
vt 0.434900 0.911535
vt 0.975625 0.502303
vt 0.975625 0.815854
vt 0.936431 0.815854
vt 0.936431 0.502303
vt 0.975624 0.815854
vt 0.975624 0.502303
vt 0.936430 0.502303
vt 0.936430 0.815854
vt 0.937708 0.376224
vt 0.937708 0.062673
vt 0.976902 0.062673
vt 0.976902 0.376224
vt 0.937708 0.062673
vt 0.937708 0.376224
vt 0.976901 0.376224
vt 0.976901 0.062673
vt 0.447039 0.884881
vt 0.447039 0.563468
vt 0.736311 0.563468
vt 0.736311 0.884881
vt 0.736774 0.073767
vt 0.736774 0.396209
vt 0.446576 0.396209
vt 0.446576 0.073767
vt 0.867236 0.882234
vt 0.867236 0.019969
vt 0.906430 0.019969
vt 0.906430 0.882234
vt 0.867236 0.019969
vt 0.867236 0.882234
vt 0.906430 0.882234
vt 0.906430 0.019969
vt 0.795792 0.882234
vt 0.795792 0.019969
vt 0.834986 0.019969
vt 0.834986 0.882234
vt 0.795791 0.019969
vt 0.795791 0.882234
vt 0.834985 0.882234
vt 0.834985 0.019969
vt 0.008699 0.989923
vt 0.400637 0.989923
vt 0.400637 0.010077
vt 0.008699 0.010077
vt 0.400638 0.989923
vt 0.008700 0.989923
vt 0.008700 0.010077
vt 0.400638 0.010077
g base
usemtl Default
f 3/1/3 16/2/16 13/3/13 2/4/2 
f 7/5/7 14/6/14 15/7/15 8/8/8 
f 9/9/9 5/10/5 2/4/2 13/3/13 
f 11/11/11 4/12/4 8/8/8 15/7/15 
f 6/13/6 10/14/10 14/6/14 7/5/7 
f 1/15/1 12/16/12 16/2/16 3/1/3 
f 12/16/12 1/15/1 5/10/5 9/9/9 
f 10/14/10 6/13/6 4/12/4 11/11/11 
f 17/17/17 18/18/18 19/19/19 20/20/20 
f 21/21/21 22/22/22 23/23/23 24/24/24 
f 25/25/25 26/26/26 27/27/27 28/28/28 
f 29/29/29 30/30/30 31/31/31 32/32/32 
f 33/33/33 34/34/34 35/35/35 36/36/36 
f 37/37/37 38/38/38 39/39/39 40/40/40 
f 41/41/41 42/42/42 43/43/43 44/44/44 
f 45/45/45 46/46/46 47/47/47 48/48/48 
f 49/49/49 50/50/50 51/51/51 52/52/52 
f 53/53/53 54/54/54 55/55/55 56/56/56 
f 57/57/57 58/58/58 59/59/59 60/60/60 
f 61/61/61 62/62/62 63/63/63 64/64/64 
v 3.999999 5.000000 4.000000
v 3.999999 1.000000 4.000000
v 3.999999 1.000000 -4.000000
v 3.999999 5.000000 -4.000000
vn 1.000000 0.000000 0.000000
vn 1.000000 0.000000 0.000000
vn 1.000000 0.000000 0.000000
vn 1.000000 0.000000 0.000000
vt 0.013379 0.995049
vt 0.013379 0.508429
vt 0.986621 0.508429
vt 0.986621 0.995049
g mod_front
usemtl Default
f 65/65/65 66/66/66 67/67/67 68/68/68 
v -4.000001 1.000000 -4.000000
v -4.000001 5.000000 -4.000000
v -4.000001 1.000000 4.000000
v -4.000001 5.000000 4.000000
vn -1.000000 0.000000 0.000000
vn -1.000000 0.000000 0.000000
vn -1.000000 0.000000 0.000000
vn -1.000000 0.000000 0.000000
vt 0.988701 0.133474
vt 0.988701 0.622175
vt 0.011299 0.622175
vt 0.011299 0.133474
g mod_back
usemtl Default
f 71/69/71 72/70/72 70/71/70 69/72/69 
v 3.999999 8.000000 4.000000
v 3.999999 5.000000 4.000000
v 3.999999 5.000000 -4.000000
v 3.999999 8.000000 -4.000000
vn 1.000000 0.000000 0.000000
vn 1.000000 0.000000 0.000000
vn 1.000000 0.000000 0.000000
vn 1.000000 0.000000 0.000000
vt 0.013379 0.369916
vt 0.013379 0.004951
vt 0.986621 0.004951
vt 0.986621 0.369916
g mod_front
usemtl Default
f 73/73/73 74/74/74 75/75/75 76/76/76 
v -4.000001 5.000000 -4.000000
v -4.000001 8.000000 -4.000000
v -4.000001 5.000000 4.000000
v -4.000001 8.000000 4.000000
vn -1.000000 0.000000 0.000000
vn -1.000000 0.000000 0.000000
vn -1.000000 0.000000 0.000000
vn -1.000000 0.000000 0.000000
vt 0.988701 0.628524
vt 0.988701 0.995049
vt 0.011299 0.995049
vt 0.011299 0.628524
g mod_back
usemtl Default
f 79/77/79 80/78/80 78/79/78 77/80/77 
v 3.999999 11.000000 4.000000
v 3.999999 8.000000 4.000000
v 3.999999 8.000000 -4.000000
v 3.999999 11.000000 -4.000000
vn 1.000000 0.000000 0.000000
vn 1.000000 0.000000 0.000000
vn 1.000000 0.000000 0.000000
vn 1.000000 0.000000 0.000000
vt 0.013379 0.369916
vt 0.013379 0.004951
vt 0.986621 0.004951
vt 0.986621 0.369916
g mod_front
usemtl Default
f 81/81/81 82/82/82 83/83/83 84/84/84 
v -4.000001 8.000000 -4.000000
v -4.000001 11.000000 -4.000000
v -4.000001 8.000000 4.000000
v -4.000001 11.000000 4.000000
vn -1.000000 0.000000 0.000000
vn -1.000000 0.000000 0.000000
vn -1.000000 0.000000 0.000000
vn -1.000000 0.000000 0.000000
vt 0.988701 0.628524
vt 0.988701 0.995049
vt 0.011299 0.995049
vt 0.011299 0.628524
g mod_back
usemtl Default
f 87/85/87 88/86/88 86/87/86 85/88/85 
v 3.999999 14.000000 4.000000
v 3.999999 11.000000 4.000000
v 3.999999 11.000000 -4.000000
v 3.999999 14.000000 -4.000000
vn 1.000000 0.000000 0.000000
vn 1.000000 0.000000 0.000000
vn 1.000000 0.000000 0.000000
vn 1.000000 0.000000 0.000000
vt 0.013379 0.369916
vt 0.013379 0.004951
vt 0.986621 0.004951
vt 0.986621 0.369916
g mod_front
usemtl Default
f 89/89/89 90/90/90 91/91/91 92/92/92 
v -4.000001 11.000000 -4.000000
v -4.000001 14.000000 -4.000000
v -4.000001 11.000000 4.000000
v -4.000001 14.000000 4.000000
vn -1.000000 0.000000 0.000000
vn -1.000000 0.000000 0.000000
vn -1.000000 0.000000 0.000000
vn -1.000000 0.000000 0.000000
vt 0.988701 0.628524
vt 0.988701 0.995049
vt 0.011299 0.995049
vt 0.011299 0.628524
g mod_back
usemtl Default
f 95/93/95 96/94/96 94/95/94 93/96/93 
v 3.999999 17.000000 4.000000
v 3.999999 14.000000 4.000000
v 3.999999 14.000000 -4.000000
v 3.999999 17.000000 -4.000000
vn 1.000000 0.000000 0.000000
vn 1.000000 0.000000 0.000000
vn 1.000000 0.000000 0.000000
vn 1.000000 0.000000 0.000000
vt 0.013379 0.369916
vt 0.013379 0.004951
vt 0.986621 0.004951
vt 0.986621 0.369916
g mod_front
usemtl Default
f 97/97/97 98/98/98 99/99/99 100/100/100 
v -4.000001 14.000000 -4.000000
v -4.000001 17.000000 -4.000000
v -4.000001 14.000000 4.000000
v -4.000001 17.000000 4.000000
vn -1.000000 0.000000 0.000000
vn -1.000000 0.000000 0.000000
vn -1.000000 0.000000 0.000000
vn -1.000000 0.000000 0.000000
vt 0.988701 0.628524
vt 0.988701 0.995049
vt 0.011299 0.995049
vt 0.011299 0.628524
g mod_back
usemtl Default
f 103/101/103 104/102/104 102/103/102 101/104/101 
v 3.999999 18.000000 4.000000
v 3.999999 17.000000 4.000000
v 3.999999 17.000000 -4.000000
v 3.999999 18.000000 -4.000000
vn 1.000000 0.000000 0.000000
vn 1.000000 0.000000 0.000000
vn 1.000000 0.000000 0.000000
vn 1.000000 0.000000 0.000000
vt 0.013379 0.500000
vt 0.013379 0.378345
vt 0.986621 0.378345
vt 0.986621 0.500000
g mod_front
usemtl Default
f 105/105/105 106/106/106 107/107/107 108/108/108 
v -4.000001 17.000000 -4.000000
v -4.000001 18.000000 -4.000000
v -4.000001 17.000000 4.000000
v -4.000001 18.000000 4.000000
vn -1.000000 0.000000 0.000000
vn -1.000000 0.000000 0.000000
vn -1.000000 0.000000 0.000000
vn -1.000000 0.000000 0.000000
vt 0.988701 0.004951
vt 0.988701 0.127126
vt 0.011299 0.127126
vt 0.011299 0.004951
g mod_back
usemtl Default
f 111/109/111 112/110/112 110/111/110 109/112/109 
v 3.999999 19.000000 4.000000
v 3.999999 18.000000 4.000000
v 3.999999 18.000000 -4.000000
v 3.999999 19.000000 -4.000000
vn 1.000000 0.000000 0.000000
vn 1.000000 0.000000 0.000000
vn 1.000000 0.000000 0.000000
vn 1.000000 0.000000 0.000000
vt 0.013379 0.500000
vt 0.013379 0.378345
vt 0.986621 0.378345
vt 0.986621 0.500000
g mod_front
usemtl Default
f 113/113/113 114/114/114 115/115/115 116/116/116 
v -4.000001 18.000000 -4.000000
v -4.000001 19.000000 -4.000000
v -4.000001 18.000000 4.000000
v -4.000001 19.000000 4.000000
vn -1.000000 0.000000 0.000000
vn -1.000000 0.000000 0.000000
vn -1.000000 0.000000 0.000000
vn -1.000000 0.000000 0.000000
vt 0.988701 0.004951
vt 0.988701 0.127126
vt 0.011299 0.127126
vt 0.011299 0.004951
g mod_back
usemtl Default
f 119/117/119 120/118/120 118/119/118 117/120/117 
v 3.999999 20.000000 4.000000
v 3.999999 19.000000 4.000000
v 3.999999 19.000000 -4.000000
v 3.999999 20.000000 -4.000000
vn 1.000000 0.000000 0.000000
vn 1.000000 0.000000 0.000000
vn 1.000000 0.000000 0.000000
vn 1.000000 0.000000 0.000000
vt 0.013379 0.500000
vt 0.013379 0.378345
vt 0.986621 0.378345
vt 0.986621 0.500000
g mod_front
usemtl Default
f 121/121/121 122/122/122 123/123/123 124/124/124 
v -4.000001 19.000000 -4.000000
v -4.000001 20.000000 -4.000000
v -4.000001 19.000000 4.000000
v -4.000001 20.000000 4.000000
vn -1.000000 0.000000 0.000000
vn -1.000000 0.000000 0.000000
vn -1.000000 0.000000 0.000000
vn -1.000000 0.000000 0.000000
vt 0.988701 0.004951
vt 0.988701 0.127126
vt 0.011299 0.127126
vt 0.011299 0.004951
g mod_back
usemtl Default
f 127/125/127 128/126/128 126/127/126 125/128/125 
v 3.999999 21.000000 4.000000
v 3.999999 20.000000 4.000000
v 3.999999 20.000000 -4.000000
v 3.999999 21.000000 -4.000000
vn 1.000000 0.000000 0.000000
vn 1.000000 0.000000 0.000000
vn 1.000000 0.000000 0.000000
vn 1.000000 0.000000 0.000000
vt 0.013379 0.500000
vt 0.013379 0.378345
vt 0.986621 0.378345
vt 0.986621 0.500000
g mod_front
usemtl Default
f 129/129/129 130/130/130 131/131/131 132/132/132 
v -4.000001 20.000000 -4.000000
v -4.000001 21.000000 -4.000000
v -4.000001 20.000000 4.000000
v -4.000001 21.000000 4.000000
vn -1.000000 0.000000 0.000000
vn -1.000000 0.000000 0.000000
vn -1.000000 0.000000 0.000000
vn -1.000000 0.000000 0.000000
vt 0.988701 0.004951
vt 0.988701 0.127126
vt 0.011299 0.127126
vt 0.011299 0.004951
g mod_back
usemtl Default
f 135/133/135 136/134/136 134/135/134 133/136/133 
v 3.999999 22.000000 4.000000
v 3.999999 21.000000 4.000000
v 3.999999 21.000000 -4.000000
v 3.999999 22.000000 -4.000000
vn 1.000000 0.000000 0.000000
vn 1.000000 0.000000 0.000000
vn 1.000000 0.000000 0.000000
vn 1.000000 0.000000 0.000000
vt 0.013379 0.500000
vt 0.013379 0.378345
vt 0.986621 0.378345
vt 0.986621 0.500000
g mod_front
usemtl Default
f 137/137/137 138/138/138 139/139/139 140/140/140 
v -4.000001 21.000000 -4.000000
v -4.000001 22.000000 -4.000000
v -4.000001 21.000000 4.000000
v -4.000001 22.000000 4.000000
vn -1.000000 0.000000 0.000000
vn -1.000000 0.000000 0.000000
vn -1.000000 0.000000 0.000000
vn -1.000000 0.000000 0.000000
vt 0.988701 0.004951
vt 0.988701 0.127126
vt 0.011299 0.127126
vt 0.011299 0.004951
g mod_back
usemtl Default
f 143/141/143 144/142/144 142/143/142 141/144/141 
v 3.999999 23.000000 4.000000
v 3.999999 22.000000 4.000000
v 3.999999 22.000000 -4.000000
v 3.999999 23.000000 -4.000000
vn 1.000000 0.000000 0.000000
vn 1.000000 0.000000 0.000000
vn 1.000000 0.000000 0.000000
vn 1.000000 0.000000 0.000000
vt 0.013379 0.500000
vt 0.013379 0.378345
vt 0.986621 0.378345
vt 0.986621 0.500000
g mod_front
usemtl Default
f 145/145/145 146/146/146 147/147/147 148/148/148 
v -4.000001 22.000000 -4.000000
v -4.000001 23.000000 -4.000000
v -4.000001 22.000000 4.000000
v -4.000001 23.000000 4.000000
vn -1.000000 0.000000 0.000000
vn -1.000000 0.000000 0.000000
vn -1.000000 0.000000 0.000000
vn -1.000000 0.000000 0.000000
vt 0.988701 0.004951
vt 0.988701 0.127126
vt 0.011299 0.127126
vt 0.011299 0.004951
g mod_back
usemtl Default
f 151/149/151 152/150/152 150/151/150 149/152/149 
