mtllib model.mtl
o model.obj
v -2.193446 0.000000 -1.461016
v 2.194021 0.000000 1.461016
v -2.502177 6.219013 1.618115
v 2.502655 6.219013 1.618115
v -2.193446 0.000000 1.461016
v 2.194021 0.000000 -1.461016
v 2.530404 6.219013 -1.618115
v -2.502177 6.219013 -1.618115
v 2.234775 6.219013 -1.756971
v 1.879111 0.000000 1.586390
v 1.879111 0.000000 -1.586390
v 2.144548 6.219013 1.756971
v -1.885772 0.000000 -1.586390
v -2.150095 6.219013 1.756971
v -2.150095 6.219013 -1.756971
v -1.885772 0.000000 1.586390
v 2.319053 0.000000 1.164223
v 2.645370 6.219013 1.289409
v -2.645370 6.219013 1.289409
v -2.319053 0.000000 1.164223
v -2.319053 0.000000 -1.164223
v 2.319053 0.000000 -1.164223
v 2.645370 6.219013 -1.289409
v -2.645370 6.219013 -1.289409
v -2.308526 6.219013 1.421605
v 2.309004 6.219013 1.421605
v 2.334604 6.219013 -1.421605
v -2.308526 6.219013 -1.421605
v 2.061835 6.219013 -1.543597
v 1.978590 6.219013 1.543597
v -1.983709 6.219013 1.543597
v -1.983709 6.219013 -1.543597
v 2.440656 6.219013 1.132819
v -2.440656 6.219013 1.132819
v 2.440656 6.219013 -1.132819
v -2.440656 6.219013 -1.132819
v -0.001014 0.000000 0.000000
v 1.970538 4.498927 -1.239698
v 1.746655 4.532058 -1.350119
v -2.017418 4.839069 1.282238
v -1.726183 4.799074 1.387465
v 1.897620 4.254226 1.221725
v 2.004789 4.249899 0.973933
v -2.145316 4.894810 1.027106
v 2.048388 4.446564 -0.982802
v -2.226853 5.262600 -1.101456
v -1.805426 5.238847 -1.429527
v 1.632586 4.289474 1.330211
v 2.021639 4.325904 0.000000
v -2.187234 5.083886 -0.051371
v 0.728458 4.662749 -1.364802
v -0.728458 5.016379 -1.404533
v -0.728458 4.727798 1.379457
v 0.728458 4.457961 1.349141
v -2.114109 5.293615 -1.318789
v -0.728458 4.909212 0.000000
v 0.728458 4.643301 0.000000
v -2.584186 5.052948 1.265937
v 2.435141 4.858604 1.583750
v -2.096406 4.955776 1.722322
v -2.579087 4.955776 -1.263981
v 2.589285 5.150120 -1.267894
v 2.472589 5.150120 -1.591113
v -2.441878 5.004362 1.587430
v -2.094340 4.907190 -1.720988
v 2.576538 4.907190 1.263003
v 2.088558 4.907190 1.720988
v -2.437054 4.907190 -1.584976
v -0.002869 5.150120 1.727652
v 1.832571 5.052948 1.724987
v 2.170866 5.101534 -1.726320
v 0.034490 5.150120 -1.727652
v -1.833746 5.052948 -1.724987
v -1.838328 5.052948 1.724987
v -2.584186 5.052948 -0.949453
v -2.586735 5.101534 0.000000
v 2.228690 5.238542 1.833783
v 2.636246 5.418920 -1.693735
v -2.600554 5.238542 -1.688857
v -2.236436 5.274618 1.834843
v -2.604390 5.310694 1.690808
v -2.751417 5.274618 -1.346558
v 2.318034 5.382845 -1.838020
v 2.599122 5.202466 1.687881
v -2.755470 5.346769 1.348113
v 2.759485 5.418920 -1.349668
v -2.234793 5.238542 -1.833783
v 2.749351 5.238542 1.345782
v 2.634904 5.875877 1.706094
v -2.787898 5.923979 1.360553
v 2.789211 5.948030 -1.361071
v -2.264345 5.887903 -1.852854
v 2.785833 5.887903 1.359776
v 2.258365 5.887903 1.852854
v 2.666888 5.948030 -1.708045
v -2.635070 5.887903 -1.706419
v -2.264893 5.899928 1.853207
v -2.636347 5.911952 1.707070
v -2.786546 5.899928 -1.360036
v 2.351906 5.936003 -1.854266
v -0.003035 5.418920 1.839081
v -0.002985 5.948030 1.854620
v -2.757496 5.382845 0.000000
v -2.788573 5.936003 0.000000
v 0.038620 5.418920 -1.839081
v 0.042780 5.948030 -1.854620
vn -0.463900 -0.750744 -0.470298
vn 0.461900 -0.751357 0.471287
vn -0.344974 0.865274 0.363722
vn 0.360845 0.851790 0.379796
vn -0.464069 -0.750533 0.470468
vn 0.460822 -0.752708 -0.470184
vn 0.352989 0.878211 -0.322714
vn -0.357625 0.855328 -0.374858
vn 0.091770 0.754282 -0.650105
vn 0.082493 -0.474116 0.876590
vn 0.102001 -0.580122 -0.808118
vn 0.084879 0.728768 0.679480
vn -0.104201 -0.579540 -0.808255
vn -0.083786 0.737063 0.670610
vn -0.085449 0.731211 -0.676779
vn -0.084201 -0.474261 0.876349
vn 0.666908 -0.732859 0.134728
vn 0.527297 0.842678 0.108869
vn -0.609522 0.788366 0.083442
vn -0.799015 -0.591785 0.106603
vn -0.867299 -0.490268 -0.086199
vn 0.666286 -0.733450 -0.134589
vn 0.511718 0.855040 -0.083965
vn -0.622894 0.777318 -0.088203
vn 0.410396 0.797406 -0.442402
vn -0.409563 0.797259 -0.443437
vn -0.436859 0.800789 0.409745
vn 0.412451 0.795554 0.443822
vn -0.086309 0.543183 0.835167
vn -0.073657 0.536412 -0.840736
vn 0.091689 0.631081 -0.770279
vn 0.091689 0.633854 0.767999
vn -0.725969 0.679922 -0.103320
vn 0.725217 0.680698 -0.103488
vn -0.729951 0.678142 0.085418
vn 0.727474 0.678175 0.104211
vn 0.000000 -1.000000 0.000000
vn -0.325499 0.816755 0.476405
vn -0.046240 0.762448 0.645395
vn 0.483798 0.802482 -0.349232
vn 0.177550 0.794138 -0.581224
vn -0.298973 0.861477 -0.410454
vn -0.502738 0.860074 -0.086760
vn 0.653702 0.756369 -0.024078
vn -0.501401 0.840091 0.206986
vn 0.636727 0.735035 0.233026
vn 0.238284 0.714094 0.658248
vn 0.009577 0.802373 -0.596746
vn -0.688209 0.723248 0.057279
vn 0.767182 0.636360 0.080487
vn 0.121175 0.730655 0.671908
vn 0.134483 0.714797 0.686279
vn 0.103172 0.779476 -0.617878
vn 0.131397 0.776502 -0.616262
vn 0.475409 0.727215 0.495121
vn 0.133904 0.982392 0.130288
vn 0.196393 0.976470 0.089087
vn -0.938643 -0.300938 0.168479
vn 0.669980 -0.273347 0.690224
vn -0.171227 -0.217154 0.961002
vn -0.950322 -0.275380 -0.145101
vn 0.936554 -0.298056 -0.184467
vn 0.685929 -0.336052 -0.645422
vn -0.685009 -0.306830 0.660771
vn -0.149860 -0.199061 -0.968461
vn 0.947611 -0.272440 0.166764
vn 0.134960 -0.190953 0.972277
vn -0.679235 -0.282906 -0.677204
vn -0.000000 -0.172369 0.985032
vn -0.039543 -0.178657 0.983116
vn 0.204397 -0.255949 -0.944834
vn 0.003133 -0.186918 -0.982370
vn 0.053731 -0.259321 -0.964295
vn 0.030162 -0.184958 0.982284
vn -0.960663 -0.275101 0.038022
vn -0.970298 -0.241908 0.001401
vn 0.102106 -0.232339 0.967261
vn 0.703733 -0.338287 -0.624757
vn -0.675489 -0.284626 -0.680223
vn -0.130517 -0.253639 0.958453
vn -0.681228 -0.308561 0.663866
vn -0.937184 -0.330190 -0.112517
vn 0.217400 -0.258452 -0.941244
vn 0.666373 -0.274896 0.693094
vn -0.937605 -0.302943 0.170655
vn 0.938825 -0.299166 -0.170608
vn -0.113205 -0.257694 -0.959572
vn 0.946638 -0.274452 0.168973
vn 0.679429 0.184265 0.710227
vn -0.957184 0.210123 0.199116
vn 0.965161 0.204493 -0.163240
vn -0.185605 0.148772 -0.971297
vn 0.963160 0.180837 0.199049
vn 0.182945 0.145085 0.972359
vn 0.716266 0.238592 -0.655772
vn -0.680155 0.191905 -0.707504
vn -0.184591 0.158847 0.969894
vn -0.676076 0.213336 0.705272
vn -0.960868 0.189076 -0.202443
vn 0.209329 0.184271 -0.960326
vn -0.000000 -0.209588 0.977790
vn 0.000290 0.172808 0.984956
vn -0.956710 -0.291038 0.001752
vn -0.969834 0.243761 -0.001620
vn 0.003919 -0.227824 -0.973694
vn -0.001260 0.180039 -0.983659
vt 0.565891 0.665139
vt 0.548225 0.664646
vt 0.563306 0.123661
vt 0.580583 0.119067
vt 0.270677 0.006999
vt 0.287440 0.005160
vt 0.301705 0.525339
vt 0.283324 0.525815
vt 0.334660 0.665330
vt 0.317885 0.667183
vt 0.303357 0.141868
vt 0.321764 0.145018
vt 0.039445 0.006997
vt 0.045783 0.532986
vt 0.026418 0.537625
vt 0.958755 0.965016
vt 0.972974 0.952084
vt 0.983180 0.972914
vt 0.967770 0.987633
vt 0.747877 0.637770
vt 0.730946 0.650701
vt 0.720851 0.629871
vt 0.739204 0.615152
vt 0.978502 0.681313
vt 0.971640 0.650701
vt 0.981734 0.629871
vt 0.989173 0.664714
vt 0.713387 0.664714
vt 0.724058 0.681313
vt 0.978502 0.921473
vt 0.989173 0.938071
vt 0.724058 0.921473
vt 0.713387 0.938071
vt 0.747877 0.965016
vt 0.739204 0.987633
vt 0.954416 0.637770
vt 0.963067 0.615152
vt 0.730946 0.952084
vt 0.720851 0.972914
vt 0.852880 0.800340
vt 0.934416 0.660437
vt 0.948073 0.671494
vt 0.953495 0.903013
vt 0.948073 0.929186
vt 0.752353 0.697668
vt 0.757800 0.671494
vt 0.771143 0.940243
vt 0.757800 0.929186
vt 0.934416 0.940243
vt 0.752353 0.903013
vt 0.953495 0.697668
vt 0.771143 0.660437
vt 0.589710 0.812230
vt 0.608765 0.995544
vt 0.576841 0.817490
vt 0.481004 0.832210
vt 0.496266 0.685229
vt 0.478202 0.683401
vt 0.464779 0.834823
vt 0.274890 0.894524
vt 0.253325 0.685232
vt 0.237153 0.692314
vt 0.261194 0.901109
vt 0.512449 0.692314
vt 0.496160 0.832710
vt 0.289700 0.889185
vt 0.271663 0.683406
vt 0.391664 0.892664
vt 0.382341 0.997253
vt 0.364280 0.995322
vt 0.374443 0.896638
vt 0.602641 0.800024
vt 0.624365 0.987986
vt 0.348124 0.987986
vt 0.359993 0.886566
vt 0.163124 0.836773
vt 0.162997 0.972708
vt 0.088978 0.976911
vt 0.089981 0.836645
vt 0.164812 0.701193
vt 0.091657 0.698128
vt 0.027729 0.705993
vt 0.042289 0.695815
vt 0.223386 0.713921
vt 0.228646 0.738599
vt 0.228876 0.835864
vt 0.210209 0.703051
vt 0.229089 0.934475
vt 0.224839 0.960302
vt 0.213672 0.971278
vt 0.604276 0.712739
vt 0.600218 0.609502
vt 0.705345 0.592660
vt 0.705345 0.832819
vt 0.610718 0.816918
vt 0.602684 0.461509
vt 0.612225 0.350199
vt 0.663310 0.341430
vt 0.663310 0.581589
vt 0.592588 0.570383
vt 0.021030 0.731587
vt 0.017435 0.835399
vt 0.336829 0.871212
vt 0.412772 0.842427
vt 0.447808 0.869000
vt 0.593219 0.997500
vt 0.523763 0.831368
vt 0.034687 0.979517
vt 0.019212 0.968502
vt 0.013988 0.941301
vt 0.263928 0.527834
vt 0.022670 0.005160
vt 0.007983 0.540790
vt 0.582652 0.667081
vt 0.598467 0.121250
vt 0.351976 0.664837
vt 0.340982 0.144487
vt 0.995366 0.299741
vt 0.995430 0.546558
vt 0.726608 0.557832
vt 0.739219 0.289542
vt 0.023256 0.666418
vt 0.004594 0.664397
vt 0.005441 0.633495
vt 0.024046 0.634220
vt 0.583632 0.005731
vt 0.601750 0.007964
vt 0.600929 0.036285
vt 0.582870 0.034065
vt 0.318316 0.005925
vt 0.338778 0.040159
vt 0.319178 0.040698
vt 0.670815 0.560172
vt 0.670744 0.286816
vt 0.687863 0.287498
vt 0.684763 0.559587
vt 0.043684 0.633451
vt 0.565783 0.034785
vt 0.305518 0.664397
vt 0.286865 0.666420
vt 0.285980 0.630358
vt 0.304565 0.629633
vt 0.299654 0.007964
vt 0.300580 0.041440
vt 0.284209 0.561877
vt 0.264657 0.562611
vt 0.451944 0.118618
vt 0.354562 0.129017
vt 0.340247 0.109711
vt 0.452039 0.090281
vt 0.934470 0.239673
vt 0.929378 0.273000
vt 0.670704 0.261798
vt 0.934608 0.004840
vt 0.937065 0.139036
vt 0.670849 0.014981
vt 0.056762 0.007472
vt 0.154910 0.553594
vt 0.059235 0.543290
vt 0.250584 0.543290
vt 0.007136 0.571692
vt 0.025627 0.569823
vt 0.599288 0.092928
vt 0.581345 0.090733
vt 0.320902 0.110245
vt 0.722100 0.288861
vt 0.712660 0.558417
vt 0.045083 0.566474
vt 0.564131 0.094036
vt 0.302658 0.560104
vt 0.302431 0.108392
vt 0.266116 0.632164
vt 0.452230 0.033608
vt 0.980813 0.139143
vt 0.951648 0.139072
vt 0.949824 0.004255
vt 0.980258 0.003085
vt 0.978831 0.275142
vt 0.945863 0.273714
vt 0.154914 0.638604
vt 0.154911 0.581931
vt 0.253011 0.007472
vt 0.266846 0.666941
vt 0.042984 0.666940
vt 0.566609 0.005160
vt 0.338043 0.005383
vt 0.995475 0.002500
vt 0.995315 0.275856
g base
usemtl Material1
f 6/1/6 11/2/11 71/3/71 63/4/63 
f 2/5/2 17/6/17 66/7/66 59/8/59 
f 1/9/1 21/10/21 61/11/61 68/12/68 
f 5/13/5 16/157/16 60/14/60 64/15/64 
f 29/16/29 27/17/27 7/18/7 9/19/9 
f 31/20/31 25/21/25 3/22/3 14/23/14 
f 33/24/33 26/25/26 4/26/4 18/27/18 
f 19/28/19 3/22/3 25/21/25 34/29/34 
f 35/30/35 33/24/33 18/27/18 23/31/23 
f 34/29/34 36/32/36 24/33/24 19/28/19 
f 32/34/32 29/16/29 9/19/9 15/35/15 
f 30/36/30 31/20/31 14/23/14 12/37/12 
f 26/25/26 30/36/30 12/37/12 4/26/4 
f 28/38/28 32/34/32 15/35/15 8/39/8 
f 27/17/27 35/30/35 23/31/23 7/18/7 
f 8/39/8 24/33/24 36/32/36 28/38/28 
f 37/40/37 11/41/11 6/42/6 
f 37/40/37 17/43/17 2/44/2 
f 37/40/37 21/45/21 1/46/1 
f 37/40/37 16/47/16 5/48/5 
f 37/40/37 2/44/2 10/49/10 
f 37/40/37 5/48/5 20/50/20 
f 37/40/37 20/50/20 21/45/21 
f 37/40/37 10/49/10 16/47/16 
f 37/40/37 6/42/6 22/51/22 
f 37/40/37 1/46/1 13/52/13 
f 37/40/37 13/52/13 11/41/11 
f 37/40/37 22/51/22 17/43/17 
f 38/53/38 27/54/27 29/106/29 39/55/39 
f 40/56/40 25/57/25 31/58/31 41/59/41 
f 42/60/42 26/61/26 33/62/33 43/63/43 
f 34/64/34 25/57/25 40/56/40 44/65/44 
f 48/66/48 30/67/30 26/61/26 42/60/42 
f 47/68/47 32/69/32 28/70/28 55/71/55 
f 45/72/45 35/73/35 27/54/27 38/53/38 
f 28/70/28 36/74/36 46/75/46 55/71/55 
f 57/76/57 51/77/51 52/78/52 
f 52/78/52 56/79/56 57/76/57 
f 54/80/54 57/76/57 53/81/53 
f 53/81/53 57/76/57 56/79/56 
f 56/79/56 40/82/40 41/83/41 
f 57/76/57 42/84/42 43/85/43 
f 43/85/43 49/86/49 57/76/57 
f 57/76/57 54/80/54 48/87/48 
f 57/76/57 48/87/48 42/84/42 
f 57/76/57 49/86/49 45/88/45 
f 57/76/57 45/88/45 38/89/38 
f 57/76/57 38/89/38 39/90/39 
f 57/76/57 39/90/39 51/77/51 
f 49/91/49 43/92/43 33/93/33 
f 49/91/49 33/93/33 35/94/35 
f 49/91/49 35/94/35 45/95/45 
f 50/96/50 46/97/46 36/98/36 
f 50/96/50 36/98/36 34/99/34 
f 50/96/50 34/99/34 44/100/44 
f 44/101/44 40/82/40 56/79/56 
f 56/79/56 50/102/50 44/101/44 
f 41/83/41 53/81/53 56/79/56 
f 30/67/30 48/66/48 54/103/54 
f 30/67/30 54/103/54 53/104/53 
f 53/104/53 41/59/41 31/58/31 
f 31/58/31 30/67/30 53/104/53 
f 32/69/32 47/68/47 52/105/52 
f 52/105/52 29/106/29 32/69/32 
f 29/106/29 52/105/52 51/107/51 
f 29/106/29 51/107/51 39/55/39 
f 56/79/56 52/78/52 47/108/47 
f 56/79/56 47/108/47 55/109/55 
f 56/79/56 55/109/55 46/110/46 
f 46/110/46 50/102/50 56/79/56 
f 10/182/10 2/5/2 59/8/59 67/111/67 
f 20/112/20 5/13/5 64/15/64 58/113/58 
f 22/114/22 6/1/6 63/4/63 62/115/62 
f 13/116/13 1/9/1 68/12/68 65/117/65 
f 17/118/17 22/119/22 62/120/62 66/121/66 
f 3/122/3 19/123/19 90/124/90 98/125/98 
f 7/126/7 23/127/23 91/128/91 95/129/95 
f 8/130/8 15/186/15 92/131/92 96/132/96 
f 23/133/23 18/134/18 93/135/93 91/136/91 
f 14/184/14 3/122/3 98/125/98 97/137/97 
f 9/185/9 7/126/7 95/129/95 100/138/100 
f 18/139/18 4/140/4 89/141/89 93/142/93 
f 24/143/24 8/130/8 96/132/96 99/144/99 
f 67/111/67 59/8/59 84/145/84 77/146/77 
f 11/2/11 72/147/72 71/3/71 
f 65/117/65 73/148/73 72/147/72 13/116/13 
f 72/147/72 73/148/73 87/149/87 105/150/105 
f 75/151/75 61/152/61 21/153/21 
f 58/154/58 76/155/76 20/156/20 
f 21/153/21 76/155/76 75/151/75 
f 16/157/16 69/158/69 74/159/74 
f 74/159/74 60/14/60 16/157/16 
f 67/111/67 70/160/70 10/182/10 
f 85/161/85 81/162/81 98/125/98 90/124/90 
f 86/163/86 78/164/78 95/129/95 91/128/91 
f 87/149/87 79/165/79 96/132/96 92/131/92 
f 88/166/88 86/167/86 91/136/91 93/135/93 
f 81/162/81 80/168/80 97/137/97 98/125/98 
f 78/164/78 83/169/83 100/138/100 95/129/95 
f 84/145/84 88/170/88 93/142/93 89/141/89 
f 79/165/79 82/171/82 99/144/99 96/132/96 
f 89/141/89 94/172/94 77/146/77 84/145/84 
f 105/150/105 106/173/106 100/138/100 83/169/83 
f 87/149/87 92/131/92 106/173/106 105/150/105 
f 104/174/104 103/175/103 85/176/85 90/177/90 
f 103/175/103 104/174/104 99/178/99 82/179/82 
f 102/180/102 101/181/101 77/146/77 94/172/94 
f 101/181/101 102/180/102 97/137/97 80/168/80 
f 85/161/85 58/113/58 64/15/64 81/162/81 
f 86/163/86 62/115/62 63/4/63 78/164/78 
f 87/149/87 65/117/65 68/12/68 79/165/79 
f 88/166/88 66/121/66 62/120/62 86/167/86 
f 81/162/81 64/15/64 60/14/60 80/168/80 
f 78/164/78 63/4/63 71/3/71 83/169/83 
f 84/145/84 59/8/59 66/7/66 88/170/88 
f 79/165/79 68/12/68 61/11/61 82/171/82 
f 83/169/83 71/3/71 72/147/72 105/150/105 
f 76/155/76 58/154/58 85/176/85 103/175/103 
f 75/151/75 76/155/76 103/175/103 82/179/82 
f 89/141/89 4/140/4 12/183/12 94/172/94 
f 16/157/16 10/182/10 69/158/69 
f 70/160/70 69/158/69 10/182/10 
f 11/2/11 13/116/13 72/147/72 
f 21/153/21 20/156/20 76/155/76 
f 74/159/74 69/158/69 101/181/101 80/168/80 
f 101/181/101 69/158/69 70/160/70 77/146/77 
f 75/151/75 82/179/82 61/152/61 
f 73/148/73 65/117/65 87/149/87 
f 70/160/70 67/111/67 77/146/77 
f 74/159/74 80/168/80 60/14/60 
f 102/180/102 12/183/12 14/184/14 
f 102/180/102 94/172/94 12/183/12 
f 102/180/102 14/184/14 97/137/97 
f 9/185/9 106/173/106 15/186/15 
f 106/173/106 9/185/9 100/138/100 
f 106/173/106 92/131/92 15/186/15 
f 104/174/104 19/187/19 24/188/24 
f 104/174/104 90/177/90 19/187/19 
f 104/174/104 24/188/24 99/178/99 
