mtllib model.mtl
o model.obj
v -4.000000 5.000000 -2.750000
v -4.000000 5.000000 2.750000
v 4.000000 5.000000 2.750000
v 3.932790 0.000000 2.687894
v -3.932790 0.000000 2.687894
v -3.932790 0.000000 -2.687894
v 4.000000 5.000000 -2.750000
v 3.932790 0.000000 -2.687894
v 4.000000 3.175431 2.750000
v -4.000000 3.175431 2.750000
v 4.000000 3.175431 -2.750000
v -4.000000 3.175431 -2.750000
v -3.932790 3.073775 2.687894
v 3.932790 3.073775 -2.687894
v 3.932790 3.073775 2.687894
v -3.932790 3.073775 -2.687894
v -4.000000 5.000000 -2.750000
v -4.000000 5.000000 2.750000
v 4.000000 5.000000 2.750000
v 4.000000 5.000000 -2.750000
v 3.932790 0.000000 2.687894
v -3.932790 0.000000 2.687894
v -3.932790 0.000000 -2.687894
v 3.932790 0.000000 -2.687894
v 4.000000 3.175431 2.750000
v 4.000000 5.000000 2.750000
v -4.000000 5.000000 2.750000
v -4.000000 3.175431 2.750000
v 3.932790 3.073775 2.687894
v -3.932790 3.073775 2.687894
v 3.932790 0.000000 2.687894
v -3.932790 0.000000 2.687894
v 4.000000 5.000000 -2.750000
v 4.000000 3.175431 -2.750000
v -4.000000 3.175431 -2.750000
v -4.000000 5.000000 -2.750000
v 3.932790 3.073775 -2.687894
v -3.932790 3.073775 -2.687894
v 3.932790 0.000000 -2.687894
v -3.932790 0.000000 -2.687894
vn -1.000000 0.000000 0.000000
vn -1.000000 0.000000 0.000000
vn 1.000000 0.000000 0.000000
vn 1.000000 0.000000 0.000000
vn -1.000000 0.000000 0.000000
vn -1.000000 0.000000 0.000000
vn 1.000000 0.000000 0.000000
vn 1.000000 0.000000 0.000000
vn 0.957645 -0.287952 0.000000
vn -0.957645 -0.287952 0.000000
vn 0.957645 -0.287952 0.000000
vn -0.957645 -0.287952 0.000000
vn -0.957645 -0.287952 0.000000
vn 0.957645 -0.287952 0.000000
vn 0.957645 -0.287952 0.000000
vn -0.957645 -0.287952 0.000000
vn 0.000000 1.000000 0.000000
vn 0.000000 1.000000 0.000000
vn 0.000000 1.000000 0.000000
vn 0.000000 1.000000 0.000000
vn 0.000000 -1.000000 0.000000
vn 0.000000 -1.000000 0.000000
vn 0.000000 -1.000000 0.000000
vn 0.000000 -1.000000 0.000000
vn 0.000000 -0.270790 0.962639
vn 0.000000 0.000000 1.000000
vn 0.000000 0.000000 1.000000
vn 0.000000 -0.270790 0.962639
vn 0.000000 -0.270790 0.962639
vn 0.000000 -0.270790 0.962639
vn 0.000000 0.000000 1.000000
vn 0.000000 0.000000 1.000000
vn 0.000000 0.000000 -1.000000
vn 0.000000 -0.270790 -0.962639
vn 0.000000 -0.270790 -0.962639
vn 0.000000 0.000000 -1.000000
vn 0.000000 -0.270790 -0.962639
vn 0.000000 -0.270790 -0.962639
vn 0.000000 0.000000 -1.000000
vn 0.000000 0.000000 -1.000000
vt 0.351847 0.507979
vt 0.464834 0.507973
vt 0.464850 0.848561
vt 0.351864 0.848567
vt 0.671194 0.511819
vt 0.861538 0.511819
vt 0.861538 0.844715
vt 0.671194 0.844715
vt 0.472380 0.511819
vt 0.472397 0.844715
vt 0.869084 0.507973
vt 0.982071 0.507973
vt 0.982071 0.848561
vt 0.869084 0.848561
vt 0.662724 0.511810
vt 0.662740 0.844705
vt 0.648073 0.004950
vt 0.988660 0.004950
vt 0.988660 0.500351
vt 0.648073 0.500351
vt 0.011340 0.995049
vt 0.011340 0.507973
vt 0.344235 0.507973
vt 0.344235 0.995049
vt 0.442693 0.500362
vt 0.329706 0.500351
vt 0.329754 0.004950
vt 0.442741 0.004961
vt 0.450070 0.496200
vt 0.450117 0.009124
vt 0.640414 0.496219
vt 0.640461 0.009143
vt 0.322046 0.500362
vt 0.209060 0.500351
vt 0.209108 0.004950
vt 0.322094 0.004961
vt 0.201683 0.496188
vt 0.201730 0.009112
vt 0.011340 0.496169
vt 0.011387 0.009093
g base
usemtl Default
f 3/1/3 9/2/9 11/3/11 7/4/7 
f 5/5/5 13/6/13 16/7/16 6/8/6 
f 9/2/9 15/9/15 14/10/14 11/3/11 
f 10/11/10 2/12/2 1/13/1 12/14/12 
f 13/6/13 10/11/10 12/14/12 16/7/16 
f 15/9/15 4/15/4 8/16/8 14/10/14 
f 17/17/17 18/18/18 19/19/19 20/20/20 
f 21/21/21 22/22/22 23/23/23 24/24/24 
f 25/25/25 26/26/26 27/27/27 28/28/28 
f 29/29/29 25/25/25 28/28/28 30/30/30 
f 31/31/31 29/29/29 30/30/30 32/32/32 
f 33/33/33 34/34/34 35/35/35 36/36/36 
f 34/34/34 37/37/37 38/38/38 35/35/35 
f 37/37/37 39/39/39 40/40/40 38/38/38 
