mtllib model.mtl
o model.obj
v 13.000000 9.000000 -15.000000
v -3.000000 9.000000 -15.000000
v 13.000000 9.000000 -5.000000
v -3.000000 9.000000 -5.000000
v 13.000000 0.000000 -15.000000
v -3.000000 0.000000 -15.000000
v 13.000000 0.000000 -5.000000
v -3.000000 0.000000 -5.000000
vn 0.577350 0.577350 -0.577350
vn -0.577350 0.577350 -0.577350
vn 0.577350 0.577350 0.577350
vn -0.577350 0.577350 0.577350
vn 0.577350 -0.577350 -0.577350
vn -0.577350 -0.577350 -0.577350
vn 0.577350 -0.577350 0.577350
vn -0.577350 -0.577350 0.577350
vt 24.937500 -20.500000
vt 24.625000 -20.500000
vt 24.750000 -20.000000
vt 24.937500 -20.000000
vt 0.000000 0.000000
vt 0.000000 0.000000
vt 0.000000 0.000000
vt 0.000000 0.000000
vt 0.000000 0.000000
vt 0.000000 0.000000
vt 0.000000 0.000000
vt 0.000000 0.000000
g collide
usemtl Default
f 3/1/3 1/2/1 2/3/2 4/4/4 
f 5/5/5 6/6/6 2/7/2 1/8/1 
f 7/9/7 5/5/5 1/8/1 3/10/3 
f 6/6/6 8/11/8 4/12/4 2/7/2 
f 8/11/8 7/9/7 3/10/3 4/12/4 
f 7/9/7 8/11/8 6/6/6 5/5/5 
v -3.000000 9.000000 -15.000000
v -13.000000 9.000000 -15.000000
v -3.000000 9.000000 15.000000
v -13.000000 9.000000 15.000000
v -3.000000 0.000000 -15.000000
v -13.000000 0.000000 -15.000000
v -3.000000 0.000000 15.000000
v -13.000000 0.000000 15.000000
vn 0.577350 0.577350 -0.577350
vn -0.577350 0.577350 -0.577350
vn 0.577350 0.577350 0.577350
vn -0.577350 0.577350 0.577350
vn 0.577350 -0.577350 -0.577350
vn -0.577350 -0.577350 -0.577350
vn 0.577350 -0.577350 0.577350
vn -0.577350 -0.577350 0.577350
vt 24.625000 -20.000000
vt 24.000000 -20.000000
vt 24.000000 -19.687500
vt 24.937500 -19.687500
vt 0.000000 0.000000
vt 0.000000 0.000000
vt 0.000000 0.000000
vt 0.000000 0.000000
vt 0.000000 0.000000
vt 0.000000 0.000000
vt 0.000000 0.000000
vt 0.000000 0.000000
g collide
usemtl Default
f 11/13/11 9/14/9 10/15/10 12/16/12 
f 15/17/15 13/18/13 9/19/9 11/20/11 
f 13/18/13 14/21/14 10/22/10 9/19/9 
f 14/21/14 16/23/16 12/24/12 10/22/10 
f 16/23/16 15/17/15 11/20/11 12/24/12 
f 16/23/16 14/21/14 13/18/13 15/17/15 
v -12.250000 9.000000 15.000000
v -12.250000 8.250000 15.000000
v 13.000000 9.000000 -14.250000
v 13.000000 9.000000 -5.750000
v 13.000000 8.250000 -5.750000
v 13.000000 8.250000 -14.250000
v -3.750000 9.000000 15.000000
v -3.750000 8.250000 15.000000
v -13.000000 9.000000 14.250000
v -13.000000 8.250000 14.250000
v -3.000000 9.000000 14.250000
v -3.000000 8.250000 14.250000
v 12.250000 9.000000 -15.000000
v 12.250000 9.000000 -5.000000
v 12.250000 8.250000 -5.000000
v 12.250000 8.250000 -15.000000
v 12.780300 9.000000 -14.780300
v 12.780300 9.000000 -5.219670
v 12.780300 8.250000 -5.219670
v 12.780300 8.250000 -14.780300
v -12.780900 9.000000 14.780300
v -12.780900 8.250000 14.780300
v -3.219670 9.000000 14.780300
v -3.219670 8.250000 14.780300
v 11.500000 8.250000 -12.000000
v -10.000000 8.250000 -12.000000
v -10.000000 5.000000 -12.000000
v 11.500000 5.000000 -12.000000
v -10.000000 5.000000 -12.750000
v 11.500000 5.000000 -12.750000
v -10.000000 8.250000 -12.750000
v 11.500000 8.250000 -12.750000
v -13.000000 9.000000 -14.250000
v -12.780300 9.000000 -14.780300
v -12.780300 8.250000 -14.780300
v -13.000000 8.250000 -14.250000
v -12.250000 9.000000 -15.000000
v -12.250000 8.250000 -15.000000
v -2.780300 9.000000 -4.780300
v -2.250000 9.000000 -5.000000
v -2.250000 8.250000 -5.000000
v -2.780300 8.250000 -4.780300
v -3.000000 9.000000 -4.250000
v -3.000000 8.250000 -4.250000
v -3.833310 0.500000 14.235200
v -3.833310 8.250000 14.235200
v -12.166717 8.250000 14.235200
v -12.166717 0.500000 14.235200
v -12.496379 8.250000 14.047733
v -12.496379 8.250000 13.672667
v -12.166717 0.500000 13.485200
v -12.166717 8.250000 13.485200
v -3.833310 8.250000 13.485200
v -3.833310 0.500000 13.485200
v -3.503648 8.250000 13.672667
v -3.503648 8.250000 14.047733
v -11.837060 0.000000 14.047733
v -11.837060 0.000000 13.672667
v -11.837060 0.500000 13.672667
v -11.837060 0.500000 14.047733
v -12.166720 0.000000 13.485200
v -12.166720 0.000000 14.235200
v -12.496379 0.000000 13.672667
v -12.496379 0.000000 14.047733
v -3.503620 0.000000 14.047733
v -3.503620 0.000000 13.672667
v -3.833282 0.000000 14.235200
v -3.833282 0.000000 13.485200
v -4.162939 0.000000 13.672667
v -4.162939 0.500000 13.672667
v -4.162939 0.000000 14.047733
v -4.162939 0.500000 14.047733
v -10.000000 0.500000 -14.163070
v -10.000000 8.250000 -14.163070
v -10.000000 8.250000 -5.829662
v -10.000000 0.500000 -5.829662
v -10.187467 8.250000 -5.500000
v -10.562533 8.250000 -5.500000
v -10.750000 0.500000 -5.829662
v -10.750000 8.250000 -5.829662
v -10.750000 8.250000 -14.163070
v -10.750000 0.500000 -14.163070
v -10.562533 8.250000 -14.492732
v -10.187467 8.250000 -14.492732
v -10.187467 0.000000 -6.159320
v -10.562533 0.000000 -6.159320
v -10.562533 0.500000 -6.159320
v -10.187467 0.500000 -6.159320
v -10.750000 0.000000 -5.829658
v -10.000000 0.000000 -5.829658
v -10.562533 0.000000 -5.500000
v -10.187467 0.000000 -5.500000
v -10.187467 0.000000 -14.492760
v -10.562533 0.000000 -14.492760
v -10.000000 0.000000 -14.163098
v -10.750000 0.000000 -14.163098
v -10.562533 0.000000 -13.833441
v -10.562533 0.500000 -13.833441
v -10.187467 0.000000 -13.833441
v -10.187467 0.500000 -13.833441
v 11.500000 0.500000 -5.829662
v 11.500000 8.250000 -5.829662
v 11.500000 8.250000 -14.163070
v 11.500000 0.500000 -14.163070
v 12.062533 8.250000 -5.500000
v 11.687467 8.250000 -5.500000
v 12.250000 0.500000 -5.829662
v 12.250000 8.250000 -5.829662
v 12.250000 0.500000 -14.163070
v 12.250000 8.250000 -14.163070
v 11.687467 8.250000 -14.492732
v 12.062533 8.250000 -14.492732
v 12.062533 0.000000 -6.159320
v 11.687467 0.000000 -6.159320
v 11.687467 0.500000 -6.159320
v 12.062533 0.500000 -6.159320
v 11.500000 0.000000 -5.829658
v 12.250000 0.000000 -5.829658
v 11.687467 0.000000 -5.500000
v 12.062533 0.000000 -5.500000
v 12.062533 0.000000 -14.492760
v 11.687467 0.000000 -14.492760
v 12.250000 0.000000 -14.163098
v 11.500000 0.000000 -14.163098
v 11.687467 0.000000 -13.833441
v 11.687467 0.500000 -13.833441
v 12.062533 0.000000 -13.833441
v 12.062533 0.500000 -13.833441
v -10.000000 5.000000 -5.829660
v -10.000000 8.250000 -5.829660
v -10.000000 8.250000 13.500000
v -10.000000 5.000000 13.500000
v -10.750000 8.250000 -5.829660
v -10.750000 5.000000 -5.829660
v -10.750000 5.000000 13.500000
v -10.750000 8.250000 13.500000
v -12.250000 9.000000 15.000000
v -3.750000 9.000000 15.000000
v -3.219670 9.000000 14.780300
v -12.780900 9.000000 14.780300
v -13.000000 9.000000 14.250000
v -3.000000 9.000000 14.250000
v -3.000000 9.000000 -4.250000
v -13.000000 9.000000 -14.250000
v -2.780300 9.000000 -4.780300
v -12.780300 9.000000 -14.780300
v -12.250000 9.000000 -15.000000
v -2.250000 9.000000 -5.000000
v 12.250000 9.000000 -15.000000
v 12.250000 9.000000 -5.000000
v 12.780300 9.000000 -14.780300
v 12.780300 9.000000 -5.219670
v 13.000000 9.000000 -5.750000
v 13.000000 9.000000 -14.250000
v -3.000000 8.250000 -4.250000
v -3.000000 8.250000 14.250000
v -13.000000 8.250000 14.250000
v -13.000000 8.250000 -14.250000
v -2.780300 8.250000 -4.780300
v -12.780300 8.250000 -14.780300
v -12.250000 8.250000 -15.000000
v -2.250000 8.250000 -5.000000
v 12.250000 8.250000 -15.000000
v 12.250000 8.250000 -5.000000
v -12.780900 8.250000 14.780300
v -3.219670 8.250000 14.780300
v -12.250000 8.250000 15.000000
v -3.750000 8.250000 15.000000
v 12.780300 8.250000 -5.219670
v 12.780300 8.250000 -14.780300
v 13.000000 8.250000 -5.750000
v 13.000000 8.250000 -14.250000
vn -0.194928 0.000000 0.980818
vn -0.194928 0.000000 0.980818
vn 0.991541 0.000000 -0.129797
vn 0.965721 0.000000 0.259582
vn 0.991541 0.000000 0.129791
vn 0.965718 0.000000 -0.259595
vn 0.195114 0.000000 0.980781
vn 0.195114 0.000000 0.980781
vn -0.980873 0.000000 0.194650
vn -0.980873 0.000000 0.194650
vn 0.980783 0.000000 0.195100
vn 0.980783 0.000000 0.195100
vn 0.195124 0.000000 -0.980779
vn 0.195100 0.000000 0.980783
vn 0.195100 0.000000 0.980783
vn 0.195124 0.000000 -0.980779
vn 0.797159 0.000000 -0.603769
vn 0.603747 0.000000 0.797176
vn 0.797159 0.000000 0.603770
vn 0.603769 0.000000 -0.797159
vn -0.707307 0.000000 0.706907
vn -0.707307 0.000000 0.706907
vn 0.707117 0.000000 0.707097
vn 0.707117 0.000000 0.707097
vn 0.000000 0.000000 1.000000
vn 0.000000 0.000000 1.000000
vn 0.000000 -0.447214 0.894427
vn 0.000000 -0.894427 0.447214
vn 0.000000 -0.894427 -0.447214
vn 0.000000 -0.447214 -0.894427
vn 0.000000 0.000000 -1.000000
vn 0.000000 0.000000 -1.000000
vn -0.980779 0.000000 -0.195124
vn -0.603769 0.000000 -0.797159
vn -0.797159 0.000000 -0.603769
vn -0.980779 0.000000 -0.195124
vn -0.195124 0.000000 -0.980779
vn -0.195124 0.000000 -0.980779
vn 0.797159 0.000000 0.603769
vn 0.195124 0.000000 0.980779
vn 0.195124 0.000000 0.980779
vn 0.603769 0.000000 0.797159
vn 0.980779 0.000000 0.195124
vn 0.980779 0.000000 0.195124
vn 0.077644 0.000000 0.996981
vn 0.255659 0.000000 0.966767
vn -0.169781 0.000000 0.985482
vn -0.215629 -0.000000 0.976475
vn -0.864386 0.000000 0.502829
vn -0.752861 0.000000 -0.658180
vn -0.077655 0.000000 -0.996980
vn -0.255659 0.000000 -0.966767
vn 0.169781 0.000000 -0.985482
vn 0.215615 0.000000 -0.976478
vn 0.864382 0.000002 -0.502837
vn 0.752853 0.000002 0.658189
vn 0.944299 0.000000 0.329089
vn 0.752863 -0.000001 -0.658177
vn 0.944299 0.000000 -0.329088
vn 0.752863 -0.000001 0.658177
vn -0.000001 0.000000 -1.000000
vn 0.186240 -0.000000 0.982504
vn -0.864386 0.000001 -0.502828
vn -0.752862 0.000001 0.658178
vn 0.864381 0.000010 0.502837
vn 0.752853 0.000012 -0.658189
vn -0.000003 0.000000 1.000000
vn -0.186255 0.000000 -0.982501
vn -0.944299 0.000000 -0.329088
vn -0.752873 -0.000010 -0.658166
vn -0.752873 -0.000010 0.658166
vn -0.944303 0.000000 0.329078
vn 0.996981 0.000000 -0.077645
vn 0.966767 0.000000 -0.255659
vn 0.985482 0.000000 0.169781
vn 0.976475 -0.000000 0.215629
vn 0.502829 0.000000 0.864386
vn -0.658179 0.000000 0.752861
vn -0.996980 0.000000 0.077656
vn -0.966767 0.000000 0.255659
vn -0.985482 0.000000 -0.169781
vn -0.976478 0.000000 -0.215615
vn -0.502837 0.000002 -0.864381
vn 0.658189 0.000002 -0.752853
vn 0.329090 0.000000 -0.944299
vn -0.658178 -0.000001 -0.752862
vn -0.329088 0.000000 -0.944299
vn 0.658178 -0.000001 -0.752862
vn -1.000000 0.000000 0.000002
vn 0.982505 -0.000000 -0.186238
vn -0.502828 0.000001 0.864386
vn 0.658178 0.000001 0.752862
vn 0.502836 0.000011 -0.864382
vn -0.658188 0.000013 -0.752853
vn 1.000000 0.000000 0.000002
vn -0.982501 0.000000 0.186255
vn -0.329088 0.000000 0.944299
vn -0.658166 -0.000011 0.752873
vn 0.658166 -0.000011 0.752873
vn 0.329078 0.000000 0.944303
vn -0.996980 0.000000 0.077656
vn -0.966767 0.000000 0.255659
vn -0.985482 0.000000 -0.169781
vn -0.976478 0.000000 -0.215615
vn 0.502829 0.000000 0.864386
vn -0.658179 0.000000 0.752861
vn 0.976475 -0.000000 0.215629
vn 0.985482 0.000000 0.169781
vn 0.996981 0.000000 -0.077645
vn 0.966767 0.000000 -0.255659
vn -0.502837 0.000002 -0.864381
vn 0.658189 0.000002 -0.752853
vn 0.329090 0.000000 -0.944299
vn -0.658178 -0.000001 -0.752862
vn -0.329088 0.000000 -0.944299
vn 0.658178 -0.000001 -0.752862
vn -1.000000 0.000000 0.000002
vn 0.982505 -0.000000 -0.186238
vn -0.502828 0.000001 0.864386
vn 0.658178 0.000001 0.752862
vn 0.502836 0.000011 -0.864382
vn -0.658188 0.000013 -0.752853
vn 1.000000 0.000000 0.000002
vn -0.982501 0.000000 0.186255
vn -0.329088 0.000000 0.944299
vn -0.658166 -0.000011 0.752873
vn 0.658166 -0.000011 0.752873
vn 0.329078 0.000000 0.944303
vn 0.707107 -0.707107 0.000000
vn 1.000000 0.000000 0.000000
vn 1.000000 0.000000 0.000000
vn 0.707107 -0.707107 0.000000
vn -1.000000 0.000000 0.000000
vn -0.707107 -0.707107 0.000000
vn -0.707107 -0.707107 0.000000
vn -1.000000 0.000000 0.000000
vn 0.000000 1.000000 0.000000
vn 0.000000 1.000000 0.000000
vn 0.000000 1.000000 0.000000
vn 0.000000 1.000000 0.000000
vn 0.000000 1.000000 0.000000
vn 0.000000 1.000000 0.000000
vn 0.000000 1.000000 0.000000
vn 0.000000 1.000000 0.000000
vn 0.000000 1.000000 0.000000
vn 0.000000 1.000000 0.000000
vn 0.000000 1.000000 0.000000
vn 0.000000 1.000000 0.000000
vn 0.000000 1.000000 0.000000
vn 0.000000 1.000000 0.000000
vn 0.000000 1.000000 0.000000
vn 0.000000 1.000000 0.000000
vn 0.000000 1.000000 0.000000
vn 0.000000 1.000000 0.000000
vn 0.000000 -1.000000 0.000000
vn 0.000000 -1.000000 0.000000
vn 0.000000 -1.000000 0.000000
vn 0.000000 -1.000000 0.000000
vn 0.000000 -1.000000 0.000000
vn 0.000000 -1.000000 0.000000
vn 0.000000 -1.000000 0.000000
vn 0.000000 -1.000000 0.000000
vn 0.000000 -1.000000 0.000000
vn 0.000000 -1.000000 0.000000
vn 0.000000 -1.000000 0.000000
vn 0.000000 -1.000000 0.000000
vn 0.000000 -1.000000 0.000000
vn 0.000000 -1.000000 0.000000
vn 0.000000 -1.000000 0.000000
vn 0.000000 -1.000000 0.000000
vn 0.000000 -1.000000 0.000000
vn 0.000000 -1.000000 0.000000
vt 0.816755 0.366285
vt 0.677689 0.366285
vt 0.677689 0.341515
vt 0.816755 0.341515
vt 0.012665 0.940457
vt 0.151731 0.940457
vt 0.151731 0.965228
vt 0.012665 0.965228
vt 0.830077 0.688336
vt 0.830071 0.713106
vt 0.820676 0.688326
vt 0.487006 0.432744
vt 0.487009 0.407971
vt 0.496398 0.432748
vt 0.345006 0.687862
vt 0.811289 0.688318
vt 0.811283 0.713088
vt 0.426474 0.399504
vt 0.417077 0.374742
vt 0.426468 0.374732
vt 0.011479 0.973847
vt 0.020870 0.973851
vt 0.417083 0.399514
vt 0.407692 0.399522
vt 0.407686 0.374750
vt 0.011475 0.998617
vt 0.002084 0.998613
vt 0.002087 0.973841
vt 0.820670 0.713098
vt 0.496401 0.407976
vt 0.505792 0.407981
vt 0.478324 0.440339
vt 0.830081 0.440339
vt 0.830081 0.547680
vt 0.478324 0.547680
vt 0.830081 0.572452
vt 0.478324 0.572452
vt 0.830081 0.679793
vt 0.478324 0.679793
vt 0.345000 0.712634
vt 0.335614 0.687852
vt 0.335608 0.712624
vt 0.326217 0.712614
vt 0.326223 0.687844
vt 0.827306 0.374344
vt 0.827311 0.399117
vt 0.817857 0.408117
vt 0.827248 0.408121
vt 0.827245 0.432893
vt 0.817854 0.432889
vt 0.808466 0.408113
vt 0.808463 0.432885
vt 0.258100 0.973978
vt 0.258097 0.998750
vt 0.020866 0.998623
vt 0.505789 0.432751
vt 0.441198 0.721578
vt 0.567994 0.721578
vt 0.567994 0.996816
vt 0.441198 0.996816
vt 0.569660 0.037228
vt 0.569660 0.049617
vt 0.434684 0.037228
vt 0.434684 0.062141
vt 0.434684 0.049617
vt 0.702924 0.721383
vt 0.829720 0.721383
vt 0.829720 0.996621
vt 0.702924 0.996621
vt 0.434684 0.024704
vt 0.329605 0.407133
vt 0.335809 0.423648
vt 0.335809 0.679615
vt 0.329605 0.679615
vt 0.323468 0.407133
vt 0.323468 0.679615
vt 0.317263 0.679615
vt 0.317263 0.423648
vt 0.569660 0.074668
vt 0.569660 0.087055
vt 0.561480 0.087055
vt 0.561480 0.074668
vt 0.569660 0.012177
vt 0.569660 0.024704
vt 0.561480 0.024704
vt 0.561480 0.012177
vt 0.569660 0.062141
vt 0.561480 0.062141
vt 0.317263 0.407133
vt 0.335809 0.407133
vt 0.342013 0.407133
vt 0.342013 0.423648
vt 0.304922 0.407133
vt 0.311059 0.423648
vt 0.304922 0.423648
vt 0.311059 0.407133
vt 0.434526 0.092171
vt 0.561323 0.092171
vt 0.561323 0.367409
vt 0.434526 0.367409
vt 0.301870 0.711681
vt 0.295734 0.711681
vt 0.301870 0.439198
vt 0.289529 0.439198
vt 0.295734 0.439198
vt 0.437039 0.996917
vt 0.310243 0.996917
vt 0.310243 0.721679
vt 0.437039 0.721679
vt 0.308075 0.439198
vt 0.422943 0.001250
vt 0.429147 0.017763
vt 0.429147 0.273733
vt 0.422943 0.273733
vt 0.416806 0.001250
vt 0.416806 0.273733
vt 0.410601 0.273733
vt 0.410601 0.017763
vt 0.320416 0.711681
vt 0.314280 0.695166
vt 0.320416 0.695166
vt 0.314280 0.711681
vt 0.308075 0.711681
vt 0.308075 0.695166
vt 0.289529 0.711681
vt 0.283325 0.711681
vt 0.283325 0.695166
vt 0.289529 0.695166
vt 0.410601 0.001250
vt 0.429147 0.001250
vt 0.435352 0.017763
vt 0.435352 0.001250
vt 0.441488 0.001250
vt 0.441488 0.017763
vt 0.404397 0.001250
vt 0.404397 0.017763
vt 0.474213 0.681239
vt 0.347417 0.681239
vt 0.347417 0.406001
vt 0.474213 0.406001
vt 0.294496 0.998203
vt 0.288359 0.998203
vt 0.294496 0.725721
vt 0.282155 0.725721
vt 0.288359 0.725721
vt 0.572091 0.721686
vt 0.698886 0.721686
vt 0.698886 0.996924
vt 0.572091 0.996924
vt 0.300700 0.725721
vt 0.283763 0.344116
vt 0.291943 0.331590
vt 0.418739 0.331592
vt 0.418739 0.344116
vt 0.283763 0.356505
vt 0.418739 0.356505
vt 0.418739 0.369029
vt 0.291943 0.369031
vt 0.275950 0.998203
vt 0.269814 0.998203
vt 0.269814 0.981688
vt 0.275950 0.981688
vt 0.306905 0.998203
vt 0.300700 0.998203
vt 0.300700 0.981688
vt 0.306905 0.981688
vt 0.282155 0.998203
vt 0.282155 0.981688
vt 0.283763 0.369029
vt 0.283763 0.331592
vt 0.283763 0.319065
vt 0.291943 0.319065
vt 0.283763 0.393943
vt 0.291943 0.381556
vt 0.291943 0.393943
vt 0.283763 0.381556
vt 0.225281 0.330757
vt 0.278454 0.330759
vt 0.278445 0.969184
vt 0.225273 0.969180
vt 0.159838 0.330753
vt 0.213011 0.330755
vt 0.159830 0.969178
vt 0.213002 0.969180
vt 0.985645 0.992503
vt 0.846579 0.992503
vt 0.837902 0.985245
vt 0.994331 0.985245
vt 0.997916 0.967731
vt 0.834308 0.967731
vt 0.834308 0.356708
vt 0.997916 0.026427
vt 0.830714 0.339194
vt 0.994322 0.008912
vt 0.985645 0.001655
vt 0.822038 0.331938
vt 0.584807 0.001655
vt 0.584807 0.331938
vt 0.576131 0.008912
vt 0.576131 0.324683
vt 0.572536 0.307166
vt 0.572536 0.026427
vt 0.155791 0.335020
vt 0.155791 0.908240
vt 0.002305 0.908240
vt 0.002305 0.025170
vt 0.159163 0.318589
vt 0.005678 0.008739
vt 0.013817 0.001932
vt 0.167303 0.311780
vt 0.389858 0.001932
vt 0.389858 0.311780
vt 0.005668 0.924671
vt 0.152420 0.924671
vt 0.013817 0.931478
vt 0.144280 0.931478
vt 0.397997 0.304974
vt 0.397997 0.008739
vt 0.401368 0.288541
vt 0.401368 0.025170
g base
usemtl Default
f 21/25/21 22/26/22 19/27/19 
f 21/25/21 19/27/19 20/28/20 
f 18/29/18 24/30/24 23/31/23 
f 18/29/18 23/31/23 17/32/17 
f 18/33/18 17/34/17 37/53/37 
f 18/33/18 37/53/37 38/35/38 
f 23/36/23 24/37/24 40/54/40 
f 23/36/23 40/54/40 39/38/39 
f 49/64/49 52/39/52 26/40/26 
f 49/64/49 26/40/26 25/41/25 
f 29/42/29 33/47/33 36/43/36 
f 29/42/29 36/43/36 32/44/32 
f 31/79/31 35/50/35 34/45/34 
f 31/79/31 34/45/34 30/46/30 
f 33/47/33 19/48/19 22/49/22 
f 33/47/33 22/49/22 36/43/36 
f 35/50/35 21/51/21 20/52/20 
f 35/50/35 20/52/20 34/45/34 
f 37/53/37 25/41/25 26/40/26 
f 37/53/37 26/40/26 38/35/38 
f 40/54/40 28/55/28 27/80/27 
f 40/54/40 27/80/27 39/38/39 
f 41/56/41 42/57/42 43/58/43 
f 41/56/41 43/58/43 44/59/44 
f 44/59/44 43/58/43 45/60/45 
f 44/59/44 45/60/45 46/61/46 
f 46/61/46 45/60/45 47/62/47 
f 46/61/46 47/62/47 48/63/48 
f 49/64/49 50/66/50 51/65/51 
f 49/64/49 51/65/51 52/39/52 
f 50/66/50 53/67/53 54/68/54 
f 50/66/50 54/68/54 51/65/51 
f 29/42/29 32/44/32 54/69/54 
f 29/42/29 54/69/54 53/70/53 
f 58/71/58 57/72/57 56/73/56 
f 58/71/58 56/73/56 55/74/55 
f 60/75/60 58/71/58 55/74/55 
f 60/75/60 55/74/55 59/76/59 
f 56/77/56 57/78/57 31/79/31 
f 56/77/56 31/79/31 30/46/30 
f 60/75/60 59/76/59 27/80/27 
f 60/75/60 27/80/27 28/55/28 
f 61/81/61 62/82/62 63/83/63 
f 61/81/61 63/83/63 64/84/64 
f 79/85/79 80/86/80 65/89/65 
f 79/85/79 65/89/65 66/87/66 
f 64/112/64 63/88/63 65/89/65 
f 65/89/65 80/86/80 64/112/64 
f 67/90/67 68/91/68 69/92/69 
f 67/90/67 69/92/69 70/93/70 
f 67/109/67 79/85/79 66/87/66 
f 67/109/67 66/87/66 68/94/68 
f 71/98/71 82/95/82 70/96/70 
f 70/96/70 69/97/69 71/98/71 
f 71/98/71 72/100/72 81/99/81 
f 71/98/71 81/99/81 82/95/82 
f 72/100/72 62/101/62 61/102/61 
f 72/100/72 61/102/61 81/99/81 
f 73/103/73 74/104/74 75/105/75 
f 73/103/73 75/105/75 76/106/76 
f 74/107/74 77/108/77 67/109/67 
f 74/107/74 67/109/67 75/110/75 
f 78/111/78 73/103/73 76/106/76 
f 78/111/78 76/106/76 64/112/64 
f 80/86/80 78/111/78 64/112/64 
f 77/108/77 79/85/79 67/109/67 
f 83/113/83 81/99/81 61/102/61 
f 82/95/82 84/114/84 70/96/70 
f 84/114/84 85/115/85 86/116/86 
f 84/114/84 86/116/86 70/96/70 
f 85/117/85 87/120/87 88/118/88 
f 85/117/85 88/118/88 86/119/86 
f 87/120/87 83/113/83 61/102/61 
f 87/120/87 61/102/61 88/118/88 
f 89/121/89 90/122/90 91/123/91 
f 89/121/89 91/123/91 92/124/92 
f 107/125/107 108/126/108 93/129/93 
f 107/125/107 93/129/93 94/127/94 
f 92/152/92 91/128/91 93/129/93 
f 93/129/93 108/126/108 92/152/92 
f 95/130/95 96/131/96 97/132/97 
f 95/130/95 97/132/97 98/133/98 
f 95/148/95 107/125/107 94/127/94 
f 95/148/95 94/127/94 96/134/96 
f 99/138/99 110/135/110 98/136/98 
f 98/136/98 97/137/97 99/138/99 
f 99/138/99 100/140/100 109/139/109 
f 99/138/99 109/139/109 110/135/110 
f 100/140/100 90/141/90 89/142/89 
f 100/140/100 89/142/89 109/139/109 
f 101/143/101 102/146/102 103/144/103 
f 101/143/101 103/144/103 104/145/104 
f 102/146/102 105/147/105 95/148/95 
f 102/146/102 95/148/95 103/144/103 
f 106/149/106 101/150/101 104/151/104 
f 106/149/106 104/151/104 92/152/92 
f 108/126/108 106/149/106 92/152/92 
f 105/147/105 107/125/107 95/148/95 
f 111/153/111 109/139/109 89/142/89 
f 110/135/110 112/154/112 98/136/98 
f 112/154/112 113/156/113 114/155/114 
f 112/154/112 114/155/114 98/136/98 
f 113/156/113 115/157/115 116/158/116 
f 113/156/113 116/158/116 114/155/114 
f 115/159/115 111/153/111 89/142/89 
f 115/159/115 89/142/89 116/160/116 
f 117/161/117 118/162/118 119/163/119 
f 117/161/117 119/163/119 120/164/120 
f 135/165/135 136/166/136 121/169/121 
f 135/165/135 121/169/121 122/167/122 
f 123/192/123 124/168/124 121/169/121 
f 121/169/121 136/166/136 123/192/123 
f 125/170/125 126/171/126 124/172/124 
f 125/170/125 124/172/124 123/173/123 
f 117/189/117 135/165/135 122/167/122 
f 117/189/117 122/167/122 118/174/118 
f 127/178/127 138/175/138 120/176/120 
f 120/176/120 119/177/119 127/178/127 
f 127/178/127 128/180/128 137/179/137 
f 127/178/127 137/179/137 138/175/138 
f 128/180/128 126/181/126 125/182/125 
f 128/180/128 125/182/125 137/179/137 
f 129/183/129 130/184/130 131/185/131 
f 129/183/129 131/185/131 132/186/132 
f 130/187/130 133/188/133 117/189/117 
f 130/187/130 117/189/117 131/190/131 
f 134/191/134 129/183/129 132/186/132 
f 134/191/134 132/186/132 123/192/123 
f 136/166/136 134/191/134 123/192/123 
f 133/188/133 135/165/135 117/189/117 
f 139/193/139 137/179/137 125/182/125 
f 138/175/138 140/194/140 120/176/120 
f 140/194/140 141/195/141 142/196/142 
f 140/194/140 142/196/142 120/176/120 
f 141/197/141 143/200/143 144/198/144 
f 141/197/141 144/198/144 142/199/142 
f 143/200/143 139/193/139 125/182/125 
f 143/200/143 125/182/125 144/198/144 
f 145/201/145 146/202/146 147/203/147 
f 145/201/145 147/203/147 148/204/148 
f 149/205/149 150/206/150 151/208/151 
f 149/205/149 151/208/151 152/207/152 
f 145/201/145 148/204/148 151/208/151 
f 145/201/145 151/208/151 150/206/150 
f 153/209/153 154/210/154 155/211/155 
f 153/209/153 155/211/155 156/212/156 
f 155/211/155 157/213/157 156/212/156 
f 155/211/155 158/214/158 157/213/157 
f 157/213/157 158/214/158 159/215/159 
f 157/213/157 159/215/159 160/216/160 
f 161/217/161 160/216/160 159/215/159 
f 161/217/161 162/218/162 160/216/160 
f 163/219/163 162/218/162 161/217/161 
f 163/219/163 161/217/161 164/220/164 
f 165/221/165 163/219/163 164/220/164 
f 164/220/164 166/222/166 165/221/165 
f 167/223/167 165/221/165 166/222/166 
f 167/223/167 166/222/166 168/224/168 
f 169/225/169 167/223/167 168/224/168 
f 169/225/169 170/226/170 167/223/167 
f 171/227/171 172/228/172 173/229/173 
f 173/229/173 174/230/174 171/227/171 
f 174/230/174 175/231/175 171/227/171 
f 175/231/175 176/232/176 177/233/177 
f 175/231/175 177/233/177 178/234/178 
f 179/235/179 178/234/178 177/233/177 
f 179/235/179 180/236/180 178/234/178 
f 174/230/174 176/232/176 175/231/175 
f 172/228/172 181/237/181 173/229/173 
f 172/228/172 182/238/182 181/237/181 
f 182/238/182 183/239/183 181/237/181 
f 182/238/182 184/240/184 183/239/183 
f 179/235/179 185/241/185 180/236/180 
f 179/235/179 186/242/186 185/241/185 
f 186/242/186 187/243/187 185/241/185 
f 186/242/186 188/244/188 187/243/187 
