# Blender v2.79 (sub 0) OBJ File: 'CeredoA3.blend'
# www.blender.org
o Cylinder_Cylinder.1259
v 0.000000 2.000001 -15.200000
v 0.000000 1.999999 15.200000
v 0.517638 1.931852 -15.200000
v 0.517638 1.931851 15.200000
v 1.000000 1.732051 -15.200000
v 1.000000 1.732050 15.200000
v 1.414214 1.414214 -15.200000
v 1.414214 1.414213 15.200000
v 1.732051 1.000001 -15.200000
v 1.732051 0.999999 15.200000
v 1.931852 0.517639 -15.200000
v 1.931852 0.517637 15.200000
v 2.000000 0.000001 -15.200000
v 2.000000 -0.000001 15.200000
v 1.931852 -0.517637 -15.200000
v 1.931852 -0.517639 15.200000
v 1.732051 -0.999999 -15.200000
v 1.732051 -1.000000 15.200000
v 1.414214 -1.414212 -15.200000
v 1.414214 -1.414214 15.200000
v 1.000000 -1.732050 -15.200000
v 1.000000 -1.732051 15.200000
v 0.517639 -1.931851 -15.200000
v 0.517639 -1.931852 15.200000
v 0.000001 -1.999999 -15.200000
v 0.000001 -2.000001 15.200000
v -0.517637 -1.931851 -15.200000
v -0.517637 -1.931853 15.200000
v -0.999999 -1.732051 -15.200000
v -0.999999 -1.732052 15.200000
v -1.414213 -1.414214 -15.200000
v -1.414213 -1.414215 15.200000
v -1.732050 -1.000000 -15.200000
v -1.732050 -1.000001 15.200000
v -1.931851 -0.517638 -15.200000
v -1.931851 -0.517640 15.200000
v -2.000000 -0.000000 -15.200000
v -2.000000 -0.000002 15.200000
v -1.931852 0.517638 -15.200000
v -1.931852 0.517636 15.200000
v -1.732051 1.000000 -15.200000
v -1.732051 0.999998 15.200000
v -1.414214 1.414213 -15.200000
v -1.414214 1.414212 15.200000
v -1.000001 1.732051 -15.200000
v -1.000001 1.732049 15.200000
v -0.517640 1.931852 -15.200000
v -0.517640 1.931851 15.200000
v 0.918440 2.217311 16.000000
v 0.918440 2.217311 15.200001
v 0.918440 2.217311 -16.000000
v 0.918440 2.217311 -15.200001
v 2.217311 0.918440 -16.000000
v 2.217311 0.918440 -15.200001
v 2.217311 -0.918440 -16.000000
v 2.217311 -0.918440 -15.200001
v 0.918440 -2.217311 -16.000000
v 0.918440 -2.217311 -15.200001
v -0.918441 -2.217311 -16.000000
v -0.918441 -2.217311 -15.200001
v -2.217311 -0.918440 -16.000000
v -2.217311 -0.918440 -15.200001
v -2.217311 0.918440 -16.000000
v -2.217311 0.918440 -15.200001
v -0.918441 2.217311 -16.000000
v -0.918441 2.217311 -15.200001
v 2.217311 0.918440 15.200001
v 2.217311 0.918440 16.000000
v 2.217311 -0.918440 15.200001
v 2.217311 -0.918440 16.000000
v 0.918440 -2.217311 15.200001
v 0.918440 -2.217311 16.000000
v -0.918441 -2.217311 15.200001
v -0.918441 -2.217311 16.000000
v -2.217311 -0.918440 15.200001
v -2.217311 -0.918440 16.000000
v -2.217311 0.918440 15.200001
v -2.217311 0.918440 16.000000
v -0.918441 2.217311 15.200001
v -0.918441 2.217311 16.000000
vt 0.709747 0.643637
vt 0.650243 0.601792
vt 0.650243 0.542614
vt 0.709747 0.500769
vt 0.793898 0.500769
vt 0.853402 0.542614
vt 0.853402 0.601792
vt 0.793898 0.643637
vt 0.882721 0.131951
vt 0.919371 0.131951
vt 0.919371 0.173796
vt 0.882721 0.173796
vt 0.882721 0.542614
vt 0.919371 0.542614
vt 0.919371 0.601792
vt 0.882721 0.601792
vt 0.919371 0.232974
vt 0.882721 0.232974
vt 0.882721 0.500769
vt 0.919371 0.500769
vt 0.919371 0.111332
vt 0.882721 0.111332
vt 0.882721 0.069487
vt 0.919371 0.069487
vt 0.882721 0.295437
vt 0.919371 0.295437
vt 0.919371 0.354615
vt 0.882721 0.354615
vt 0.882721 0.010309
vt 0.919371 0.010309
vt 0.650243 0.111332
vt 0.650243 0.052154
vt 0.709747 0.010309
vt 0.793898 0.010309
vt 0.853402 0.052154
vt 0.853402 0.111332
vt 0.793898 0.153177
vt 0.709747 0.153177
vt 0.882721 0.253592
vt 0.919371 0.253592
vt 0.919371 0.476257
vt 0.882721 0.476257
vt 0.882721 0.434412
vt 0.919371 0.434412
vt 0.948691 0.173796
vt 0.985340 0.173796
vt 0.985340 0.232974
vt 0.948691 0.232974
vt 0.985340 0.069487
vt 0.948691 0.069487
vt 0.948691 0.010309
vt 0.985340 0.010309
vt 0.882721 0.375234
vt 0.919371 0.375234
vt 0.709747 0.480150
vt 0.650243 0.438305
vt 0.650243 0.379127
vt 0.709747 0.337282
vt 0.793898 0.337282
vt 0.853402 0.379127
vt 0.853402 0.438305
vt 0.793898 0.480150
vt 0.985340 0.111332
vt 0.948691 0.111332
vt 0.948691 0.253592
vt 0.985340 0.253592
vt 0.985340 0.295437
vt 0.948691 0.295437
vt 0.948691 0.131951
vt 0.985340 0.131951
vt 0.985340 0.354615
vt 0.948691 0.354615
vt 0.650243 0.215641
vt 0.709747 0.173796
vt 0.793898 0.173796
vt 0.853402 0.215641
vt 0.853402 0.274819
vt 0.793898 0.316664
vt 0.709747 0.316664
vt 0.650243 0.274819
vt 0.397239 0.010309
vt 0.397240 0.989691
vt 0.373525 0.989691
vt 0.373525 0.010309
vt 0.351428 0.989691
vt 0.351427 0.010309
vt 0.332452 0.989691
vt 0.332451 0.010309
vt 0.144236 0.010309
vt 0.144236 0.989691
vt 0.125260 0.989691
vt 0.125260 0.010309
vt 0.103162 0.989691
vt 0.103162 0.010309
vt 0.079448 0.989691
vt 0.079448 0.010309
vt 0.055734 0.989691
vt 0.055734 0.010309
vt 0.033636 0.989691
vt 0.033636 0.010309
vt 0.014660 0.989691
vt 0.014660 0.010309
vt 0.620923 0.010309
vt 0.620923 0.989691
vt 0.601947 0.989691
vt 0.601947 0.010309
vt 0.579849 0.989691
vt 0.579849 0.010309
vt 0.556135 0.989691
vt 0.556135 0.010309
vt 0.532421 0.989691
vt 0.532421 0.010309
vt 0.510323 0.989691
vt 0.510323 0.010309
vt 0.491347 0.989691
vt 0.491347 0.010309
vt 0.173556 0.989691
vt 0.173556 0.010309
vt 0.192532 0.010309
vt 0.192532 0.989691
vt 0.214630 0.010309
vt 0.214630 0.989691
vt 0.238344 0.010309
vt 0.238344 0.989691
vt 0.262058 0.010309
vt 0.262058 0.989691
vt 0.284156 0.010309
vt 0.284156 0.989691
vt 0.303131 0.010309
vt 0.303132 0.989691
vt 0.462027 0.010309
vt 0.462027 0.989691
vt 0.443052 0.989691
vt 0.443051 0.010309
vt 0.420954 0.989691
vt 0.420953 0.010309
vn -0.0000 0.0000 1.0000
vn 0.7071 0.7071 0.0000
vn -1.0000 0.0000 0.0000
vn 1.0000 0.0000 0.0000
vn -0.7071 -0.7071 0.0000
vn 0.7071 -0.7071 0.0000
vn 0.0000 -1.0000 0.0000
vn 0.0000 0.0000 -1.0000
vn 0.0000 1.0000 0.0000
vn -0.7071 0.7071 0.0000
vn 0.2588 0.9659 0.0000
vn 0.5000 0.8660 0.0000
vn 0.8660 0.5000 0.0000
vn 0.9659 0.2588 0.0000
vn 0.9659 -0.2588 0.0000
vn 0.8660 -0.5000 0.0000
vn 0.5000 -0.8660 0.0000
vn 0.2588 -0.9659 0.0000
vn -0.2588 -0.9659 0.0000
vn -0.5000 -0.8660 0.0000
vn -0.8660 -0.5000 0.0000
vn -0.9659 -0.2588 0.0000
vn -0.9659 0.2588 0.0000
vn -0.8660 0.5000 0.0000
vn -0.5000 0.8660 0.0000
vn -0.2588 0.9659 0.0000
s off
f 68/1/1 49/2/1 80/3/1 78/4/1 76/5/1 74/6/1 72/7/1 70/8/1
f 51/9/2 52/10/2 54/11/2 53/12/2
f 75/13/3 76/14/3 78/15/3 77/16/3
f 53/12/4 54/11/4 56/17/4 55/18/4
f 73/19/5 74/20/5 76/14/5 75/13/5
f 55/21/6 56/22/6 58/23/6 57/24/6
f 71/25/7 72/26/7 74/27/7 73/28/7
f 57/24/7 58/23/7 60/29/7 59/30/7
f 50/31/8 67/32/8 69/33/8 71/34/8 73/35/8 75/36/8 77/37/8 79/38/8
f 69/39/6 70/40/6 72/26/6 71/25/6
f 59/41/5 60/42/5 62/43/5 61/44/5
f 79/45/9 80/46/9 49/47/9 50/48/9
f 67/49/4 68/50/4 70/51/4 69/52/4
f 61/44/3 62/43/3 64/53/3 63/54/3
f 54/55/1 52/56/1 66/57/1 64/58/1 62/59/1 60/60/1 58/61/1 56/62/1
f 50/63/2 49/64/2 68/50/2 67/49/2
f 63/65/10 64/66/10 66/67/10 65/68/10
f 77/69/10 78/70/10 80/46/10 79/45/10
f 65/68/9 66/67/9 52/71/9 51/72/9
f 51/73/8 53/74/8 55/75/8 57/76/8 59/77/8 61/78/8 63/79/8 65/80/8
s 1
f 1/81/9 2/82/9 4/83/11 3/84/11
f 3/84/11 4/83/11 6/85/12 5/86/12
f 5/86/12 6/85/12 8/87/2 7/88/2
f 7/89/2 8/90/2 10/91/13 9/92/13
f 9/92/13 10/91/13 12/93/14 11/94/14
f 11/94/14 12/93/14 14/95/4 13/96/4
f 13/96/4 14/95/4 16/97/15 15/98/15
f 15/98/15 16/97/15 18/99/16 17/100/16
f 17/100/16 18/99/16 20/101/6 19/102/6
f 19/103/6 20/104/6 22/105/17 21/106/17
f 21/106/17 22/105/17 24/107/18 23/108/18
f 23/108/18 24/107/18 26/109/7 25/110/7
f 25/110/7 26/109/7 28/111/19 27/112/19
f 27/112/19 28/111/19 30/113/20 29/114/20
f 29/114/20 30/113/20 32/115/5 31/116/5
f 31/117/5 32/118/5 34/119/21 33/120/21
f 33/120/21 34/119/21 36/121/22 35/122/22
f 35/122/22 36/121/22 38/123/3 37/124/3
f 37/124/3 38/123/3 40/125/23 39/126/23
f 39/126/23 40/125/23 42/127/24 41/128/24
f 41/128/24 42/127/24 44/129/10 43/130/10
f 43/131/10 44/132/10 46/133/25 45/134/25
f 45/134/25 46/133/25 48/135/26 47/136/26
f 47/136/26 48/135/26 2/82/9 1/81/9
