# Wavefront OBJ file
# Creator: Ultimate Unwrap3D Pro v3.35
# Website: http://www.unwrap3d.com
# Time: Sun May 12 17:49:00 2013
# num_vertices: 92
# num_vertex_normals: 92
# num_uvs: 144
# num_faces: 38
# num_groups: 1

v 0.000000 24.757200 38.279499
v 40.831402 25.000000 -0.000000
v 0.000000 24.757200 -38.279499
v -40.831402 25.000000 -0.000000
v -0.630200 1.000000 17.999599
v -0.630200 1.000000 17.999599
v -1.000000 1.000000 36.500000
v -1.000000 1.000000 36.500000
v -1.000000 1.000000 36.500000
v -40.000000 0.000000 37.500000
v -40.000000 0.000000 37.500000
v -40.000000 0.000000 37.500000
v -40.000000 0.000000 37.500000
v -40.000000 0.000000 -0.000000
v -40.000000 0.000000 -0.000000
v -17.998899 48.116600 0.738300
v -17.998899 48.116600 0.738300
v -39.000000 49.000000 1.000000
v -39.000000 49.000000 1.000000
v -39.000000 49.000000 1.000000
v -40.000000 50.000000 37.500000
v -40.000000 50.000000 37.500000
v -40.000000 50.000000 37.500000
v -40.000000 50.000000 37.500000
v 0.000000 49.514301 37.500000
v 0.000000 49.514301 37.500000
v -40.831402 25.000000 38.279499
v -40.831402 25.000000 38.279499
v 0.000000 0.000000 37.500000
v 0.000000 0.000000 37.500000
v 0.000000 0.000000 37.500000
v 0.000000 0.000000 37.500000
v 40.831402 25.000000 38.279499
v 40.831402 25.000000 38.279499
v 40.000000 0.000000 37.500000
v 40.000000 0.000000 37.500000
v 40.000000 0.000000 37.500000
v 40.000000 0.000000 -0.000000
v 40.000000 0.000000 -0.000000
v 40.831402 25.000000 -38.279499
v 40.831402 25.000000 -38.279499
v 40.000000 0.000000 -37.500000
v 40.000000 0.000000 -37.500000
v 40.000000 0.000000 -37.500000
v 0.000000 0.000000 -37.500000
v 0.000000 0.000000 -37.500000
v 0.000000 0.000000 -37.500000
v 0.000000 0.000000 -37.500000
v -40.831402 25.000000 -38.279499
v -40.831402 25.000000 -38.279499
v -40.000000 0.000000 -37.500000
v -40.000000 0.000000 -37.500000
v -40.000000 0.000000 -37.500000
v -40.000000 0.000000 -37.500000
v -1.000000 1.000000 -36.500000
v -1.000000 1.000000 -36.500000
v -1.000000 1.000000 -36.500000
v -0.630200 1.000000 -17.999599
v -0.630200 1.000000 -17.999599
v 40.000000 50.000000 -37.500000
v 40.000000 50.000000 -37.500000
v 40.000000 50.000000 -37.500000
v 0.000000 49.514301 -37.500000
v 0.000000 49.514301 -37.500000
v 18.000000 48.596802 0.484900
v 18.000000 48.596802 0.484900
v 40.000000 50.000000 -0.000000
v 40.000000 50.000000 -0.000000
v 40.000000 50.000000 -0.000000
v 40.000000 50.000000 -0.000000
v 40.000000 50.000000 37.500000
v 40.000000 50.000000 37.500000
v 40.000000 50.000000 37.500000
v 40.000000 50.000000 37.500000
v 39.000000 49.000000 1.000000
v 39.000000 49.000000 1.000000
v 39.000000 49.000000 1.000000
v 17.998899 48.116600 0.738300
v 17.998899 48.116600 0.738300
v -40.000000 50.000000 -0.000000
v -40.000000 50.000000 -0.000000
v -40.000000 50.000000 -0.000000
v -40.000000 50.000000 -0.000000
v -0.207800 0.669800 17.999100
v -0.207800 0.669800 17.999100
v -0.207800 0.669800 -17.999100
v -0.207800 0.669800 -17.999100
v -40.000000 50.000000 -37.500000
v -40.000000 50.000000 -37.500000
v -40.000000 50.000000 -37.500000
v -18.000000 48.596802 0.484900
v -18.000000 48.596802 0.484900
# num_vertices: 92

vn -0.000047 -0.000083 1.000000
vn 1.000000 0.000000 0.000000
vn 0.000047 -0.000083 -1.000000
vn -1.000000 0.000000 0.000000
vn -0.615851 -0.787796 -0.010247
vn 0.025277 -0.999681 0.000251
vn -0.615761 -0.787666 -0.020493
vn 0.000000 -0.707107 -0.707107
vn 0.025162 -0.999683 0.000503
vn -0.000187 -0.031470 0.999505
vn -0.999447 -0.033238 0.000000
vn 0.025162 -0.999683 0.000503
vn 0.000000 -0.707107 -0.707107
vn -0.999447 -0.033238 0.000000
vn 0.025396 -0.999678 0.000168
vn 0.005137 0.466704 0.884398
vn 0.020622 0.998631 -0.048065
vn 0.707107 0.707107 0.000000
vn 0.010275 0.466695 0.884359
vn 0.041233 0.997458 -0.058112
vn 0.000378 0.031152 0.999515
vn -0.999447 0.033238 0.000000
vn 0.041233 0.997458 -0.058112
vn 0.707107 0.707107 0.000000
vn 0.000000 0.031152 0.999515
vn 0.009702 0.999109 -0.041067
vn 0.000096 -0.000159 1.000000
vn -1.000000 0.000000 0.000000
vn -0.615761 -0.787666 -0.020493
vn 0.000000 -0.707107 -0.707107
vn 0.000000 -1.000000 0.000000
vn -0.000094 -0.031317 0.999510
vn 1.000000 0.000000 0.000000
vn -0.000189 -0.000006 1.000000
vn 0.999447 -0.033238 0.000000
vn 0.000000 -0.031165 0.999514
vn 0.000000 -1.000000 0.000000
vn 0.999447 -0.033238 0.000000
vn -0.005552 -0.999985 0.000000
vn -0.000096 -0.000159 -1.000000
vn 1.000000 0.000000 0.000000
vn 0.000187 -0.031470 -0.999505
vn 0.999447 -0.033238 0.000000
vn 0.000000 -1.000000 0.000000
vn 0.000000 -0.707107 0.707107
vn -0.615761 -0.787666 0.020493
vn 0.000000 -1.000000 0.000000
vn 0.000094 -0.031317 -0.999510
vn -1.000000 0.000000 0.000000
vn 0.000189 -0.000006 -1.000000
vn -0.999447 -0.033238 0.000000
vn 0.000000 -0.031165 -0.999514
vn 0.025633 -0.999672 0.000000
vn 0.000000 -0.707107 0.707107
vn 0.000000 -0.707107 0.707107
vn -0.615761 -0.787666 0.020493
vn 0.025633 -0.999672 0.000000
vn -0.615851 -0.787796 0.010247
vn 0.025512 -0.999675 0.000000
vn -0.000378 0.031152 -0.999515
vn 0.999447 0.033238 0.000000
vn -0.012142 0.999926 0.000000
vn 0.000000 0.031152 -0.999515
vn 0.000000 0.999968 0.008050
vn -0.005137 0.466704 0.884398
vn -0.006071 0.999909 0.012075
vn -0.707107 0.707107 0.000000
vn -0.010275 0.466695 0.884359
vn -0.012142 0.999926 0.000000
vn 0.999447 0.033238 0.000000
vn 0.999447 0.033238 0.000000
vn -0.000378 0.031152 0.999515
vn -0.707107 0.707107 0.000000
vn -0.012137 0.999560 -0.027053
vn -0.707107 0.707107 0.000000
vn -0.010275 0.466695 0.884359
vn -0.012137 0.999560 -0.027053
vn -0.005137 0.466704 0.884398
vn -0.006069 0.999453 -0.032524
vn 0.707107 0.707107 0.000000
vn 0.010275 0.466695 0.884359
vn 0.012142 0.999926 0.000000
vn -0.999447 0.033238 0.000000
vn -0.615851 -0.787796 -0.010247
vn -0.008328 -0.999965 0.000000
vn -0.615851 -0.787796 0.010247
vn -0.008328 -0.999965 0.000000
vn -0.999447 0.033238 0.000000
vn 0.000378 0.031152 -0.999515
vn 0.012142 0.999926 0.000000
vn 0.005137 0.466704 0.884398
vn 0.006071 0.999909 0.012075
# num_vertex_normals: 92

vt 0.217801 0.139410
vt 0.218329 0.027660
vt 0.417124 0.019289
vt 0.419239 0.246138
vt 0.305743 0.761569
vt 0.412189 0.761988
vt 0.419239 0.981931
vt 0.216038 0.984442
vt 0.584548 0.740433
vt 0.583315 0.497889
vt 0.711086 0.497889
vt 0.711086 0.740433
vt 0.858948 0.242371
vt 0.858948 0.014894
vt 0.986719 0.014894
vt 0.986719 0.242371
vt 0.857009 0.737713
vt 0.855776 0.495169
vt 0.983547 0.495169
vt 0.983547 0.737713
vt 0.587368 0.247184
vt 0.587368 0.019917
vt 0.714963 0.019917
vt 0.714963 0.247184
vt 0.420472 0.473195
vt 0.221678 0.468801
vt 0.219387 0.357260
vt 0.419239 0.246138
vt 0.009313 0.532628
vt 0.212690 0.530535
vt 0.122986 0.760523
vt 0.010723 0.759058
vt 0.986719 0.469847
vt 0.858948 0.469847
vt 0.858948 0.242371
vt 0.986719 0.242371
vt 0.714963 0.474660
vt 0.587368 0.474660
vt 0.587368 0.247184
vt 0.714963 0.247184
vt 0.013014 0.986116
vt 0.010723 0.759058
vt 0.016715 0.766173
vt 0.122986 0.760523
vt 0.123162 0.763453
vt 0.016715 0.766173
vt 0.010723 0.759058
vt 0.418181 0.754873
vt 0.419239 0.981931
vt 0.412189 0.761988
vt 0.008785 0.023056
vt 0.212337 0.020754
vt 0.214981 0.139201
vt 0.010371 0.250532
vt 0.013014 0.986116
vt 0.016715 0.766173
vt 0.123162 0.763453
vt 0.216038 0.984442
vt 0.711086 0.982977
vt 0.583315 0.982977
vt 0.584548 0.740433
vt 0.711086 0.740433
vt 0.983547 0.980256
vt 0.855776 0.980256
vt 0.857009 0.737713
vt 0.983547 0.737713
vt 0.012133 0.477799
vt 0.010371 0.250532
vt 0.216567 0.357260
vt 0.215686 0.475916
vt 0.416243 0.528443
vt 0.418181 0.754873
vt 0.305919 0.758640
vt 0.212690 0.530535
vt 0.305919 0.758640
vt 0.418181 0.754873
vt 0.412189 0.761988
vt 0.305743 0.761569
vt 0.420472 0.473195
vt 0.215686 0.475916
vt 0.221678 0.468801
vt 0.216567 0.357260
vt 0.219387 0.357260
vt 0.221678 0.468801
vt 0.215686 0.475916
vt 0.214981 0.139201
vt 0.212337 0.020754
vt 0.218329 0.027660
vt 0.217801 0.139410
vt 0.212337 0.020754
vt 0.417124 0.019289
vt 0.218329 0.027660
vt 0.122986 0.760523
vt 0.212690 0.530535
vt 0.305919 0.758640
vt 0.123162 0.763453
vt 0.305743 0.761569
vt 0.216038 0.984442
vt 0.305743 0.761569
vt 0.123162 0.763453
vt 0.122986 0.760523
vt 0.305919 0.758640
vt 0.010371 0.250532
vt 0.214981 0.139201
vt 0.216567 0.357260
vt 0.419239 0.246138
vt 0.219387 0.357260
vt 0.217801 0.139410
vt 0.217801 0.139410
vt 0.219387 0.357260
vt 0.216567 0.357260
vt 0.214981 0.139201
vt 0.455720 0.497889
vt 0.583315 0.497889
vt 0.584548 0.740433
vt 0.458187 0.740433
vt 0.731353 0.014894
vt 0.858948 0.014894
vt 0.858948 0.242371
vt 0.731353 0.242371
vt 0.728181 0.495169
vt 0.855776 0.495169
vt 0.857009 0.737713
vt 0.730648 0.737713
vt 0.459597 0.019917
vt 0.587368 0.019917
vt 0.587368 0.247184
vt 0.459597 0.247184
vt 0.731353 0.469847
vt 0.731353 0.242371
vt 0.858948 0.242371
vt 0.858948 0.469847
vt 0.459597 0.474660
vt 0.459597 0.247184
vt 0.587368 0.247184
vt 0.587368 0.474660
vt 0.455720 0.982977
vt 0.458187 0.740433
vt 0.584548 0.740433
vt 0.583315 0.982977
vt 0.728181 0.980256
vt 0.730648 0.737713
vt 0.857009 0.737713
vt 0.855776 0.980256
# num_uvs: 144

g box_closed

f 6/1/6 9/2/9 12/3/12 15/4/15 
f 17/5/17 20/6/20 23/7/23 26/8/26 
f 1/9/1 27/10/27 10/11/10 32/12/32 
f 2/13/2 33/14/33 35/15/35 38/16/38 
f 3/17/3 40/18/40 42/19/42 48/20/48 
f 4/21/4 49/22/49 51/23/51 14/24/14 
f 53/25/53 57/26/57 59/27/59 15/28/15 
f 62/29/62 64/30/64 66/31/66 69/32/69 
f 43/33/43 41/34/41 2/35/2 38/36/38 
f 11/37/11 28/38/28 4/39/4 14/40/14 
f 73/41/73 67/42/67 75/43/75 
f 65/44/65 78/45/78 76/46/76 68/47/68 
f 80/48/80 24/49/24 18/50/18 
f 37/51/37 31/52/31 85/53/85 39/54/39 
f 74/55/74 77/56/77 79/57/79 26/58/26 
f 36/59/36 34/60/34 1/61/1 32/62/32 
f 52/63/52 50/64/50 3/65/3 48/66/48 
f 44/67/44 39/68/39 87/69/87 47/70/47 
f 90/71/90 82/72/82 92/73/92 64/74/64 
f 91/75/91 81/76/81 19/77/19 16/78/16 
f 54/79/54 45/80/45 55/81/55 
f 86/82/86 58/83/58 56/84/56 46/85/46 
f 84/86/84 29/87/29 7/88/7 5/89/5 
f 30/90/30 13/91/13 8/92/8 
f 66/93/66 64/94/64 92/95/92 
f 79/96/79 17/97/17 26/98/26 
f 16/99/16 78/100/78 65/101/65 91/102/91 
f 39/103/39 85/104/85 87/105/87 
f 15/106/15 59/107/59 6/108/6 
f 5/109/5 58/110/58 86/111/86 84/112/84 
f 21/113/21 27/114/27 1/115/1 25/116/25 
f 71/117/71 33/118/33 2/119/2 70/120/70 
f 60/121/60 40/122/40 3/123/3 63/124/63 
f 88/125/88 49/126/49 4/127/4 83/128/83 
f 61/129/61 70/130/70 2/131/2 41/132/41 
f 22/133/22 83/134/83 4/135/4 28/136/28 
f 72/137/72 25/138/25 1/139/1 34/140/34 
f 89/141/89 63/142/63 3/143/3 50/144/50 
# num_faces: 38

