mtllib model.mtl
o model.obj
v 0.000000 1.837497 2.500000
v 0.000000 2.125000 2.399519
v 0.000000 2.399519 2.125000
v 0.000000 2.500000 1.835265
v 0.000000 1.837497 -2.500000
v 0.000000 2.500000 -1.835265
v 0.000000 2.399519 -2.125000
v 0.000000 2.125000 -2.399519
v 0.000000 -1.837497 2.500000
v 0.000000 -2.125000 2.399519
v 0.000000 -2.399519 2.125000
v 0.000000 -2.500000 1.835265
v 0.000000 -1.837497 -2.500000
v 0.000000 -2.500000 -1.835265
v 0.000000 -2.399519 -2.125000
v 0.000000 -2.125000 -2.399519
v 0.250000 1.719637 2.339646
v 0.250000 1.988699 2.245610
v 0.250000 2.245610 1.988699
v 0.250000 2.339646 1.717547
v 0.250000 1.719637 -2.339646
v 0.250000 1.988699 -2.245610
v 0.250000 2.245610 -1.988699
v 0.250000 2.339646 -1.717547
v 0.250000 -1.719637 2.339646
v 0.250000 -1.988699 2.245610
v 0.250000 -2.245610 1.988699
v 0.250000 -2.339646 1.717547
v 0.250000 -1.719637 -2.339646
v 0.250000 -1.988699 -2.245610
v 0.250000 -2.245610 -1.988699
v 0.250000 -2.339646 -1.717547
v 0.250000 0.000000 0.000000
v 0.250000 1.719637 2.339646
v 0.250000 -1.719637 2.339646
v 0.250000 1.988699 2.245610
v 0.250000 2.245610 1.988699
v 0.250000 2.339646 1.717547
v 0.250000 1.719637 -2.339646
v 0.250000 -1.719637 -2.339646
v 0.250000 1.988699 -2.245610
v 0.250000 2.245610 -1.988699
v 0.250000 2.339646 -1.717547
v 0.250000 -2.339646 1.717547
v 0.250000 -2.339646 -1.717547
v 0.250000 -1.988699 2.245610
v 0.250000 -2.245610 1.988699
v 0.250000 -1.988699 -2.245610
v 0.250000 -2.245610 -1.988699
vn 0.578675 0.132629 0.804702
vn 0.629827 0.410938 0.659127
vn 0.629746 0.659700 0.410141
vn 0.578402 0.805043 0.131746
vn 0.578675 0.132629 -0.804702
vn 0.578402 0.805043 -0.131746
vn 0.629746 0.659700 -0.410141
vn 0.629827 0.410938 -0.659127
vn 0.578675 -0.132629 0.804702
vn 0.629827 -0.410938 0.659127
vn 0.629746 -0.659700 0.410141
vn 0.578402 -0.805043 0.131746
vn 0.578675 -0.132629 -0.804702
vn 0.578402 -0.805043 -0.131746
vn 0.629746 -0.659700 -0.410141
vn 0.629827 -0.410938 -0.659127
vn 0.578675 0.132629 0.804702
vn 0.629827 0.410938 0.659127
vn 0.629746 0.659700 0.410141
vn 0.578402 0.805043 0.131746
vn 0.578675 0.132629 -0.804702
vn 0.629827 0.410938 -0.659127
vn 0.629746 0.659700 -0.410141
vn 0.578402 0.805043 -0.131746
vn 0.578675 -0.132629 0.804702
vn 0.629827 -0.410938 0.659127
vn 0.629746 -0.659700 0.410141
vn 0.578402 -0.805043 0.131746
vn 0.578675 -0.132629 -0.804702
vn 0.629827 -0.410938 -0.659127
vn 0.629746 -0.659700 -0.410141
vn 0.578402 -0.805043 -0.131746
vn 1.000000 0.000000 0.000000
vn 1.000000 0.000000 0.000000
vn 1.000000 0.000000 0.000000
vn 1.000000 0.000000 0.000000
vn 1.000000 0.000000 0.000000
vn 1.000000 0.000000 0.000000
vn 1.000000 0.000000 0.000000
vn 1.000000 0.000000 0.000000
vn 1.000000 0.000000 0.000000
vn 1.000000 0.000000 0.000000
vn 1.000000 0.000000 0.000000
vn 1.000000 0.000000 0.000000
vn 1.000000 0.000000 0.000000
vn 1.000000 0.000000 0.000000
vn 1.000000 0.000000 0.000000
vn 1.000000 0.000000 0.000000
vn 1.000000 0.000000 0.000000
vt 0.070653 0.815667
vt 0.005059 0.845219
vt 0.004951 0.154846
vt 0.070597 0.184368
vt 0.026818 0.911784
vt 0.087902 0.864977
vt 0.086443 0.972772
vt 0.135063 0.912133
vt 0.155278 0.994997
vt 0.184758 0.929378
vt 0.995004 0.845218
vt 0.929385 0.815685
vt 0.929429 0.184386
vt 0.995049 0.154846
vt 0.815257 0.929372
vt 0.844777 0.994964
vt 0.864959 0.912136
vt 0.911717 0.973233
vt 0.912127 0.864987
vt 0.972745 0.913653
vt 0.184759 0.070632
vt 0.155249 0.005034
vt 0.844783 0.005003
vt 0.815291 0.070625
vt 0.087862 0.135048
vt 0.027219 0.086370
vt 0.135042 0.087881
vt 0.088274 0.026766
vt 0.913638 0.027232
vt 0.865000 0.087884
vt 0.973282 0.088245
vt 0.912173 0.135058
vt 0.500016 0.500004
vt 0.070653 0.815667
vt 0.070597 0.184368
vt 0.087902 0.864977
vt 0.135063 0.912133
vt 0.184758 0.929378
vt 0.929385 0.815685
vt 0.929429 0.184386
vt 0.912127 0.864987
vt 0.864959 0.912136
vt 0.815257 0.929372
vt 0.184759 0.070632
vt 0.815291 0.070625
vt 0.087862 0.135048
vt 0.135042 0.087881
vt 0.912173 0.135058
vt 0.865000 0.087884
g base
usemtl Default
f 17/1/17 1/2/1 9/3/9 25/4/25 
f 2/5/2 1/2/1 17/1/17 18/6/18 
f 3/7/3 2/5/2 18/6/18 19/8/19 
f 4/9/4 3/7/3 19/8/19 20/10/20 
f 5/11/5 21/12/21 29/13/29 13/14/13 
f 20/10/20 24/15/24 6/16/6 4/9/4 
f 24/15/24 23/17/23 7/18/7 6/16/6 
f 23/17/23 22/19/22 8/20/8 7/18/7 
f 22/19/22 21/12/21 5/11/5 8/20/8 
f 28/21/28 12/22/12 14/23/14 32/24/32 
f 26/25/26 25/4/25 9/3/9 10/26/10 
f 27/27/27 26/25/26 10/26/10 11/28/11 
f 28/21/28 27/27/27 11/28/11 12/22/12 
f 14/23/14 15/29/15 31/30/31 32/24/32 
f 15/29/15 16/31/16 30/32/30 31/30/31 
f 16/31/16 13/14/13 29/13/29 30/32/30 
f 33/33/33 34/34/34 35/35/35 
f 36/36/36 34/34/34 33/33/33 
f 37/37/37 36/36/36 33/33/33 
f 38/38/38 37/37/37 33/33/33 
f 39/39/39 33/33/33 40/40/40 
f 33/33/33 39/39/39 41/41/41 
f 33/33/33 41/41/41 42/42/42 
f 33/33/33 42/42/42 43/43/43 
f 33/33/33 43/43/43 38/38/38 
f 33/33/33 44/44/44 45/45/45 
f 33/33/33 35/35/35 46/46/46 
f 33/33/33 46/46/46 47/47/47 
f 33/33/33 47/47/47 44/44/44 
f 48/48/48 40/40/40 33/33/33 
f 49/49/49 48/48/48 33/33/33 
f 45/45/45 49/49/49 33/33/33 
