mtllib model.mtl
o model.obj
v 0.245000 2.880000 -3.840000
v 0.245000 -2.880000 3.840000
v 0.245000 -2.880000 -3.840000
v 0.245000 2.880000 3.840000
v 0.005000 2.880000 -3.840000
v 0.005000 2.880000 3.840000
v 0.245000 2.880000 3.840000
v 0.245000 2.880000 -3.840000
v 0.005000 -2.880000 3.840000
v 0.005000 -2.880000 -3.840000
v 0.245000 -2.880000 -3.840000
v 0.245000 -2.880000 3.840000
v 0.005000 2.880000 3.840000
v 0.005000 -2.880000 3.840000
v 0.245000 -2.880000 3.840000
v 0.245000 2.880000 3.840000
v 0.005000 -2.880000 -3.840000
v 0.005000 2.880000 -3.840000
v 0.245000 2.880000 -3.840000
v 0.245000 -2.880000 -3.840000
vn 1.000000 0.000000 0.000000
vn 1.000000 0.000000 0.000000
vn 1.000000 0.000000 0.000000
vn 1.000000 0.000000 0.000000
vn 0.000000 1.000000 0.000000
vn 0.000000 1.000000 0.000000
vn 0.000000 1.000000 0.000000
vn 0.000000 1.000000 0.000000
vn 0.000000 -1.000000 0.000000
vn 0.000000 -1.000000 0.000000
vn 0.000000 -1.000000 0.000000
vn 0.000000 -1.000000 0.000000
vn 0.000000 0.000000 1.000000
vn 0.000000 0.000000 1.000000
vn 0.000000 0.000000 1.000000
vn 0.000000 0.000000 1.000000
vn 0.000000 0.000000 -1.000000
vn 0.000000 0.000000 -1.000000
vn 0.000000 0.000000 -1.000000
vn 0.000000 0.000000 -1.000000
vt 0.037819 0.047692
vt 0.965882 0.047697
vt 0.965879 0.946754
vt 0.037816 0.946749
vt 0.965879 0.990000
vt 0.037815 0.989995
vt 0.037816 0.946749
vt 0.965879 0.946754
vt 0.037819 0.010000
vt 0.965883 0.010005
vt 0.965882 0.047697
vt 0.037819 0.047692
vt 0.005000 0.946748
vt 0.005003 0.047692
vt 0.037819 0.047692
vt 0.037816 0.946749
vt 0.995000 0.047698
vt 0.994997 0.946754
vt 0.965879 0.946754
vt 0.965882 0.047697
g base
usemtl Default
f 2/1/2 3/2/3 1/3/1 4/4/4 
f 5/5/5 6/6/6 7/7/7 8/8/8 
f 9/9/9 10/10/10 11/11/11 12/12/12 
f 13/13/13 14/14/14 15/15/15 16/16/16 
f 17/17/17 18/18/18 19/19/19 20/20/20 
