mtllib model.mtl
o model.obj
v -4.000000 0.000000 4.000000
v -4.000000 12.000000 4.000000
v -4.000000 12.000000 -4.000000
v 4.000000 12.000000 -4.000000
v 4.000000 12.000000 4.000000
v 4.000000 0.000000 -4.000000
v 4.000000 0.000000 4.000000
v -4.000000 0.000000 -4.000000
v -4.000000 0.000000 4.000000
v -4.080000 6.000000 4.080000
v -4.080000 6.000000 -4.080000
v -4.000000 0.000000 -4.000000
v 4.000000 0.000000 -4.000000
v 4.080000 6.000000 -4.080000
v 4.080000 6.000000 4.080000
v 4.000000 0.000000 4.000000
v -4.000000 12.000000 4.000000
v -4.000000 12.000000 -4.000000
v 4.000000 12.000000 -4.000000
v 4.000000 12.000000 4.000000
v 4.000000 0.000000 4.000000
v 4.080000 6.000000 4.080000
v -4.080000 6.000000 4.080000
v -4.000000 0.000000 4.000000
v 4.080000 6.000000 -4.080000
v 4.000000 0.000000 -4.000000
v -4.000000 0.000000 -4.000000
v -4.080000 6.000000 -4.080000
v 4.000000 12.000000 4.000000
v -4.000000 12.000000 4.000000
v 4.000000 12.000000 -4.000000
v -4.000000 12.000000 -4.000000
vn 0.000000 -1.000000 0.000000
vn 0.000000 1.000000 0.000000
vn 0.000000 1.000000 0.000000
vn 0.000000 1.000000 0.000000
vn 0.000000 1.000000 0.000000
vn 0.000000 -1.000000 0.000000
vn 0.000000 -1.000000 0.000000
vn 0.000000 -1.000000 0.000000
vn -0.999911 -0.013332 0.000000
vn -1.000000 0.000000 0.000000
vn -1.000000 0.000000 0.000000
vn -0.999911 -0.013332 0.000000
vn 0.999911 -0.013332 0.000000
vn 1.000000 0.000000 0.000000
vn 1.000000 0.000000 0.000000
vn 0.999911 -0.013332 0.000000
vn -0.999911 0.013332 0.000000
vn -0.999911 0.013332 0.000000
vn 0.999911 0.013332 0.000000
vn 0.999911 0.013332 0.000000
vn 0.000000 -0.013332 0.999911
vn 0.000000 0.000000 1.000000
vn 0.000000 0.000000 1.000000
vn 0.000000 -0.013332 0.999911
vn 0.000000 0.000000 -1.000000
vn 0.000000 -0.013332 -0.999911
vn 0.000000 -0.013332 -0.999911
vn 0.000000 0.000000 -1.000000
vn 0.000000 0.013332 0.999911
vn 0.000000 0.013332 0.999911
vn 0.000000 0.013332 -0.999911
vn 0.000000 0.013332 -0.999911
vt 0.663952 0.503977
vt 0.982315 0.503977
vt 0.982315 0.822340
vt 0.663952 0.822340
vt 0.655998 0.822340
vt 0.337635 0.822340
vt 0.337635 0.503977
vt 0.655998 0.503977
vt 0.659181 0.018436
vt 0.662365 0.257229
vt 0.337635 0.257229
vt 0.340819 0.018436
vt 0.326498 0.018436
vt 0.329681 0.257230
vt 0.004951 0.257230
vt 0.008135 0.018436
vt 0.659181 0.496023
vt 0.340819 0.496023
vt 0.326498 0.496023
vt 0.008135 0.496023
vt 0.326497 0.503977
vt 0.329681 0.742770
vt 0.004951 0.742770
vt 0.008134 0.503977
vt 0.995049 0.257229
vt 0.991866 0.496023
vt 0.673503 0.496023
vt 0.670319 0.257229
vt 0.326497 0.981564
vt 0.008134 0.981564
vt 0.991866 0.018436
vt 0.673503 0.018436
g box
usemtl Material1
f 2/1/2 5/2/5 4/3/4 3/4/3 
f 7/5/7 1/6/1 8/7/8 6/8/6 
f 9/9/9 10/10/10 11/11/11 12/12/12 
f 13/13/13 14/14/14 15/15/15 16/16/16 
f 10/10/10 17/17/17 18/18/18 11/11/11 
f 14/14/14 19/19/19 20/20/20 15/15/15 
f 21/21/21 22/22/22 23/23/23 24/24/24 
f 25/25/25 26/26/26 27/27/27 28/28/28 
f 22/22/22 29/29/29 30/30/30 23/23/23 
f 31/31/31 25/25/25 28/28/28 32/32/32 
