mtllib model.mtl
o model.obj
v 0.500000 -4.750000 -6.000000
v 0.500000 -4.750000 6.000000
v 0.000000 -4.750000 6.000000
v 0.000000 -4.750000 -6.000000
v 0.500000 -3.750000 5.000000
v 0.500000 -3.750000 -5.000000
v 0.250000 -3.750000 -5.000000
v 0.250000 -3.750000 5.000000
v 0.500000 4.750000 6.000000
v 0.500000 4.750000 -6.000000
v 0.000000 4.750000 -6.000000
v 0.000000 4.750000 6.000000
v 0.500000 3.750000 -5.000000
v 0.500000 3.750000 5.000000
v 0.250000 3.750000 5.000000
v 0.250000 3.750000 -5.000000
v 0.500000 -3.750000 -5.000000
v 0.500000 -3.750000 5.000000
v 0.500000 -4.750000 6.000000
v 0.500000 -4.750000 -6.000000
v 0.500000 4.750000 -6.000000
v 0.500000 3.750000 -5.000000
v 0.500000 4.750000 6.000000
v 0.500000 3.750000 5.000000
v 0.500000 -4.750000 6.000000
v 0.500000 4.750000 6.000000
v 0.000000 4.750000 6.000000
v 0.000000 -4.750000 6.000000
v 0.500000 3.750000 5.000000
v 0.500000 -3.750000 5.000000
v 0.250000 -3.750000 5.000000
v 0.250000 3.750000 5.000000
v 0.250000 -3.750000 -5.000000
v 0.500000 -3.750000 -5.000000
v 0.500000 3.750000 -5.000000
v 0.250000 3.750000 -5.000000
v 0.500000 -4.750000 -6.000000
v 0.000000 -4.750000 -6.000000
v 0.000000 4.750000 -6.000000
v 0.500000 4.750000 -6.000000
vn 0.000000 -1.000000 0.000000
vn 0.000000 -1.000000 0.000000
vn 0.000000 -1.000000 0.000000
vn 0.000000 -1.000000 0.000000
vn 0.000000 1.000000 0.000000
vn 0.000000 1.000000 0.000000
vn 0.000000 1.000000 0.000000
vn 0.000000 1.000000 0.000000
vn 0.000000 1.000000 0.000000
vn 0.000000 1.000000 0.000000
vn 0.000000 1.000000 0.000000
vn 0.000000 1.000000 0.000000
vn 0.000000 -1.000000 0.000000
vn 0.000000 -1.000000 0.000000
vn 0.000000 -1.000000 0.000000
vn 0.000000 -1.000000 0.000000
vn 1.000000 0.000000 0.000000
vn 1.000000 0.000000 0.000000
vn 1.000000 0.000000 0.000000
vn 1.000000 0.000000 0.000000
vn 1.000000 0.000000 0.000000
vn 1.000000 0.000000 0.000000
vn 1.000000 0.000000 0.000000
vn 1.000000 0.000000 0.000000
vn 0.000000 0.000000 1.000000
vn 0.000000 0.000000 1.000000
vn 0.000000 0.000000 1.000000
vn 0.000000 0.000000 1.000000
vn 0.000000 0.000000 -1.000000
vn 0.000000 0.000000 -1.000000
vn 0.000000 0.000000 -1.000000
vn 0.000000 0.000000 -1.000000
vn 0.000000 0.000000 1.000000
vn 0.000000 0.000000 1.000000
vn 0.000000 0.000000 1.000000
vn 0.000000 0.000000 1.000000
vn 0.000000 0.000000 -1.000000
vn 0.000000 0.000000 -1.000000
vn 0.000000 0.000000 -1.000000
vn 0.000000 0.000000 -1.000000
vt 0.990000 0.641403
vt 0.010000 0.641403
vt 0.010000 0.517964
vt 0.990000 0.517964
vt 0.091666 0.888281
vt 0.908333 0.888281
vt 0.908333 0.950000
vt 0.091666 0.950000
vt 0.990000 0.641403
vt 0.990000 0.517964
vt 0.010000 0.517964
vt 0.010000 0.641403
vt 0.091666 0.888281
vt 0.091666 0.950000
vt 0.908333 0.950000
vt 0.908333 0.888281
vt 0.908333 0.888281
vt 0.091666 0.888281
vt 0.010000 0.641403
vt 0.990000 0.641403
vt 0.112073 0.359648
vt 0.193698 0.112647
vt 0.806199 0.111720
vt 0.887906 0.358474
vt 0.010000 0.641403
vt 0.091666 0.888281
vt 0.908333 0.888281
vt 0.990000 0.641403
vt 0.806224 0.112015
vt 0.193722 0.112416
vt 0.112073 0.359347
vt 0.887908 0.358842
vt 0.887908 0.358842
vt 0.112073 0.359347
vt 0.112081 0.482789
vt 0.887917 0.482280
vt 0.193722 0.112416
vt 0.806224 0.112015
vt 0.806219 0.050295
vt 0.193718 0.050696
vt 0.806189 0.050000
vt 0.806199 0.111720
vt 0.193698 0.112647
vt 0.193688 0.050928
vt 0.887906 0.358474
vt 0.887927 0.481913
vt 0.112093 0.483086
vt 0.112073 0.359648
g frame
usemtl Default
f 1/1/1 2/2/2 3/3/3 
f 1/1/1 3/3/3 4/4/4 
f 5/5/5 6/6/6 7/7/7 
f 5/5/5 7/7/7 8/8/8 
f 10/9/10 11/10/11 12/11/12 
f 12/11/12 9/12/9 10/9/10 
f 14/13/14 15/14/15 16/15/16 
f 16/15/16 13/16/13 14/13/14 
f 17/17/17 18/18/18 19/19/19 
f 17/17/17 19/19/19 20/20/20 
f 21/21/21 22/22/22 17/23/17 
f 17/23/17 20/24/20 21/21/21 
f 23/25/23 24/26/24 22/27/22 
f 22/27/22 21/28/21 23/25/23 
f 18/29/18 24/30/24 23/31/23 
f 18/29/18 23/31/23 19/32/19 
f 25/33/25 26/34/26 27/35/27 
f 25/33/25 27/35/27 28/36/28 
f 29/37/29 30/38/30 31/39/31 
f 29/37/29 31/39/31 32/40/32 
f 33/41/33 34/42/34 35/43/35 
f 35/43/35 36/44/36 33/41/33 
f 37/45/37 38/46/38 39/47/39 
f 39/47/39 40/48/40 37/45/37 
v 0.250000 -3.750000 5.000000
v 0.250000 -3.750000 -5.000000
v 0.250000 3.750000 -5.000000
v 0.250000 3.750000 5.000000
vn 1.000000 0.000000 0.000000
vn 1.000000 0.000000 0.000000
vn 1.000000 0.000000 0.000000
vn 1.000000 0.000000 0.000000
vt 0.005000 0.005000
vt 0.995000 0.005000
vt 0.995000 0.995000
vt 0.005000 0.995000
g pic
usemtl Default
f 41/49/41 42/50/42 43/51/43 
f 41/49/41 43/51/43 44/52/44 
